<svg width="662" height="105" viewBox="0 0 662 105" fill="none" xmlns="http://www.w3.org/2000/svg">
<path d="M285.278 70.49V64.046C285.278 63.818 285.344 63.638 285.476 63.506C285.608 63.374 285.782 63.272 285.998 63.2C286.394 63.056 286.868 62.954 287.42 62.894C287.972 62.834 288.47 62.804 288.914 62.804C290.534 62.804 291.758 63.152 292.586 63.848C293.426 64.532 293.846 65.468 293.846 66.656C293.846 67.424 293.66 68.096 293.288 68.672C292.928 69.248 292.406 69.698 291.722 70.022C291.038 70.334 290.216 70.49 289.256 70.49H285.278ZM286.754 74.126C286.214 74.126 285.83 74.03 285.602 73.838C285.386 73.646 285.278 73.31 285.278 72.83V69.284H288.014V73.982C287.906 74.018 287.732 74.048 287.492 74.072C287.252 74.108 287.006 74.126 286.754 74.126ZM287.996 68.33H289.076C289.688 68.33 290.168 68.186 290.516 67.898C290.876 67.61 291.056 67.196 291.056 66.656C291.056 66.116 290.888 65.708 290.552 65.432C290.216 65.156 289.73 65.018 289.094 65.018C288.878 65.018 288.68 65.024 288.5 65.036C288.332 65.048 288.164 65.066 287.996 65.09V68.33ZM298.483 67.682V69.932H295.819V67.358C295.819 67.022 295.897 66.74 296.053 66.512C296.221 66.272 296.449 66.062 296.737 65.882C297.133 65.642 297.607 65.456 298.159 65.324C298.723 65.18 299.311 65.108 299.923 65.108C301.147 65.108 301.759 65.516 301.759 66.332C301.759 66.524 301.729 66.704 301.669 66.872C301.621 67.04 301.561 67.184 301.489 67.304C301.369 67.28 301.219 67.262 301.039 67.25C300.871 67.226 300.685 67.214 300.481 67.214C300.121 67.214 299.761 67.256 299.401 67.34C299.041 67.424 298.735 67.538 298.483 67.682ZM295.819 69.248L298.483 69.302V73.982C298.363 74.018 298.195 74.048 297.979 74.072C297.763 74.108 297.529 74.126 297.277 74.126C296.773 74.126 296.401 74.036 296.161 73.856C295.933 73.676 295.819 73.352 295.819 72.884V69.248ZM312.247 69.68C312.247 70.616 312.055 71.432 311.671 72.128C311.299 72.812 310.771 73.34 310.087 73.712C309.403 74.084 308.599 74.27 307.675 74.27C306.763 74.27 305.959 74.09 305.263 73.73C304.579 73.358 304.045 72.83 303.661 72.146C303.289 71.45 303.103 70.628 303.103 69.68C303.103 68.732 303.295 67.922 303.679 67.25C304.063 66.566 304.597 66.038 305.281 65.666C305.977 65.282 306.775 65.09 307.675 65.09C308.587 65.09 309.385 65.282 310.069 65.666C310.753 66.038 311.287 66.572 311.671 67.268C312.055 67.952 312.247 68.756 312.247 69.68ZM307.675 67.196C307.111 67.196 306.661 67.412 306.325 67.844C306.001 68.276 305.839 68.888 305.839 69.68C305.839 70.484 306.001 71.102 306.325 71.534C306.649 71.954 307.099 72.164 307.675 72.164C308.251 72.164 308.701 71.948 309.025 71.516C309.349 71.084 309.511 70.472 309.511 69.68C309.511 68.9 309.349 68.294 309.025 67.862C308.701 67.418 308.251 67.196 307.675 67.196ZM314.661 69.248H317.307V71.174C317.307 71.51 317.415 71.756 317.631 71.912C317.847 72.068 318.153 72.146 318.549 72.146C318.729 72.146 318.921 72.128 319.125 72.092C319.341 72.044 319.521 71.99 319.665 71.93C319.761 72.038 319.845 72.17 319.917 72.326C320.001 72.482 320.043 72.662 320.043 72.866C320.043 73.274 319.875 73.61 319.539 73.874C319.203 74.138 318.639 74.27 317.847 74.27C316.839 74.27 316.053 74.042 315.489 73.586C314.937 73.13 314.661 72.386 314.661 71.354V69.248ZM316.353 67.61V65.558H319.809C319.869 65.654 319.929 65.792 319.989 65.972C320.049 66.152 320.079 66.35 320.079 66.566C320.079 66.926 319.995 67.19 319.827 67.358C319.671 67.526 319.455 67.61 319.179 67.61H316.353ZM317.307 69.698H314.661V63.236C314.781 63.2 314.949 63.164 315.165 63.128C315.381 63.08 315.609 63.056 315.849 63.056C316.365 63.056 316.737 63.146 316.965 63.326C317.193 63.506 317.307 63.836 317.307 64.316V69.698ZM331.019 69.68C331.019 70.616 330.827 71.432 330.443 72.128C330.071 72.812 329.543 73.34 328.859 73.712C328.175 74.084 327.371 74.27 326.447 74.27C325.535 74.27 324.731 74.09 324.035 73.73C323.351 73.358 322.817 72.83 322.433 72.146C322.061 71.45 321.875 70.628 321.875 69.68C321.875 68.732 322.067 67.922 322.451 67.25C322.835 66.566 323.369 66.038 324.053 65.666C324.749 65.282 325.547 65.09 326.447 65.09C327.359 65.09 328.157 65.282 328.841 65.666C329.525 66.038 330.059 66.572 330.443 67.268C330.827 67.952 331.019 68.756 331.019 69.68ZM326.447 67.196C325.883 67.196 325.433 67.412 325.097 67.844C324.773 68.276 324.611 68.888 324.611 69.68C324.611 70.484 324.773 71.102 325.097 71.534C325.421 71.954 325.871 72.164 326.447 72.164C327.023 72.164 327.473 71.948 327.797 71.516C328.121 71.084 328.283 70.472 328.283 69.68C328.283 68.9 328.121 68.294 327.797 67.862C327.473 67.418 327.023 67.196 326.447 67.196ZM333.433 69.248H336.079V71.174C336.079 71.51 336.187 71.756 336.403 71.912C336.619 72.068 336.925 72.146 337.321 72.146C337.501 72.146 337.693 72.128 337.897 72.092C338.113 72.044 338.293 71.99 338.437 71.93C338.533 72.038 338.617 72.17 338.689 72.326C338.773 72.482 338.815 72.662 338.815 72.866C338.815 73.274 338.647 73.61 338.311 73.874C337.975 74.138 337.411 74.27 336.619 74.27C335.611 74.27 334.825 74.042 334.261 73.586C333.709 73.13 333.433 72.386 333.433 71.354V69.248ZM335.125 67.61V65.558H338.581C338.641 65.654 338.701 65.792 338.761 65.972C338.821 66.152 338.851 66.35 338.851 66.566C338.851 66.926 338.767 67.19 338.599 67.358C338.443 67.526 338.227 67.61 337.951 67.61H335.125ZM336.079 69.698H333.433V63.236C333.553 63.2 333.721 63.164 333.937 63.128C334.153 63.08 334.381 63.056 334.621 63.056C335.137 63.056 335.509 63.146 335.737 63.326C335.965 63.506 336.079 63.836 336.079 64.316V69.698ZM341.077 62.876C341.077 62.468 341.215 62.126 341.491 61.85C341.779 61.574 342.139 61.436 342.571 61.436C343.015 61.436 343.375 61.574 343.651 61.85C343.927 62.126 344.065 62.468 344.065 62.876C344.065 63.272 343.927 63.614 343.651 63.902C343.375 64.19 343.015 64.334 342.571 64.334C342.139 64.334 341.779 64.19 341.491 63.902C341.215 63.614 341.077 63.272 341.077 62.876ZM341.239 69.248H343.903V73.982C343.795 74.018 343.633 74.048 343.417 74.072C343.201 74.108 342.967 74.126 342.715 74.126C342.199 74.126 341.821 74.036 341.581 73.856C341.353 73.676 341.239 73.352 341.239 72.884V69.248ZM343.903 70.634H341.239V65.468C341.347 65.432 341.509 65.396 341.725 65.36C341.953 65.324 342.193 65.306 342.445 65.306C342.961 65.306 343.333 65.396 343.561 65.576C343.789 65.744 343.903 66.074 343.903 66.566V70.634ZM351.075 74.27C350.619 74.27 350.211 74.21 349.851 74.09C349.491 73.982 349.179 73.856 348.915 73.712V71.462C349.119 71.63 349.365 71.786 349.653 71.93C349.953 72.074 350.289 72.146 350.661 72.146C351.321 72.146 351.831 71.936 352.191 71.516C352.563 71.096 352.749 70.466 352.749 69.626C352.749 69.05 352.665 68.588 352.497 68.24C352.341 67.88 352.113 67.616 351.813 67.448C351.513 67.28 351.159 67.196 350.751 67.196C350.475 67.196 350.223 67.232 349.995 67.304C349.779 67.364 349.593 67.442 349.437 67.538V73.046H346.791V67.16C346.791 66.86 346.851 66.614 346.971 66.422C347.091 66.218 347.277 66.038 347.529 65.882C347.889 65.654 348.345 65.468 348.897 65.324C349.449 65.168 350.067 65.09 350.751 65.09C351.675 65.09 352.491 65.252 353.199 65.576C353.919 65.888 354.477 66.38 354.873 67.052C355.269 67.712 355.467 68.57 355.467 69.626C355.467 70.646 355.275 71.498 354.891 72.182C354.507 72.866 353.985 73.388 353.325 73.748C352.665 74.096 351.915 74.27 351.075 74.27ZM348.249 77.366C347.745 77.366 347.373 77.276 347.133 77.096C346.905 76.916 346.791 76.586 346.791 76.106V72.362H349.455V77.204C349.335 77.24 349.167 77.276 348.951 77.312C348.735 77.348 348.501 77.366 348.249 77.366ZM366.612 69.68C366.612 70.616 366.42 71.432 366.036 72.128C365.664 72.812 365.136 73.34 364.452 73.712C363.768 74.084 362.964 74.27 362.04 74.27C361.128 74.27 360.324 74.09 359.628 73.73C358.944 73.358 358.41 72.83 358.026 72.146C357.654 71.45 357.468 70.628 357.468 69.68C357.468 68.732 357.66 67.922 358.044 67.25C358.428 66.566 358.962 66.038 359.646 65.666C360.342 65.282 361.14 65.09 362.04 65.09C362.952 65.09 363.75 65.282 364.434 65.666C365.118 66.038 365.652 66.572 366.036 67.268C366.42 67.952 366.612 68.756 366.612 69.68ZM362.04 67.196C361.476 67.196 361.026 67.412 360.69 67.844C360.366 68.276 360.204 68.888 360.204 69.68C360.204 70.484 360.366 71.102 360.69 71.534C361.014 71.954 361.464 72.164 362.04 72.164C362.616 72.164 363.066 71.948 363.39 71.516C363.714 71.084 363.876 70.472 363.876 69.68C363.876 68.9 363.714 68.294 363.39 67.862C363.066 67.418 362.616 67.196 362.04 67.196Z" fill="#F7F9FB"/>
<path d="M321.999 28.25C321.999 32.2541 318.753 35.5 314.749 35.5C310.745 35.5 307.499 32.2541 307.499 28.25C307.499 24.2459 310.745 21 314.749 21C318.753 21 321.999 24.2459 321.999 28.25Z" stroke="#F5DF4D" stroke-width="2"/>
<path d="M304.877 48.3765C303.517 49.7362 301.673 50.5 299.75 50.5C297.827 50.5 295.983 49.7362 294.623 48.3765C293.264 47.0169 292.5 45.1728 292.5 43.25C292.5 41.3272 293.264 39.4831 294.623 38.1235C295.983 36.7638 297.827 36 299.75 36H307V43.25C307 45.1728 306.236 47.0169 304.877 48.3765Z" stroke="#F5DF4D" stroke-width="2"/>
<path d="M307 21V35.5H299.75C297.827 35.5 295.983 34.7362 294.623 33.3765C293.264 32.0169 292.5 30.1728 292.5 28.25C292.5 26.3272 293.264 24.4831 294.623 23.1235C295.983 21.7638 297.827 21 299.75 21H307Z" stroke="#F5DF4D" stroke-width="2"/>
<path d="M307 6V20.5H299.75C297.827 20.5 295.983 19.7362 294.623 18.3765C293.264 17.0169 292.5 15.1728 292.5 13.25C292.5 11.3272 293.264 9.48311 294.623 8.12348C295.983 6.76384 297.827 6 299.75 6H307Z" stroke="#F5DF4D" stroke-width="2"/>
<path d="M314.75 20.5H307.5V6H314.75C316.673 6 318.517 6.76384 319.877 8.12348C321.236 9.48311 322 11.3272 322 13.25C322 15.1728 321.236 17.0169 319.877 18.3765C318.517 19.7362 316.673 20.5 314.75 20.5Z" stroke="#F5DF4D" stroke-width="2"/>
<path d="M431.67 60.36H431.562C431.442 60.744 431.298 61.17 431.13 61.638C430.974 62.106 430.812 62.598 430.644 63.114C430.476 63.618 430.314 64.122 430.158 64.626L429.834 66.246C429.762 66.474 429.69 66.714 429.618 66.966C429.558 67.218 429.492 67.464 429.42 67.704C429.348 67.944 429.282 68.172 429.222 68.388C429.162 68.604 429.102 68.808 429.042 69C428.91 69.036 428.76 69.072 428.592 69.108C428.424 69.156 428.226 69.18 427.998 69.18C427.494 69.18 427.11 69.09 426.846 68.91C426.582 68.73 426.45 68.466 426.45 68.118C426.45 67.974 426.468 67.824 426.504 67.668C426.552 67.512 426.606 67.332 426.666 67.128C426.774 66.732 426.924 66.234 427.116 65.634C427.32 65.034 427.536 64.386 427.764 63.69C428.004 62.982 428.244 62.286 428.484 61.602C428.736 60.918 428.964 60.288 429.168 59.712C429.384 59.136 429.558 58.686 429.69 58.362C429.858 58.254 430.122 58.158 430.482 58.074C430.854 57.978 431.22 57.93 431.58 57.93C432.096 57.93 432.558 58.008 432.966 58.164C433.374 58.308 433.632 58.542 433.74 58.866C433.968 59.502 434.214 60.24 434.478 61.08C434.754 61.908 435.03 62.778 435.306 63.69C435.582 64.602 435.846 65.49 436.098 66.354C436.362 67.206 436.59 67.974 436.782 68.658C436.65 68.802 436.458 68.922 436.206 69.018C435.954 69.126 435.654 69.18 435.306 69.18C434.814 69.18 434.466 69.09 434.262 68.91C434.058 68.73 433.902 68.46 433.794 68.1L433.218 66.084L432.912 64.554C432.768 64.014 432.618 63.492 432.462 62.988C432.306 62.484 432.162 62.01 432.03 61.566C431.898 61.11 431.778 60.708 431.67 60.36ZM428.628 66.57L429.69 64.446H433.902L434.262 66.57H428.628ZM437.793 71.034C438.081 70.89 438.315 70.728 438.495 70.548C438.687 70.38 438.825 70.176 438.909 69.936C439.005 69.696 439.053 69.396 439.053 69.036V64.518H441.735V69.324C441.735 70.08 441.615 70.692 441.375 71.16C441.135 71.628 440.829 71.97 440.457 72.186C440.097 72.402 439.707 72.51 439.287 72.51C438.831 72.51 438.471 72.366 438.207 72.078C437.943 71.802 437.805 71.454 437.793 71.034ZM438.837 57.876C438.837 57.468 438.975 57.126 439.251 56.85C439.527 56.574 439.887 56.436 440.331 56.436C440.763 56.436 441.117 56.574 441.393 56.85C441.681 57.126 441.825 57.468 441.825 57.876C441.825 58.272 441.681 58.614 441.393 58.902C441.117 59.19 440.763 59.334 440.331 59.334C439.887 59.334 439.527 59.19 439.251 58.902C438.975 58.614 438.837 58.272 438.837 57.876ZM441.735 65.688L439.053 65.634V60.468C439.173 60.432 439.341 60.396 439.557 60.36C439.773 60.324 440.007 60.306 440.259 60.306C440.775 60.306 441.147 60.396 441.375 60.576C441.615 60.744 441.735 61.074 441.735 61.566V65.688ZM444.603 65.634V64.338H447.267V65.616C447.267 66.168 447.405 66.564 447.681 66.804C447.969 67.044 448.371 67.164 448.887 67.164C449.211 67.164 449.481 67.134 449.697 67.074C449.913 67.014 450.075 66.954 450.183 66.894V64.338H452.865V67.218C452.865 67.506 452.805 67.752 452.685 67.956C452.577 68.16 452.397 68.34 452.145 68.496C451.761 68.736 451.287 68.922 450.723 69.054C450.171 69.198 449.553 69.27 448.869 69.27C448.017 69.27 447.267 69.144 446.619 68.892C445.983 68.64 445.485 68.25 445.125 67.722C444.777 67.182 444.603 66.486 444.603 65.634ZM452.865 65.148H450.183V60.396C450.303 60.36 450.471 60.324 450.687 60.288C450.903 60.252 451.137 60.234 451.389 60.234C451.905 60.234 452.277 60.324 452.505 60.504C452.745 60.672 452.865 61.002 452.865 61.494V65.148ZM447.267 65.148H444.603V60.396C444.711 60.36 444.873 60.324 445.089 60.288C445.305 60.252 445.539 60.234 445.791 60.234C446.307 60.234 446.679 60.324 446.907 60.504C447.147 60.672 447.267 61.002 447.267 61.494V65.148ZM462.661 66.48C462.661 67.356 462.331 68.046 461.671 68.55C461.011 69.042 460.051 69.288 458.791 69.288C457.807 69.288 456.997 69.144 456.361 68.856C455.725 68.568 455.407 68.142 455.407 67.578C455.407 67.326 455.461 67.11 455.569 66.93C455.677 66.738 455.815 66.588 455.983 66.48C456.319 66.672 456.709 66.852 457.153 67.02C457.609 67.176 458.125 67.254 458.701 67.254C459.577 67.254 460.015 67.002 460.015 66.498C460.015 66.282 459.937 66.114 459.781 65.994C459.625 65.862 459.367 65.766 459.007 65.706L458.251 65.526C457.291 65.322 456.571 65.01 456.091 64.59C455.623 64.158 455.389 63.57 455.389 62.826C455.389 61.986 455.725 61.32 456.397 60.828C457.081 60.324 457.999 60.072 459.151 60.072C459.727 60.072 460.249 60.132 460.717 60.252C461.197 60.36 461.575 60.534 461.851 60.774C462.127 61.002 462.265 61.29 462.265 61.638C462.265 61.878 462.217 62.088 462.121 62.268C462.025 62.448 461.899 62.598 461.743 62.718C461.611 62.634 461.407 62.544 461.131 62.448C460.867 62.352 460.573 62.274 460.249 62.214C459.937 62.154 459.643 62.124 459.367 62.124C458.935 62.124 458.599 62.184 458.359 62.304C458.119 62.412 457.999 62.586 457.999 62.826C457.999 62.982 458.065 63.12 458.197 63.24C458.341 63.348 458.587 63.438 458.935 63.51L459.655 63.69C460.723 63.93 461.491 64.278 461.959 64.734C462.427 65.178 462.661 65.76 462.661 66.48ZM465.063 64.248H467.709V66.174C467.709 66.51 467.817 66.756 468.033 66.912C468.249 67.068 468.555 67.146 468.951 67.146C469.131 67.146 469.323 67.128 469.527 67.092C469.743 67.044 469.923 66.99 470.067 66.93C470.163 67.038 470.247 67.17 470.319 67.326C470.403 67.482 470.445 67.662 470.445 67.866C470.445 68.274 470.277 68.61 469.941 68.874C469.605 69.138 469.041 69.27 468.249 69.27C467.241 69.27 466.455 69.042 465.891 68.586C465.339 68.13 465.063 67.386 465.063 66.354V64.248ZM466.755 62.61V60.558H470.211C470.271 60.654 470.331 60.792 470.391 60.972C470.451 61.152 470.481 61.35 470.481 61.566C470.481 61.926 470.397 62.19 470.229 62.358C470.073 62.526 469.857 62.61 469.581 62.61H466.755ZM467.709 64.698H465.063V58.236C465.183 58.2 465.351 58.164 465.567 58.128C465.783 58.08 466.011 58.056 466.251 58.056C466.767 58.056 467.139 58.146 467.367 58.326C467.595 58.506 467.709 58.836 467.709 59.316V64.698ZM473.933 65.94L473.825 64.14L478.289 63.438C478.265 63.102 478.121 62.79 477.857 62.502C477.593 62.214 477.203 62.07 476.687 62.07C476.147 62.07 475.697 62.256 475.337 62.628C474.977 62.988 474.785 63.504 474.761 64.176L474.851 65.418C474.959 66.078 475.241 66.552 475.697 66.84C476.153 67.116 476.693 67.254 477.317 67.254C477.821 67.254 478.295 67.182 478.739 67.038C479.183 66.894 479.543 66.744 479.819 66.588C479.999 66.696 480.143 66.846 480.251 67.038C480.371 67.23 480.431 67.434 480.431 67.65C480.431 68.01 480.287 68.31 479.999 68.55C479.723 68.79 479.333 68.97 478.829 69.09C478.337 69.21 477.773 69.27 477.137 69.27C476.213 69.27 475.379 69.096 474.635 68.748C473.903 68.4 473.327 67.878 472.907 67.182C472.487 66.486 472.277 65.616 472.277 64.572C472.277 63.804 472.397 63.138 472.637 62.574C472.889 62.01 473.219 61.548 473.627 61.188C474.047 60.816 474.515 60.54 475.031 60.36C475.559 60.18 476.105 60.09 476.669 60.09C477.497 60.09 478.217 60.258 478.829 60.594C479.453 60.918 479.939 61.362 480.287 61.926C480.635 62.49 480.809 63.144 480.809 63.888C480.809 64.26 480.707 64.542 480.503 64.734C480.299 64.926 480.017 65.046 479.657 65.094L473.933 65.94ZM429.204 87.042V84.99H432.714C432.774 85.086 432.834 85.224 432.894 85.404C432.954 85.584 432.984 85.782 432.984 85.998C432.984 86.37 432.9 86.64 432.732 86.808C432.576 86.964 432.354 87.042 432.066 87.042H429.204ZM429.618 84.27V86.718H427.08V84.18C427.08 83.388 427.242 82.746 427.566 82.254C427.902 81.762 428.358 81.402 428.934 81.174C429.522 80.934 430.17 80.814 430.878 80.814C431.718 80.814 432.342 80.928 432.75 81.156C433.17 81.372 433.38 81.726 433.38 82.218C433.38 82.434 433.332 82.626 433.236 82.794C433.152 82.962 433.056 83.094 432.948 83.19C432.72 83.118 432.474 83.058 432.21 83.01C431.946 82.962 431.652 82.938 431.328 82.938C430.764 82.938 430.338 83.04 430.05 83.244C429.762 83.448 429.618 83.79 429.618 84.27ZM427.08 86.196H429.744V92.982C429.624 93.018 429.456 93.048 429.24 93.072C429.024 93.108 428.79 93.126 428.538 93.126C428.034 93.126 427.662 93.036 427.422 92.856C427.194 92.676 427.08 92.352 427.08 91.884V86.196ZM434.514 81.876C434.514 81.468 434.652 81.126 434.928 80.85C435.216 80.574 435.576 80.436 436.008 80.436C436.452 80.436 436.812 80.574 437.088 80.85C437.364 81.126 437.502 81.468 437.502 81.876C437.502 82.272 437.364 82.614 437.088 82.902C436.812 83.19 436.452 83.334 436.008 83.334C435.576 83.334 435.216 83.19 434.928 82.902C434.652 82.614 434.514 82.272 434.514 81.876ZM434.676 88.248H437.34V92.982C437.232 93.018 437.07 93.048 436.854 93.072C436.638 93.108 436.404 93.126 436.152 93.126C435.636 93.126 435.258 93.036 435.018 92.856C434.79 92.676 434.676 92.352 434.676 91.884V88.248ZM437.34 89.634H434.676V84.468C434.784 84.432 434.946 84.396 435.162 84.36C435.39 84.324 435.63 84.306 435.882 84.306C436.398 84.306 436.77 84.396 436.998 84.576C437.226 84.744 437.34 85.074 437.34 85.566V89.634ZM448.489 87.402V89.094H445.807V87.492C445.807 87.048 445.675 86.724 445.411 86.52C445.159 86.304 444.823 86.196 444.403 86.196C444.103 86.196 443.827 86.238 443.575 86.322C443.323 86.394 443.095 86.484 442.891 86.592V89.094H440.227V86.286C440.227 85.986 440.287 85.74 440.407 85.548C440.539 85.344 440.725 85.164 440.965 85.008C441.349 84.744 441.841 84.528 442.441 84.36C443.041 84.18 443.701 84.09 444.421 84.09C445.717 84.09 446.719 84.378 447.427 84.954C448.135 85.518 448.489 86.334 448.489 87.402ZM440.227 88.266H442.891V92.982C442.771 93.018 442.603 93.048 442.387 93.072C442.171 93.108 441.937 93.126 441.685 93.126C441.181 93.126 440.809 93.036 440.569 92.856C440.341 92.676 440.227 92.352 440.227 91.884V88.266ZM445.807 88.266H448.489V92.982C448.369 93.018 448.201 93.048 447.985 93.072C447.769 93.108 447.535 93.126 447.283 93.126C446.779 93.126 446.407 93.036 446.167 92.856C445.927 92.676 445.807 92.352 445.807 91.884V88.266ZM454.846 93.288C453.622 93.288 452.644 93.048 451.912 92.568C451.192 92.088 450.832 91.374 450.832 90.426C450.832 89.61 451.084 88.986 451.588 88.554C452.092 88.11 452.842 87.84 453.838 87.744L456.232 87.492V87.276C456.232 86.868 456.07 86.574 455.746 86.394C455.434 86.214 454.984 86.124 454.396 86.124C453.94 86.124 453.49 86.178 453.046 86.286C452.614 86.394 452.224 86.52 451.876 86.664C451.732 86.568 451.606 86.424 451.498 86.232C451.402 86.028 451.354 85.818 451.354 85.602C451.354 85.098 451.63 84.732 452.182 84.504C452.53 84.36 452.932 84.258 453.388 84.198C453.856 84.126 454.306 84.09 454.738 84.09C455.986 84.09 456.982 84.354 457.726 84.882C458.47 85.398 458.842 86.202 458.842 87.294V91.38C458.842 91.68 458.764 91.926 458.608 92.118C458.452 92.298 458.254 92.454 458.014 92.586C457.654 92.802 457.204 92.97 456.664 93.09C456.136 93.222 455.53 93.288 454.846 93.288ZM454.846 91.29C455.122 91.29 455.392 91.266 455.656 91.218C455.932 91.158 456.13 91.092 456.25 91.02V89.292L454.738 89.436C454.33 89.46 454.006 89.544 453.766 89.688C453.526 89.832 453.406 90.048 453.406 90.336C453.406 90.624 453.52 90.858 453.748 91.038C453.976 91.206 454.342 91.29 454.846 91.29ZM461.528 81.876C461.528 81.468 461.666 81.126 461.942 80.85C462.23 80.574 462.59 80.436 463.022 80.436C463.466 80.436 463.826 80.574 464.102 80.85C464.378 81.126 464.516 81.468 464.516 81.876C464.516 82.272 464.378 82.614 464.102 82.902C463.826 83.19 463.466 83.334 463.022 83.334C462.59 83.334 462.23 83.19 461.942 82.902C461.666 82.614 461.528 82.272 461.528 81.876ZM461.69 88.248H464.354V92.982C464.246 93.018 464.084 93.048 463.868 93.072C463.652 93.108 463.418 93.126 463.166 93.126C462.65 93.126 462.272 93.036 462.032 92.856C461.804 92.676 461.69 92.352 461.69 91.884V88.248ZM464.354 89.634H461.69V84.468C461.798 84.432 461.96 84.396 462.176 84.36C462.404 84.324 462.644 84.306 462.896 84.306C463.412 84.306 463.784 84.396 464.012 84.576C464.24 84.744 464.354 85.074 464.354 85.566V89.634ZM474.244 90.48C474.244 91.356 473.914 92.046 473.254 92.55C472.594 93.042 471.634 93.288 470.374 93.288C469.39 93.288 468.58 93.144 467.944 92.856C467.308 92.568 466.99 92.142 466.99 91.578C466.99 91.326 467.044 91.11 467.152 90.93C467.26 90.738 467.398 90.588 467.566 90.48C467.902 90.672 468.292 90.852 468.736 91.02C469.192 91.176 469.708 91.254 470.284 91.254C471.16 91.254 471.598 91.002 471.598 90.498C471.598 90.282 471.52 90.114 471.364 89.994C471.208 89.862 470.95 89.766 470.59 89.706L469.834 89.526C468.874 89.322 468.154 89.01 467.674 88.59C467.206 88.158 466.972 87.57 466.972 86.826C466.972 85.986 467.308 85.32 467.98 84.828C468.664 84.324 469.582 84.072 470.734 84.072C471.31 84.072 471.832 84.132 472.3 84.252C472.78 84.36 473.158 84.534 473.434 84.774C473.71 85.002 473.848 85.29 473.848 85.638C473.848 85.878 473.8 86.088 473.704 86.268C473.608 86.448 473.482 86.598 473.326 86.718C473.194 86.634 472.99 86.544 472.714 86.448C472.45 86.352 472.156 86.274 471.832 86.214C471.52 86.154 471.226 86.124 470.95 86.124C470.518 86.124 470.182 86.184 469.942 86.304C469.702 86.412 469.582 86.586 469.582 86.826C469.582 86.982 469.648 87.12 469.78 87.24C469.924 87.348 470.17 87.438 470.518 87.51L471.238 87.69C472.306 87.93 473.074 88.278 473.542 88.734C474.01 89.178 474.244 89.76 474.244 90.48Z" fill="#F7F9FB"/>
<g clip-path="url(#clip0_49_72)">
<path d="M440.917 43.907L431.316 6.02954L464.249 24.5949L449.042 27.9542L448.319 28.1139L448.004 28.785L440.917 43.907Z" stroke="#F5DF4D" stroke-width="3"/>
</g>
<path d="M147.67 60.36H147.562C147.442 60.744 147.298 61.17 147.13 61.638C146.974 62.106 146.812 62.598 146.644 63.114C146.476 63.618 146.314 64.122 146.158 64.626L145.834 66.246C145.762 66.474 145.69 66.714 145.618 66.966C145.558 67.218 145.492 67.464 145.42 67.704C145.348 67.944 145.282 68.172 145.222 68.388C145.162 68.604 145.102 68.808 145.042 69C144.91 69.036 144.76 69.072 144.592 69.108C144.424 69.156 144.226 69.18 143.998 69.18C143.494 69.18 143.11 69.09 142.846 68.91C142.582 68.73 142.45 68.466 142.45 68.118C142.45 67.974 142.468 67.824 142.504 67.668C142.552 67.512 142.606 67.332 142.666 67.128C142.774 66.732 142.924 66.234 143.116 65.634C143.32 65.034 143.536 64.386 143.764 63.69C144.004 62.982 144.244 62.286 144.484 61.602C144.736 60.918 144.964 60.288 145.168 59.712C145.384 59.136 145.558 58.686 145.69 58.362C145.858 58.254 146.122 58.158 146.482 58.074C146.854 57.978 147.22 57.93 147.58 57.93C148.096 57.93 148.558 58.008 148.966 58.164C149.374 58.308 149.632 58.542 149.74 58.866C149.968 59.502 150.214 60.24 150.478 61.08C150.754 61.908 151.03 62.778 151.306 63.69C151.582 64.602 151.846 65.49 152.098 66.354C152.362 67.206 152.59 67.974 152.782 68.658C152.65 68.802 152.458 68.922 152.206 69.018C151.954 69.126 151.654 69.18 151.306 69.18C150.814 69.18 150.466 69.09 150.262 68.91C150.058 68.73 149.902 68.46 149.794 68.1L149.218 66.084L148.912 64.554C148.768 64.014 148.618 63.492 148.462 62.988C148.306 62.484 148.162 62.01 148.03 61.566C147.898 61.11 147.778 60.708 147.67 60.36ZM144.628 66.57L145.69 64.446H149.902L150.262 66.57H144.628ZM154.999 64.248L157.681 64.302V68.982C157.561 69.018 157.393 69.048 157.177 69.072C156.961 69.108 156.727 69.126 156.475 69.126C155.971 69.126 155.599 69.036 155.359 68.856C155.119 68.676 154.999 68.352 154.999 67.884V64.248ZM157.681 65.688L154.999 65.634V57.282C155.119 57.246 155.287 57.21 155.503 57.174C155.719 57.138 155.953 57.12 156.205 57.12C156.721 57.12 157.093 57.21 157.321 57.39C157.561 57.57 157.681 57.9 157.681 58.38V65.688ZM160.496 57.876C160.496 57.468 160.634 57.126 160.91 56.85C161.198 56.574 161.558 56.436 161.99 56.436C162.434 56.436 162.794 56.574 163.07 56.85C163.346 57.126 163.484 57.468 163.484 57.876C163.484 58.272 163.346 58.614 163.07 58.902C162.794 59.19 162.434 59.334 161.99 59.334C161.558 59.334 161.198 59.19 160.91 58.902C160.634 58.614 160.496 58.272 160.496 57.876ZM160.658 64.248H163.322V68.982C163.214 69.018 163.052 69.048 162.836 69.072C162.62 69.108 162.386 69.126 162.134 69.126C161.618 69.126 161.24 69.036 161 68.856C160.772 68.676 160.658 68.352 160.658 67.884V64.248ZM163.322 65.634H160.658V60.468C160.766 60.432 160.928 60.396 161.144 60.36C161.372 60.324 161.612 60.306 161.864 60.306C162.38 60.306 162.752 60.396 162.98 60.576C163.208 60.744 163.322 61.074 163.322 61.566V65.634ZM174.472 63.402V65.094H171.79V63.492C171.79 63.048 171.658 62.724 171.394 62.52C171.142 62.304 170.806 62.196 170.386 62.196C170.086 62.196 169.81 62.238 169.558 62.322C169.306 62.394 169.078 62.484 168.874 62.592V65.094H166.21V62.286C166.21 61.986 166.27 61.74 166.39 61.548C166.522 61.344 166.708 61.164 166.948 61.008C167.332 60.744 167.824 60.528 168.424 60.36C169.024 60.18 169.684 60.09 170.404 60.09C171.7 60.09 172.702 60.378 173.41 60.954C174.118 61.518 174.472 62.334 174.472 63.402ZM166.21 64.266H168.874V68.982C168.754 69.018 168.586 69.048 168.37 69.072C168.154 69.108 167.92 69.126 167.668 69.126C167.164 69.126 166.792 69.036 166.552 68.856C166.324 68.676 166.21 68.352 166.21 67.884V64.266ZM171.79 64.266H174.472V68.982C174.352 69.018 174.184 69.048 173.968 69.072C173.752 69.108 173.518 69.126 173.266 69.126C172.762 69.126 172.39 69.036 172.15 68.856C171.91 68.676 171.79 68.352 171.79 67.884V64.266ZM185.581 65.328H182.899V63.726C182.899 63.174 182.755 62.784 182.467 62.556C182.191 62.316 181.837 62.196 181.405 62.196C181.021 62.196 180.673 62.268 180.361 62.412C180.061 62.556 179.803 62.718 179.587 62.898L179.515 60.738C179.791 60.582 180.133 60.438 180.541 60.306C180.949 60.162 181.399 60.09 181.891 60.09C183.031 60.09 183.931 60.384 184.591 60.972C185.251 61.548 185.581 62.418 185.581 63.582V65.328ZM177.319 64.248H179.983V68.982C179.863 69.018 179.695 69.048 179.479 69.072C179.263 69.108 179.029 69.126 178.777 69.126C178.273 69.126 177.901 69.036 177.661 68.856C177.433 68.676 177.319 68.352 177.319 67.884V64.248ZM182.899 64.248H185.581V68.982C185.461 69.018 185.293 69.048 185.077 69.072C184.861 69.108 184.627 69.126 184.375 69.126C183.859 69.126 183.481 69.036 183.241 68.856C183.013 68.676 182.899 68.352 182.899 67.884V64.248ZM179.983 65.634H177.319V57.282C177.427 57.246 177.589 57.21 177.805 57.174C178.021 57.138 178.255 57.12 178.507 57.12C179.023 57.12 179.395 57.21 179.623 57.39C179.863 57.57 179.983 57.9 179.983 58.38V65.634ZM191.938 69.288C190.714 69.288 189.736 69.048 189.004 68.568C188.284 68.088 187.924 67.374 187.924 66.426C187.924 65.61 188.176 64.986 188.68 64.554C189.184 64.11 189.934 63.84 190.93 63.744L193.324 63.492V63.276C193.324 62.868 193.162 62.574 192.838 62.394C192.526 62.214 192.076 62.124 191.488 62.124C191.032 62.124 190.582 62.178 190.138 62.286C189.706 62.394 189.316 62.52 188.968 62.664C188.824 62.568 188.698 62.424 188.59 62.232C188.494 62.028 188.446 61.818 188.446 61.602C188.446 61.098 188.722 60.732 189.274 60.504C189.622 60.36 190.024 60.258 190.48 60.198C190.948 60.126 191.398 60.09 191.83 60.09C193.078 60.09 194.074 60.354 194.818 60.882C195.562 61.398 195.934 62.202 195.934 63.294V67.38C195.934 67.68 195.856 67.926 195.7 68.118C195.544 68.298 195.346 68.454 195.106 68.586C194.746 68.802 194.296 68.97 193.756 69.09C193.228 69.222 192.622 69.288 191.938 69.288ZM191.938 67.29C192.214 67.29 192.484 67.266 192.748 67.218C193.024 67.158 193.222 67.092 193.342 67.02V65.292L191.83 65.436C191.422 65.46 191.098 65.544 190.858 65.688C190.618 65.832 190.498 66.048 190.498 66.336C190.498 66.624 190.612 66.858 190.84 67.038C191.068 67.206 191.434 67.29 191.938 67.29ZM206.558 63.042V65.094H203.876V63.384C203.876 62.976 203.756 62.676 203.516 62.484C203.276 62.292 202.976 62.196 202.616 62.196C202.352 62.196 202.112 62.238 201.896 62.322C201.692 62.394 201.518 62.472 201.374 62.556V65.094H198.71V62.286C198.71 61.986 198.77 61.74 198.89 61.548C199.022 61.344 199.208 61.164 199.448 61.008C199.844 60.732 200.33 60.51 200.906 60.342C201.482 60.174 202.082 60.09 202.706 60.09C203.282 60.09 203.822 60.18 204.326 60.36C204.83 60.54 205.268 60.816 205.64 61.188C205.736 61.26 205.826 61.338 205.91 61.422C206.006 61.494 206.078 61.578 206.126 61.674C206.246 61.866 206.348 62.082 206.432 62.322C206.516 62.562 206.558 62.802 206.558 63.042ZM211.724 63.312V65.094H209.06V63.384C209.06 62.976 208.946 62.676 208.718 62.484C208.49 62.292 208.19 62.196 207.818 62.196C207.542 62.196 207.278 62.256 207.026 62.376C206.786 62.484 206.576 62.616 206.396 62.772L204.992 61.224C205.388 60.912 205.838 60.648 206.342 60.432C206.846 60.204 207.464 60.09 208.196 60.09C208.82 60.09 209.402 60.198 209.942 60.414C210.482 60.63 210.914 60.972 211.238 61.44C211.562 61.908 211.724 62.532 211.724 63.312ZM198.71 64.266H201.374V68.982C201.254 69.018 201.086 69.048 200.87 69.072C200.654 69.108 200.42 69.126 200.168 69.126C199.664 69.126 199.292 69.036 199.052 68.856C198.824 68.676 198.71 68.352 198.71 67.884V64.266ZM203.876 64.266H206.558V68.982C206.438 69.018 206.27 69.048 206.054 69.072C205.838 69.108 205.604 69.126 205.352 69.126C204.836 69.126 204.458 69.036 204.218 68.856C203.99 68.676 203.876 68.352 203.876 67.884V64.266ZM209.06 64.266H211.724V68.982C211.616 69.018 211.454 69.048 211.238 69.072C211.022 69.108 210.788 69.126 210.536 69.126C210.02 69.126 209.642 69.036 209.402 68.856C209.174 68.676 209.06 68.352 209.06 67.884V64.266ZM215.789 65.94L215.681 64.14L220.145 63.438C220.121 63.102 219.977 62.79 219.713 62.502C219.449 62.214 219.059 62.07 218.543 62.07C218.003 62.07 217.553 62.256 217.193 62.628C216.833 62.988 216.641 63.504 216.617 64.176L216.707 65.418C216.815 66.078 217.097 66.552 217.553 66.84C218.009 67.116 218.549 67.254 219.173 67.254C219.677 67.254 220.151 67.182 220.595 67.038C221.039 66.894 221.399 66.744 221.675 66.588C221.855 66.696 221.999 66.846 222.107 67.038C222.227 67.23 222.287 67.434 222.287 67.65C222.287 68.01 222.143 68.31 221.855 68.55C221.579 68.79 221.189 68.97 220.685 69.09C220.193 69.21 219.629 69.27 218.993 69.27C218.069 69.27 217.235 69.096 216.491 68.748C215.759 68.4 215.183 67.878 214.763 67.182C214.343 66.486 214.133 65.616 214.133 64.572C214.133 63.804 214.253 63.138 214.493 62.574C214.745 62.01 215.075 61.548 215.483 61.188C215.903 60.816 216.371 60.54 216.887 60.36C217.415 60.18 217.961 60.09 218.525 60.09C219.353 60.09 220.073 60.258 220.685 60.594C221.309 60.918 221.795 61.362 222.143 61.926C222.491 62.49 222.665 63.144 222.665 63.888C222.665 64.26 222.563 64.542 222.359 64.734C222.155 64.926 221.873 65.046 221.513 65.094L215.789 65.94ZM233.285 63.402V65.094H230.603V63.492C230.603 63.048 230.471 62.724 230.207 62.52C229.955 62.304 229.619 62.196 229.199 62.196C228.899 62.196 228.623 62.238 228.371 62.322C228.119 62.394 227.891 62.484 227.687 62.592V65.094H225.023V62.286C225.023 61.986 225.083 61.74 225.203 61.548C225.335 61.344 225.521 61.164 225.761 61.008C226.145 60.744 226.637 60.528 227.237 60.36C227.837 60.18 228.497 60.09 229.217 60.09C230.513 60.09 231.515 60.378 232.223 60.954C232.931 61.518 233.285 62.334 233.285 63.402ZM225.023 64.266H227.687V68.982C227.567 69.018 227.399 69.048 227.183 69.072C226.967 69.108 226.733 69.126 226.481 69.126C225.977 69.126 225.605 69.036 225.365 68.856C225.137 68.676 225.023 68.352 225.023 67.884V64.266ZM230.603 64.266H233.285V68.982C233.165 69.018 232.997 69.048 232.781 69.072C232.565 69.108 232.331 69.126 232.079 69.126C231.575 69.126 231.203 69.036 230.963 68.856C230.723 68.676 230.603 68.352 230.603 67.884V64.266ZM236.114 64.248H238.76V66.174C238.76 66.51 238.868 66.756 239.084 66.912C239.3 67.068 239.606 67.146 240.002 67.146C240.182 67.146 240.374 67.128 240.578 67.092C240.794 67.044 240.974 66.99 241.118 66.93C241.214 67.038 241.298 67.17 241.37 67.326C241.454 67.482 241.496 67.662 241.496 67.866C241.496 68.274 241.328 68.61 240.992 68.874C240.656 69.138 240.092 69.27 239.3 69.27C238.292 69.27 237.506 69.042 236.942 68.586C236.39 68.13 236.114 67.386 236.114 66.354V64.248ZM237.806 62.61V60.558H241.262C241.322 60.654 241.382 60.792 241.442 60.972C241.502 61.152 241.532 61.35 241.532 61.566C241.532 61.926 241.448 62.19 241.28 62.358C241.124 62.526 240.908 62.61 240.632 62.61H237.806ZM238.76 64.698H236.114V58.236C236.234 58.2 236.402 58.164 236.618 58.128C236.834 58.08 237.062 58.056 237.302 58.056C237.818 58.056 238.19 58.146 238.418 58.326C238.646 58.506 238.76 58.836 238.76 59.316V64.698ZM252.472 64.68C252.472 65.616 252.28 66.432 251.896 67.128C251.524 67.812 250.996 68.34 250.312 68.712C249.628 69.084 248.824 69.27 247.9 69.27C246.988 69.27 246.184 69.09 245.488 68.73C244.804 68.358 244.27 67.83 243.886 67.146C243.514 66.45 243.328 65.628 243.328 64.68C243.328 63.732 243.52 62.922 243.904 62.25C244.288 61.566 244.822 61.038 245.506 60.666C246.202 60.282 247 60.09 247.9 60.09C248.812 60.09 249.61 60.282 250.294 60.666C250.978 61.038 251.512 61.572 251.896 62.268C252.28 62.952 252.472 63.756 252.472 64.68ZM247.9 62.196C247.336 62.196 246.886 62.412 246.55 62.844C246.226 63.276 246.064 63.888 246.064 64.68C246.064 65.484 246.226 66.102 246.55 66.534C246.874 66.954 247.324 67.164 247.9 67.164C248.476 67.164 248.926 66.948 249.25 66.516C249.574 66.084 249.736 65.472 249.736 64.68C249.736 63.9 249.574 63.294 249.25 62.862C248.926 62.418 248.476 62.196 247.9 62.196ZM148.642 90.858V85.44H151.306V91.2C151.306 91.488 151.246 91.734 151.126 91.938C151.006 92.13 150.814 92.304 150.55 92.46C150.226 92.676 149.8 92.862 149.272 93.018C148.756 93.186 148.156 93.27 147.472 93.27C146.476 93.27 145.612 93.102 144.88 92.766C144.16 92.43 143.602 91.926 143.206 91.254C142.822 90.57 142.63 89.724 142.63 88.716C142.63 87.66 142.828 86.796 143.224 86.124C143.632 85.44 144.178 84.93 144.862 84.594C145.546 84.258 146.302 84.09 147.13 84.09C147.562 84.09 147.946 84.138 148.282 84.234C148.618 84.33 148.894 84.444 149.11 84.576V86.772C148.942 86.628 148.72 86.496 148.444 86.376C148.168 86.256 147.85 86.196 147.49 86.196C147.07 86.196 146.698 86.286 146.374 86.466C146.05 86.646 145.798 86.922 145.618 87.294C145.438 87.666 145.348 88.14 145.348 88.716C145.348 89.556 145.534 90.174 145.906 90.57C146.29 90.966 146.806 91.164 147.454 91.164C147.718 91.164 147.952 91.134 148.156 91.074C148.36 91.002 148.522 90.93 148.642 90.858ZM151.306 85.962L148.642 85.98V81.282C148.75 81.246 148.912 81.21 149.128 81.174C149.344 81.138 149.578 81.12 149.83 81.12C150.358 81.12 150.736 81.21 150.964 81.39C151.192 81.57 151.306 81.9 151.306 82.38V85.962ZM155.395 89.94L155.287 88.14L159.751 87.438C159.727 87.102 159.583 86.79 159.319 86.502C159.055 86.214 158.665 86.07 158.149 86.07C157.609 86.07 157.159 86.256 156.799 86.628C156.439 86.988 156.247 87.504 156.223 88.176L156.313 89.418C156.421 90.078 156.703 90.552 157.159 90.84C157.615 91.116 158.155 91.254 158.779 91.254C159.283 91.254 159.757 91.182 160.201 91.038C160.645 90.894 161.005 90.744 161.281 90.588C161.461 90.696 161.605 90.846 161.713 91.038C161.833 91.23 161.893 91.434 161.893 91.65C161.893 92.01 161.749 92.31 161.461 92.55C161.185 92.79 160.795 92.97 160.291 93.09C159.799 93.21 159.235 93.27 158.599 93.27C157.675 93.27 156.841 93.096 156.097 92.748C155.365 92.4 154.789 91.878 154.369 91.182C153.949 90.486 153.739 89.616 153.739 88.572C153.739 87.804 153.859 87.138 154.099 86.574C154.351 86.01 154.681 85.548 155.089 85.188C155.509 84.816 155.977 84.54 156.493 84.36C157.021 84.18 157.567 84.09 158.131 84.09C158.959 84.09 159.679 84.258 160.291 84.594C160.915 84.918 161.401 85.362 161.749 85.926C162.097 86.49 162.271 87.144 162.271 87.888C162.271 88.26 162.169 88.542 161.965 88.734C161.761 88.926 161.479 89.046 161.119 89.094L155.395 89.94ZM168.862 81.876C168.862 81.468 169 81.126 169.276 80.85C169.564 80.574 169.924 80.436 170.356 80.436C170.8 80.436 171.16 80.574 171.436 80.85C171.712 81.126 171.85 81.468 171.85 81.876C171.85 82.272 171.712 82.614 171.436 82.902C171.16 83.19 170.8 83.334 170.356 83.334C169.924 83.334 169.564 83.19 169.276 82.902C169 82.614 168.862 82.272 168.862 81.876ZM169.024 88.248H171.688V92.982C171.58 93.018 171.418 93.048 171.202 93.072C170.986 93.108 170.752 93.126 170.5 93.126C169.984 93.126 169.606 93.036 169.366 92.856C169.138 92.676 169.024 92.352 169.024 91.884V88.248ZM171.688 89.634H169.024V84.468C169.132 84.432 169.294 84.396 169.51 84.36C169.738 84.324 169.978 84.306 170.23 84.306C170.746 84.306 171.118 84.396 171.346 84.576C171.574 84.744 171.688 85.074 171.688 85.566V89.634ZM180.174 90.858V85.44H182.838V91.2C182.838 91.488 182.778 91.734 182.658 91.938C182.538 92.13 182.346 92.304 182.082 92.46C181.758 92.676 181.332 92.862 180.804 93.018C180.288 93.186 179.688 93.27 179.004 93.27C178.008 93.27 177.144 93.102 176.412 92.766C175.692 92.43 175.134 91.926 174.738 91.254C174.354 90.57 174.162 89.724 174.162 88.716C174.162 87.66 174.36 86.796 174.756 86.124C175.164 85.44 175.71 84.93 176.394 84.594C177.078 84.258 177.834 84.09 178.662 84.09C179.094 84.09 179.478 84.138 179.814 84.234C180.15 84.33 180.426 84.444 180.642 84.576V86.772C180.474 86.628 180.252 86.496 179.976 86.376C179.7 86.256 179.382 86.196 179.022 86.196C178.602 86.196 178.23 86.286 177.906 86.466C177.582 86.646 177.33 86.922 177.15 87.294C176.97 87.666 176.88 88.14 176.88 88.716C176.88 89.556 177.066 90.174 177.438 90.57C177.822 90.966 178.338 91.164 178.986 91.164C179.25 91.164 179.484 91.134 179.688 91.074C179.892 91.002 180.054 90.93 180.174 90.858ZM182.838 85.962L180.174 85.98V81.282C180.282 81.246 180.444 81.21 180.66 81.174C180.876 81.138 181.11 81.12 181.362 81.12C181.89 81.12 182.268 81.21 182.496 81.39C182.724 81.57 182.838 81.9 182.838 82.38V85.962ZM186.927 89.94L186.819 88.14L191.283 87.438C191.259 87.102 191.115 86.79 190.851 86.502C190.587 86.214 190.197 86.07 189.681 86.07C189.141 86.07 188.691 86.256 188.331 86.628C187.971 86.988 187.779 87.504 187.755 88.176L187.845 89.418C187.953 90.078 188.235 90.552 188.691 90.84C189.147 91.116 189.687 91.254 190.311 91.254C190.815 91.254 191.289 91.182 191.733 91.038C192.177 90.894 192.537 90.744 192.813 90.588C192.993 90.696 193.137 90.846 193.245 91.038C193.365 91.23 193.425 91.434 193.425 91.65C193.425 92.01 193.281 92.31 192.993 92.55C192.717 92.79 192.327 92.97 191.823 93.09C191.331 93.21 190.767 93.27 190.131 93.27C189.207 93.27 188.373 93.096 187.629 92.748C186.897 92.4 186.321 91.878 185.901 91.182C185.481 90.486 185.271 89.616 185.271 88.572C185.271 87.804 185.391 87.138 185.631 86.574C185.883 86.01 186.213 85.548 186.621 85.188C187.041 84.816 187.509 84.54 188.025 84.36C188.553 84.18 189.099 84.09 189.663 84.09C190.491 84.09 191.211 84.258 191.823 84.594C192.447 84.918 192.933 85.362 193.281 85.926C193.629 86.49 193.803 87.144 193.803 87.888C193.803 88.26 193.701 88.542 193.497 88.734C193.293 88.926 193.011 89.046 192.651 89.094L186.927 89.94ZM196.071 81.876C196.071 81.468 196.209 81.126 196.485 80.85C196.773 80.574 197.133 80.436 197.565 80.436C198.009 80.436 198.369 80.574 198.645 80.85C198.921 81.126 199.059 81.468 199.059 81.876C199.059 82.272 198.921 82.614 198.645 82.902C198.369 83.19 198.009 83.334 197.565 83.334C197.133 83.334 196.773 83.19 196.485 82.902C196.209 82.614 196.071 82.272 196.071 81.876ZM196.233 88.248H198.897V92.982C198.789 93.018 198.627 93.048 198.411 93.072C198.195 93.108 197.961 93.126 197.709 93.126C197.193 93.126 196.815 93.036 196.575 92.856C196.347 92.676 196.233 92.352 196.233 91.884V88.248ZM198.897 89.634H196.233V84.468C196.341 84.432 196.503 84.396 196.719 84.36C196.947 84.324 197.187 84.306 197.439 84.306C197.955 84.306 198.327 84.396 198.555 84.576C198.783 84.744 198.897 85.074 198.897 85.566V89.634ZM205.331 93.288C204.107 93.288 203.129 93.048 202.397 92.568C201.677 92.088 201.317 91.374 201.317 90.426C201.317 89.61 201.569 88.986 202.073 88.554C202.577 88.11 203.327 87.84 204.323 87.744L206.717 87.492V87.276C206.717 86.868 206.555 86.574 206.231 86.394C205.919 86.214 205.469 86.124 204.881 86.124C204.425 86.124 203.975 86.178 203.531 86.286C203.099 86.394 202.709 86.52 202.361 86.664C202.217 86.568 202.091 86.424 201.983 86.232C201.887 86.028 201.839 85.818 201.839 85.602C201.839 85.098 202.115 84.732 202.667 84.504C203.015 84.36 203.417 84.258 203.873 84.198C204.341 84.126 204.791 84.09 205.223 84.09C206.471 84.09 207.467 84.354 208.211 84.882C208.955 85.398 209.327 86.202 209.327 87.294V91.38C209.327 91.68 209.249 91.926 209.093 92.118C208.937 92.298 208.739 92.454 208.499 92.586C208.139 92.802 207.689 92.97 207.149 93.09C206.621 93.222 206.015 93.288 205.331 93.288ZM205.331 91.29C205.607 91.29 205.877 91.266 206.141 91.218C206.417 91.158 206.615 91.092 206.735 91.02V89.292L205.223 89.436C204.815 89.46 204.491 89.544 204.251 89.688C204.011 89.832 203.891 90.048 203.891 90.336C203.891 90.624 204.005 90.858 204.233 91.038C204.461 91.206 204.827 91.29 205.331 91.29ZM219.105 90.48C219.105 91.356 218.775 92.046 218.115 92.55C217.455 93.042 216.495 93.288 215.235 93.288C214.251 93.288 213.441 93.144 212.805 92.856C212.169 92.568 211.851 92.142 211.851 91.578C211.851 91.326 211.905 91.11 212.013 90.93C212.121 90.738 212.259 90.588 212.427 90.48C212.763 90.672 213.153 90.852 213.597 91.02C214.053 91.176 214.569 91.254 215.145 91.254C216.021 91.254 216.459 91.002 216.459 90.498C216.459 90.282 216.381 90.114 216.225 89.994C216.069 89.862 215.811 89.766 215.451 89.706L214.695 89.526C213.735 89.322 213.015 89.01 212.535 88.59C212.067 88.158 211.833 87.57 211.833 86.826C211.833 85.986 212.169 85.32 212.841 84.828C213.525 84.324 214.443 84.072 215.595 84.072C216.171 84.072 216.693 84.132 217.161 84.252C217.641 84.36 218.019 84.534 218.295 84.774C218.571 85.002 218.709 85.29 218.709 85.638C218.709 85.878 218.661 86.088 218.565 86.268C218.469 86.448 218.343 86.598 218.187 86.718C218.055 86.634 217.851 86.544 217.575 86.448C217.311 86.352 217.017 86.274 216.693 86.214C216.381 86.154 216.087 86.124 215.811 86.124C215.379 86.124 215.043 86.184 214.803 86.304C214.563 86.412 214.443 86.586 214.443 86.826C214.443 86.982 214.509 87.12 214.641 87.24C214.785 87.348 215.031 87.438 215.379 87.51L216.099 87.69C217.167 87.93 217.935 88.278 218.403 88.734C218.871 89.178 219.105 89.76 219.105 90.48Z" fill="#F7F9FB"/>
<rect x="144.5" y="2.5" width="10.8" height="10.8" stroke="#F5DF4D" stroke-width="3"/>
<rect x="176.7" y="2.5" width="10.8" height="10.8" stroke="#F5DF4D" stroke-width="3"/>
<rect x="176.7" y="34.7" width="10.8" height="10.8" stroke="#F5DF4D" stroke-width="3"/>
<rect x="144.5" y="34.7" width="10.8" height="10.8" stroke="#F5DF4D" stroke-width="3"/>
<line x1="156.8" y1="7.16663" x2="175.2" y2="7.16663" stroke="#F5DF4D" stroke-width="3"/>
<line x1="156.8" y1="40.9" x2="175.2" y2="40.9" stroke="#F5DF4D" stroke-width="3"/>
<line x1="182.833" y1="14.8" x2="182.833" y2="33.2001" stroke="#F5DF4D" stroke-width="3"/>
<line x1="150.634" y1="14.8" x2="150.634" y2="33.2001" stroke="#F5DF4D" stroke-width="3"/>
<path d="M5.67 65.36H5.562C5.442 65.744 5.298 66.17 5.13 66.638C4.974 67.106 4.812 67.598 4.644 68.114C4.476 68.618 4.314 69.122 4.158 69.626L3.834 71.246C3.762 71.474 3.69 71.714 3.618 71.966C3.558 72.218 3.492 72.464 3.42 72.704C3.348 72.944 3.282 73.172 3.222 73.388C3.162 73.604 3.102 73.808 3.042 74C2.91 74.036 2.76 74.072 2.592 74.108C2.424 74.156 2.226 74.18 1.998 74.18C1.494 74.18 1.11 74.09 0.846 73.91C0.582 73.73 0.45 73.466 0.45 73.118C0.45 72.974 0.468 72.824 0.504 72.668C0.552 72.512 0.606 72.332 0.666 72.128C0.774 71.732 0.924 71.234 1.116 70.634C1.32 70.034 1.536 69.386 1.764 68.69C2.004 67.982 2.244 67.286 2.484 66.602C2.736 65.918 2.964 65.288 3.168 64.712C3.384 64.136 3.558 63.686 3.69 63.362C3.858 63.254 4.122 63.158 4.482 63.074C4.854 62.978 5.22 62.93 5.58 62.93C6.096 62.93 6.558 63.008 6.966 63.164C7.374 63.308 7.632 63.542 7.74 63.866C7.968 64.502 8.214 65.24 8.478 66.08C8.754 66.908 9.03 67.778 9.306 68.69C9.582 69.602 9.846 70.49 10.098 71.354C10.362 72.206 10.59 72.974 10.782 73.658C10.65 73.802 10.458 73.922 10.206 74.018C9.954 74.126 9.654 74.18 9.306 74.18C8.814 74.18 8.466 74.09 8.262 73.91C8.058 73.73 7.902 73.46 7.794 73.1L7.218 71.084L6.912 69.554C6.768 69.014 6.618 68.492 6.462 67.988C6.306 67.484 6.162 67.01 6.03 66.566C5.898 66.11 5.778 65.708 5.67 65.36ZM2.628 71.57L3.69 69.446H7.902L8.262 71.57H2.628ZM17.1925 74.27C16.7365 74.27 16.3285 74.21 15.9685 74.09C15.6085 73.982 15.2965 73.856 15.0325 73.712V71.462C15.2365 71.63 15.4825 71.786 15.7705 71.93C16.0705 72.074 16.4065 72.146 16.7785 72.146C17.4385 72.146 17.9485 71.936 18.3085 71.516C18.6805 71.096 18.8665 70.466 18.8665 69.626C18.8665 69.05 18.7825 68.588 18.6145 68.24C18.4585 67.88 18.2305 67.616 17.9305 67.448C17.6305 67.28 17.2765 67.196 16.8685 67.196C16.5925 67.196 16.3405 67.232 16.1125 67.304C15.8965 67.364 15.7105 67.442 15.5545 67.538V73.046H12.9085V67.16C12.9085 66.86 12.9685 66.614 13.0885 66.422C13.2085 66.218 13.3945 66.038 13.6465 65.882C14.0065 65.654 14.4625 65.468 15.0145 65.324C15.5665 65.168 16.1845 65.09 16.8685 65.09C17.7925 65.09 18.6085 65.252 19.3165 65.576C20.0365 65.888 20.5945 66.38 20.9905 67.052C21.3865 67.712 21.5845 68.57 21.5845 69.626C21.5845 70.646 21.3925 71.498 21.0085 72.182C20.6245 72.866 20.1025 73.388 19.4425 73.748C18.7825 74.096 18.0325 74.27 17.1925 74.27ZM14.3665 77.366C13.8625 77.366 13.4905 77.276 13.2505 77.096C13.0225 76.916 12.9085 76.586 12.9085 76.106V72.362H15.5725V77.204C15.4525 77.24 15.2845 77.276 15.0685 77.312C14.8525 77.348 14.6185 77.366 14.3665 77.366ZM26.6636 67.682V69.932H23.9996V67.358C23.9996 67.022 24.0776 66.74 24.2336 66.512C24.4016 66.272 24.6296 66.062 24.9176 65.882C25.3136 65.642 25.7876 65.456 26.3396 65.324C26.9036 65.18 27.4916 65.108 28.1036 65.108C29.3276 65.108 29.9396 65.516 29.9396 66.332C29.9396 66.524 29.9096 66.704 29.8496 66.872C29.8016 67.04 29.7416 67.184 29.6696 67.304C29.5496 67.28 29.3996 67.262 29.2196 67.25C29.0516 67.226 28.8656 67.214 28.6616 67.214C28.3016 67.214 27.9416 67.256 27.5816 67.34C27.2216 67.424 26.9156 67.538 26.6636 67.682ZM23.9996 69.248L26.6636 69.302V73.982C26.5436 74.018 26.3756 74.048 26.1596 74.072C25.9436 74.108 25.7096 74.126 25.4576 74.126C24.9536 74.126 24.5816 74.036 24.3416 73.856C24.1136 73.676 23.9996 73.352 23.9996 72.884V69.248ZM32.9401 70.94L32.8321 69.14L37.2961 68.438C37.2721 68.102 37.1281 67.79 36.8641 67.502C36.6001 67.214 36.2101 67.07 35.6941 67.07C35.1541 67.07 34.7041 67.256 34.3441 67.628C33.9841 67.988 33.7921 68.504 33.7681 69.176L33.8581 70.418C33.9661 71.078 34.2481 71.552 34.7041 71.84C35.1601 72.116 35.7001 72.254 36.3241 72.254C36.8281 72.254 37.3021 72.182 37.7461 72.038C38.1901 71.894 38.5501 71.744 38.8261 71.588C39.0061 71.696 39.1501 71.846 39.2581 72.038C39.3781 72.23 39.4381 72.434 39.4381 72.65C39.4381 73.01 39.2941 73.31 39.0061 73.55C38.7301 73.79 38.3401 73.97 37.8361 74.09C37.3441 74.21 36.7801 74.27 36.1441 74.27C35.2201 74.27 34.3861 74.096 33.6421 73.748C32.9101 73.4 32.3341 72.878 31.9141 72.182C31.4941 71.486 31.2841 70.616 31.2841 69.572C31.2841 68.804 31.4041 68.138 31.6441 67.574C31.8961 67.01 32.2261 66.548 32.6341 66.188C33.0541 65.816 33.5221 65.54 34.0381 65.36C34.5661 65.18 35.1121 65.09 35.6761 65.09C36.5041 65.09 37.2241 65.258 37.8361 65.594C38.4601 65.918 38.9461 66.362 39.2941 66.926C39.6421 67.49 39.8161 68.144 39.8161 68.888C39.8161 69.26 39.7141 69.542 39.5101 69.734C39.3061 69.926 39.0241 70.046 38.6641 70.094L32.9401 70.94ZM49.1936 71.48C49.1936 72.356 48.8636 73.046 48.2036 73.55C47.5436 74.042 46.5836 74.288 45.3236 74.288C44.3396 74.288 43.5296 74.144 42.8936 73.856C42.2576 73.568 41.9396 73.142 41.9396 72.578C41.9396 72.326 41.9936 72.11 42.1016 71.93C42.2096 71.738 42.3476 71.588 42.5156 71.48C42.8516 71.672 43.2416 71.852 43.6856 72.02C44.1416 72.176 44.6576 72.254 45.2336 72.254C46.1096 72.254 46.5476 72.002 46.5476 71.498C46.5476 71.282 46.4696 71.114 46.3136 70.994C46.1576 70.862 45.8996 70.766 45.5396 70.706L44.7836 70.526C43.8236 70.322 43.1036 70.01 42.6236 69.59C42.1556 69.158 41.9216 68.57 41.9216 67.826C41.9216 66.986 42.2576 66.32 42.9296 65.828C43.6136 65.324 44.5316 65.072 45.6836 65.072C46.2596 65.072 46.7816 65.132 47.2496 65.252C47.7296 65.36 48.1076 65.534 48.3836 65.774C48.6596 66.002 48.7976 66.29 48.7976 66.638C48.7976 66.878 48.7496 67.088 48.6536 67.268C48.5576 67.448 48.4316 67.598 48.2756 67.718C48.1436 67.634 47.9396 67.544 47.6636 67.448C47.3996 67.352 47.1056 67.274 46.7816 67.214C46.4696 67.154 46.1756 67.124 45.8996 67.124C45.4676 67.124 45.1316 67.184 44.8916 67.304C44.6516 67.412 44.5316 67.586 44.5316 67.826C44.5316 67.982 44.5976 68.12 44.7296 68.24C44.8736 68.348 45.1196 68.438 45.4676 68.51L46.1876 68.69C47.2556 68.93 48.0236 69.278 48.4916 69.734C48.9596 70.178 49.1936 70.76 49.1936 71.48ZM52.9075 70.94L52.7995 69.14L57.2635 68.438C57.2395 68.102 57.0955 67.79 56.8315 67.502C56.5675 67.214 56.1775 67.07 55.6615 67.07C55.1215 67.07 54.6715 67.256 54.3115 67.628C53.9515 67.988 53.7595 68.504 53.7355 69.176L53.8255 70.418C53.9335 71.078 54.2155 71.552 54.6715 71.84C55.1275 72.116 55.6675 72.254 56.2915 72.254C56.7955 72.254 57.2695 72.182 57.7135 72.038C58.1575 71.894 58.5175 71.744 58.7935 71.588C58.9735 71.696 59.1175 71.846 59.2255 72.038C59.3455 72.23 59.4055 72.434 59.4055 72.65C59.4055 73.01 59.2615 73.31 58.9735 73.55C58.6975 73.79 58.3075 73.97 57.8035 74.09C57.3115 74.21 56.7475 74.27 56.1115 74.27C55.1875 74.27 54.3535 74.096 53.6095 73.748C52.8775 73.4 52.3015 72.878 51.8815 72.182C51.4615 71.486 51.2515 70.616 51.2515 69.572C51.2515 68.804 51.3715 68.138 51.6115 67.574C51.8635 67.01 52.1935 66.548 52.6015 66.188C53.0215 65.816 53.4895 65.54 54.0055 65.36C54.5335 65.18 55.0795 65.09 55.6435 65.09C56.4715 65.09 57.1915 65.258 57.8035 65.594C58.4275 65.918 58.9135 66.362 59.2615 66.926C59.6095 67.49 59.7835 68.144 59.7835 68.888C59.7835 69.26 59.6815 69.542 59.4775 69.734C59.2735 69.926 58.9915 70.046 58.6315 70.094L52.9075 70.94ZM70.4033 68.402V70.094H67.7213V68.492C67.7213 68.048 67.5893 67.724 67.3253 67.52C67.0733 67.304 66.7373 67.196 66.3173 67.196C66.0173 67.196 65.7413 67.238 65.4893 67.322C65.2373 67.394 65.0093 67.484 64.8053 67.592V70.094H62.1413V67.286C62.1413 66.986 62.2013 66.74 62.3213 66.548C62.4533 66.344 62.6393 66.164 62.8793 66.008C63.2633 65.744 63.7553 65.528 64.3553 65.36C64.9553 65.18 65.6153 65.09 66.3353 65.09C67.6313 65.09 68.6333 65.378 69.3413 65.954C70.0493 66.518 70.4033 67.334 70.4033 68.402ZM62.1413 69.266H64.8053V73.982C64.6853 74.018 64.5173 74.048 64.3013 74.072C64.0853 74.108 63.8513 74.126 63.5993 74.126C63.0953 74.126 62.7233 74.036 62.4833 73.856C62.2553 73.676 62.1413 73.352 62.1413 72.884V69.266ZM67.7213 69.266H70.4033V73.982C70.2833 74.018 70.1153 74.048 69.8993 74.072C69.6833 74.108 69.4493 74.126 69.1973 74.126C68.6933 74.126 68.3213 74.036 68.0813 73.856C67.8413 73.676 67.7213 73.352 67.7213 72.884V69.266ZM73.2329 69.248H75.8789V71.174C75.8789 71.51 75.9869 71.756 76.2029 71.912C76.4189 72.068 76.7249 72.146 77.1209 72.146C77.3009 72.146 77.4929 72.128 77.6969 72.092C77.9129 72.044 78.0929 71.99 78.2369 71.93C78.3329 72.038 78.4169 72.17 78.4889 72.326C78.5729 72.482 78.6149 72.662 78.6149 72.866C78.6149 73.274 78.4469 73.61 78.1109 73.874C77.7749 74.138 77.2109 74.27 76.4189 74.27C75.4109 74.27 74.6249 74.042 74.0609 73.586C73.5089 73.13 73.2329 72.386 73.2329 71.354V69.248ZM74.9249 67.61V65.558H78.3809C78.4409 65.654 78.5009 65.792 78.5609 65.972C78.6209 66.152 78.6509 66.35 78.6509 66.566C78.6509 66.926 78.5669 67.19 78.3989 67.358C78.2429 67.526 78.0269 67.61 77.7509 67.61H74.9249ZM75.8789 69.698H73.2329V63.236C73.3529 63.2 73.5209 63.164 73.7369 63.128C73.9529 63.08 74.1809 63.056 74.4209 63.056C74.9369 63.056 75.3089 63.146 75.5369 63.326C75.7649 63.506 75.8789 63.836 75.8789 64.316V69.698ZM84.5297 74.288C83.3057 74.288 82.3277 74.048 81.5957 73.568C80.8757 73.088 80.5157 72.374 80.5157 71.426C80.5157 70.61 80.7677 69.986 81.2717 69.554C81.7757 69.11 82.5257 68.84 83.5217 68.744L85.9157 68.492V68.276C85.9157 67.868 85.7537 67.574 85.4297 67.394C85.1177 67.214 84.6677 67.124 84.0797 67.124C83.6237 67.124 83.1737 67.178 82.7297 67.286C82.2977 67.394 81.9077 67.52 81.5597 67.664C81.4157 67.568 81.2897 67.424 81.1817 67.232C81.0857 67.028 81.0377 66.818 81.0377 66.602C81.0377 66.098 81.3137 65.732 81.8657 65.504C82.2137 65.36 82.6157 65.258 83.0717 65.198C83.5397 65.126 83.9897 65.09 84.4217 65.09C85.6697 65.09 86.6657 65.354 87.4097 65.882C88.1537 66.398 88.5257 67.202 88.5257 68.294V72.38C88.5257 72.68 88.4477 72.926 88.2917 73.118C88.1357 73.298 87.9377 73.454 87.6977 73.586C87.3377 73.802 86.8877 73.97 86.3477 74.09C85.8197 74.222 85.2137 74.288 84.5297 74.288ZM84.5297 72.29C84.8057 72.29 85.0757 72.266 85.3397 72.218C85.6157 72.158 85.8137 72.092 85.9337 72.02V70.292L84.4217 70.436C84.0137 70.46 83.6897 70.544 83.4497 70.688C83.2097 70.832 83.0897 71.048 83.0897 71.336C83.0897 71.624 83.2037 71.858 83.4317 72.038C83.6597 72.206 84.0257 72.29 84.5297 72.29ZM95.9633 67.214C95.3153 67.214 94.7573 67.43 94.2893 67.862C93.8333 68.282 93.6053 68.9 93.6053 69.716C93.6053 70.52 93.8273 71.126 94.2713 71.534C94.7153 71.942 95.2733 72.146 95.9453 72.146C96.3413 72.146 96.6833 72.098 96.9713 72.002C97.2713 71.894 97.5293 71.78 97.7453 71.66C97.9493 71.804 98.1053 71.966 98.2133 72.146C98.3213 72.314 98.3753 72.524 98.3753 72.776C98.3753 73.22 98.1353 73.58 97.6553 73.856C97.1753 74.132 96.5093 74.27 95.6573 74.27C94.7093 74.27 93.8753 74.102 93.1553 73.766C92.4353 73.418 91.8773 72.902 91.4813 72.218C91.0853 71.534 90.8873 70.7 90.8873 69.716C90.8873 68.672 91.1033 67.814 91.5353 67.142C91.9673 66.458 92.5373 65.948 93.2453 65.612C93.9653 65.264 94.7453 65.09 95.5853 65.09C96.4133 65.09 97.0613 65.24 97.5293 65.54C98.0093 65.84 98.2493 66.212 98.2493 66.656C98.2493 66.872 98.1953 67.07 98.0873 67.25C97.9913 67.418 97.8773 67.568 97.7453 67.7C97.5173 67.58 97.2533 67.472 96.9533 67.376C96.6653 67.268 96.3353 67.214 95.9633 67.214ZM94.3793 73.928L95.8373 73.406C96.2693 73.658 96.5693 73.964 96.7373 74.324C96.9173 74.696 97.0073 75.092 97.0073 75.512C97.0073 76.124 96.8153 76.622 96.4313 77.006C96.0593 77.39 95.5433 77.582 94.8833 77.582C94.4273 77.582 94.0613 77.474 93.7853 77.258C93.5213 77.042 93.3893 76.736 93.3893 76.34C93.3893 76.148 93.4133 75.98 93.4613 75.836H93.6593C94.0433 75.836 94.3193 75.74 94.4873 75.548C94.6673 75.368 94.7573 75.14 94.7573 74.864C94.7573 74.732 94.7273 74.576 94.6673 74.396C94.6073 74.216 94.5113 74.06 94.3793 73.928ZM104.339 74.288C103.115 74.288 102.137 74.048 101.405 73.568C100.685 73.088 100.325 72.374 100.325 71.426C100.325 70.61 100.577 69.986 101.081 69.554C101.585 69.11 102.335 68.84 103.331 68.744L105.725 68.492V68.276C105.725 67.868 105.563 67.574 105.239 67.394C104.927 67.214 104.477 67.124 103.889 67.124C103.433 67.124 102.983 67.178 102.539 67.286C102.107 67.394 101.717 67.52 101.369 67.664C101.225 67.568 101.099 67.424 100.991 67.232C100.895 67.028 100.847 66.818 100.847 66.602C100.847 66.098 101.123 65.732 101.675 65.504C102.023 65.36 102.425 65.258 102.881 65.198C103.349 65.126 103.799 65.09 104.231 65.09C105.479 65.09 106.475 65.354 107.219 65.882C107.963 66.398 108.335 67.202 108.335 68.294V72.38C108.335 72.68 108.257 72.926 108.101 73.118C107.945 73.298 107.747 73.454 107.507 73.586C107.147 73.802 106.697 73.97 106.157 74.09C105.629 74.222 105.023 74.288 104.339 74.288ZM104.339 72.29C104.615 72.29 104.885 72.266 105.149 72.218C105.425 72.158 105.623 72.092 105.743 72.02V70.292L104.231 70.436C103.823 70.46 103.499 70.544 103.259 70.688C103.019 70.832 102.899 71.048 102.899 71.336C102.899 71.624 103.013 71.858 103.241 72.038C103.469 72.206 103.835 72.29 104.339 72.29ZM119.84 69.68C119.84 70.616 119.648 71.432 119.264 72.128C118.892 72.812 118.364 73.34 117.68 73.712C116.996 74.084 116.192 74.27 115.268 74.27C114.356 74.27 113.552 74.09 112.856 73.73C112.172 73.358 111.638 72.83 111.254 72.146C110.882 71.45 110.696 70.628 110.696 69.68C110.696 68.732 110.888 67.922 111.272 67.25C111.656 66.566 112.19 66.038 112.874 65.666C113.57 65.282 114.368 65.09 115.268 65.09C116.18 65.09 116.978 65.282 117.662 65.666C118.346 66.038 118.88 66.572 119.264 67.268C119.648 67.952 119.84 68.756 119.84 69.68ZM115.268 67.196C114.704 67.196 114.254 67.412 113.918 67.844C113.594 68.276 113.432 68.888 113.432 69.68C113.432 70.484 113.594 71.102 113.918 71.534C114.242 71.954 114.692 72.164 115.268 72.164C115.844 72.164 116.294 71.948 116.618 71.516C116.942 71.084 117.104 70.472 117.104 69.68C117.104 68.9 116.942 68.294 116.618 67.862C116.294 67.418 115.844 67.196 115.268 67.196ZM6.642 95.858V90.44H9.306V96.2C9.306 96.488 9.246 96.734 9.126 96.938C9.006 97.13 8.814 97.304 8.55 97.46C8.226 97.676 7.8 97.862 7.272 98.018C6.756 98.186 6.156 98.27 5.472 98.27C4.476 98.27 3.612 98.102 2.88 97.766C2.16 97.43 1.602 96.926 1.206 96.254C0.822 95.57 0.63 94.724 0.63 93.716C0.63 92.66 0.828 91.796 1.224 91.124C1.632 90.44 2.178 89.93 2.862 89.594C3.546 89.258 4.302 89.09 5.13 89.09C5.562 89.09 5.946 89.138 6.282 89.234C6.618 89.33 6.894 89.444 7.11 89.576V91.772C6.942 91.628 6.72 91.496 6.444 91.376C6.168 91.256 5.85 91.196 5.49 91.196C5.07 91.196 4.698 91.286 4.374 91.466C4.05 91.646 3.798 91.922 3.618 92.294C3.438 92.666 3.348 93.14 3.348 93.716C3.348 94.556 3.534 95.174 3.906 95.57C4.29 95.966 4.806 96.164 5.454 96.164C5.718 96.164 5.952 96.134 6.156 96.074C6.36 96.002 6.522 95.93 6.642 95.858ZM9.306 90.962L6.642 90.98V86.282C6.75 86.246 6.912 86.21 7.128 86.174C7.344 86.138 7.578 86.12 7.83 86.12C8.358 86.12 8.736 86.21 8.964 86.39C9.192 86.57 9.306 86.9 9.306 87.38V90.962ZM20.8827 93.68C20.8827 94.616 20.6907 95.432 20.3067 96.128C19.9347 96.812 19.4067 97.34 18.7227 97.712C18.0387 98.084 17.2347 98.27 16.3107 98.27C15.3987 98.27 14.5947 98.09 13.8987 97.73C13.2147 97.358 12.6807 96.83 12.2967 96.146C11.9247 95.45 11.7387 94.628 11.7387 93.68C11.7387 92.732 11.9307 91.922 12.3147 91.25C12.6987 90.566 13.2327 90.038 13.9167 89.666C14.6127 89.282 15.4107 89.09 16.3107 89.09C17.2227 89.09 18.0207 89.282 18.7047 89.666C19.3887 90.038 19.9227 90.572 20.3067 91.268C20.6907 91.952 20.8827 92.756 20.8827 93.68ZM16.3107 91.196C15.7467 91.196 15.2967 91.412 14.9607 91.844C14.6367 92.276 14.4747 92.888 14.4747 93.68C14.4747 94.484 14.6367 95.102 14.9607 95.534C15.2847 95.954 15.7347 96.164 16.3107 96.164C16.8867 96.164 17.3367 95.948 17.6607 95.516C17.9847 95.084 18.1467 94.472 18.1467 93.68C18.1467 92.9 17.9847 92.294 17.6607 91.862C17.3367 91.418 16.8867 91.196 16.3107 91.196ZM31.8864 98.27C31.4304 98.27 31.0224 98.21 30.6624 98.09C30.3024 97.982 29.9904 97.856 29.7264 97.712V95.462C29.9304 95.63 30.1764 95.786 30.4644 95.93C30.7644 96.074 31.1004 96.146 31.4724 96.146C32.1324 96.146 32.6424 95.936 33.0024 95.516C33.3744 95.096 33.5604 94.466 33.5604 93.626C33.5604 93.05 33.4764 92.588 33.3084 92.24C33.1524 91.88 32.9244 91.616 32.6244 91.448C32.3244 91.28 31.9704 91.196 31.5624 91.196C31.2864 91.196 31.0344 91.232 30.8064 91.304C30.5904 91.364 30.4044 91.442 30.2484 91.538V97.046H27.6024V91.16C27.6024 90.86 27.6624 90.614 27.7824 90.422C27.9024 90.218 28.0884 90.038 28.3404 89.882C28.7004 89.654 29.1564 89.468 29.7084 89.324C30.2604 89.168 30.8784 89.09 31.5624 89.09C32.4864 89.09 33.3024 89.252 34.0104 89.576C34.7304 89.888 35.2884 90.38 35.6844 91.052C36.0804 91.712 36.2784 92.57 36.2784 93.626C36.2784 94.646 36.0864 95.498 35.7024 96.182C35.3184 96.866 34.7964 97.388 34.1364 97.748C33.4764 98.096 32.7264 98.27 31.8864 98.27ZM29.0604 101.366C28.5564 101.366 28.1844 101.276 27.9444 101.096C27.7164 100.916 27.6024 100.586 27.6024 100.106V96.362H30.2664V101.204C30.1464 101.24 29.9784 101.276 29.7624 101.312C29.5464 101.348 29.3124 101.366 29.0604 101.366ZM41.3575 91.682V93.932H38.6935V91.358C38.6935 91.022 38.7715 90.74 38.9275 90.512C39.0955 90.272 39.3235 90.062 39.6115 89.882C40.0075 89.642 40.4815 89.456 41.0335 89.324C41.5975 89.18 42.1855 89.108 42.7975 89.108C44.0215 89.108 44.6335 89.516 44.6335 90.332C44.6335 90.524 44.6035 90.704 44.5435 90.872C44.4955 91.04 44.4355 91.184 44.3635 91.304C44.2435 91.28 44.0935 91.262 43.9135 91.25C43.7455 91.226 43.5595 91.214 43.3555 91.214C42.9955 91.214 42.6355 91.256 42.2755 91.34C41.9155 91.424 41.6095 91.538 41.3575 91.682ZM38.6935 93.248L41.3575 93.302V97.982C41.2375 98.018 41.0695 98.048 40.8535 98.072C40.6375 98.108 40.4035 98.126 40.1515 98.126C39.6475 98.126 39.2755 98.036 39.0355 97.856C38.8075 97.676 38.6935 97.352 38.6935 96.884V93.248ZM55.122 93.68C55.122 94.616 54.93 95.432 54.546 96.128C54.174 96.812 53.646 97.34 52.962 97.712C52.278 98.084 51.474 98.27 50.55 98.27C49.638 98.27 48.834 98.09 48.138 97.73C47.454 97.358 46.92 96.83 46.536 96.146C46.164 95.45 45.978 94.628 45.978 93.68C45.978 92.732 46.17 91.922 46.554 91.25C46.938 90.566 47.472 90.038 48.156 89.666C48.852 89.282 49.65 89.09 50.55 89.09C51.462 89.09 52.26 89.282 52.944 89.666C53.628 90.038 54.162 90.572 54.546 91.268C54.93 91.952 55.122 92.756 55.122 93.68ZM50.55 91.196C49.986 91.196 49.536 91.412 49.2 91.844C48.876 92.276 48.714 92.888 48.714 93.68C48.714 94.484 48.876 95.102 49.2 95.534C49.524 95.954 49.974 96.164 50.55 96.164C51.126 96.164 51.576 95.948 51.9 95.516C52.224 95.084 52.386 94.472 52.386 93.68C52.386 92.9 52.224 92.294 51.9 91.862C51.576 91.418 51.126 91.196 50.55 91.196ZM56.4023 100.034C56.6903 99.89 56.9243 99.728 57.1043 99.548C57.2963 99.38 57.4343 99.176 57.5183 98.936C57.6143 98.696 57.6623 98.396 57.6623 98.036V93.518H60.3443V98.324C60.3443 99.08 60.2243 99.692 59.9843 100.16C59.7443 100.628 59.4383 100.97 59.0663 101.186C58.7063 101.402 58.3163 101.51 57.8963 101.51C57.4403 101.51 57.0803 101.366 56.8163 101.078C56.5523 100.802 56.4143 100.454 56.4023 100.034ZM57.4463 86.876C57.4463 86.468 57.5843 86.126 57.8603 85.85C58.1363 85.574 58.4963 85.436 58.9403 85.436C59.3723 85.436 59.7263 85.574 60.0023 85.85C60.2903 86.126 60.4343 86.468 60.4343 86.876C60.4343 87.272 60.2903 87.614 60.0023 87.902C59.7263 88.19 59.3723 88.334 58.9403 88.334C58.4963 88.334 58.1363 88.19 57.8603 87.902C57.5843 87.614 57.4463 87.272 57.4463 86.876ZM60.3443 94.688L57.6623 94.634V89.468C57.7823 89.432 57.9503 89.396 58.1663 89.36C58.3823 89.324 58.6163 89.306 58.8683 89.306C59.3843 89.306 59.7563 89.396 59.9843 89.576C60.2243 89.744 60.3443 90.074 60.3443 90.566V94.688ZM64.4549 94.94L64.3469 93.14L68.8109 92.438C68.7869 92.102 68.6429 91.79 68.3789 91.502C68.1149 91.214 67.7249 91.07 67.2089 91.07C66.6689 91.07 66.2189 91.256 65.8589 91.628C65.4989 91.988 65.3069 92.504 65.2829 93.176L65.3729 94.418C65.4809 95.078 65.7629 95.552 66.2189 95.84C66.6749 96.116 67.2149 96.254 67.8389 96.254C68.3429 96.254 68.8169 96.182 69.2609 96.038C69.7049 95.894 70.0649 95.744 70.3409 95.588C70.5209 95.696 70.6649 95.846 70.7729 96.038C70.8929 96.23 70.9529 96.434 70.9529 96.65C70.9529 97.01 70.8089 97.31 70.5209 97.55C70.2449 97.79 69.8549 97.97 69.3509 98.09C68.8589 98.21 68.2949 98.27 67.6589 98.27C66.7349 98.27 65.9009 98.096 65.1569 97.748C64.4249 97.4 63.8489 96.878 63.4289 96.182C63.0089 95.486 62.7989 94.616 62.7989 93.572C62.7989 92.804 62.9189 92.138 63.1589 91.574C63.4109 91.01 63.7409 90.548 64.1489 90.188C64.5689 89.816 65.0369 89.54 65.5529 89.36C66.0809 89.18 66.6269 89.09 67.1909 89.09C68.0189 89.09 68.7389 89.258 69.3509 89.594C69.9749 89.918 70.4609 90.362 70.8089 90.926C71.1569 91.49 71.3309 92.144 71.3309 92.888C71.3309 93.26 71.2289 93.542 71.0249 93.734C70.8209 93.926 70.5389 94.046 70.1789 94.094L64.4549 94.94ZM73.7068 93.248H76.3528V95.174C76.3528 95.51 76.4608 95.756 76.6768 95.912C76.8928 96.068 77.1988 96.146 77.5948 96.146C77.7748 96.146 77.9668 96.128 78.1708 96.092C78.3868 96.044 78.5668 95.99 78.7108 95.93C78.8068 96.038 78.8908 96.17 78.9628 96.326C79.0468 96.482 79.0888 96.662 79.0888 96.866C79.0888 97.274 78.9208 97.61 78.5848 97.874C78.2488 98.138 77.6848 98.27 76.8928 98.27C75.8848 98.27 75.0988 98.042 74.5348 97.586C73.9828 97.13 73.7068 96.386 73.7068 95.354V93.248ZM75.3988 91.61V89.558H78.8548C78.9148 89.654 78.9748 89.792 79.0348 89.972C79.0948 90.152 79.1248 90.35 79.1248 90.566C79.1248 90.926 79.0408 91.19 78.8728 91.358C78.7168 91.526 78.5008 91.61 78.2248 91.61H75.3988ZM76.3528 93.698H73.7068V87.236C73.8268 87.2 73.9948 87.164 74.2108 87.128C74.4268 87.08 74.6548 87.056 74.8948 87.056C75.4108 87.056 75.7828 87.146 76.0108 87.326C76.2388 87.506 76.3528 87.836 76.3528 88.316V93.698ZM90.0646 93.68C90.0646 94.616 89.8726 95.432 89.4886 96.128C89.1166 96.812 88.5886 97.34 87.9046 97.712C87.2206 98.084 86.4166 98.27 85.4926 98.27C84.5806 98.27 83.7766 98.09 83.0806 97.73C82.3966 97.358 81.8626 96.83 81.4786 96.146C81.1066 95.45 80.9206 94.628 80.9206 93.68C80.9206 92.732 81.1126 91.922 81.4966 91.25C81.8806 90.566 82.4146 90.038 83.0986 89.666C83.7946 89.282 84.5926 89.09 85.4926 89.09C86.4046 89.09 87.2026 89.282 87.8866 89.666C88.5706 90.038 89.1046 90.572 89.4886 91.268C89.8726 91.952 90.0646 92.756 90.0646 93.68ZM85.4926 91.196C84.9286 91.196 84.4786 91.412 84.1426 91.844C83.8186 92.276 83.6566 92.888 83.6566 93.68C83.6566 94.484 83.8186 95.102 84.1426 95.534C84.4666 95.954 84.9166 96.164 85.4926 96.164C86.0686 96.164 86.5186 95.948 86.8426 95.516C87.1666 95.084 87.3286 94.472 87.3286 93.68C87.3286 92.9 87.1666 92.294 86.8426 91.862C86.5186 91.418 86.0686 91.196 85.4926 91.196Z" fill="#F7F9FB"/>
<path d="M8.034 40.682C8.34539 40.9946 8.584 41.372 8.73282 41.7874C8.88165 42.2027 8.93702 42.6458 8.895 43.085C8.68416 45.1177 8.28443 47.1264 7.701 49.085C11.886 48.116 14.442 46.994 15.603 46.406C16.2615 46.0725 17.0199 45.9934 17.733 46.184C19.7773 46.729 21.8843 47.0033 24 47C35.988 47 45 38.579 45 29C45 19.424 35.988 11 24 11C12.012 11 3 19.424 3 29C3 33.404 4.851 37.49 8.034 40.682ZM6.555 52.397C5.84421 52.5379 5.13111 52.6669 4.416 52.784C3.816 52.88 3.36 52.256 3.597 51.698C3.86338 51.0698 4.10753 50.4324 4.329 49.787L4.338 49.757C5.082 47.597 5.688 45.113 5.91 42.8C2.229 39.11 0 34.28 0 29C0 17.402 10.746 8 24 8C37.254 8 48 17.402 48 29C48 40.598 37.254 50 24 50C21.623 50.0032 19.2558 49.6946 16.959 49.082C15.399 49.871 12.042 51.308 6.555 52.397V52.397Z" fill="#F5DF4D"/>
<path d="M569.278 69.368H571.942V76.892C571.834 76.916 571.666 76.946 571.438 76.982C571.222 77.018 570.988 77.036 570.736 77.036C570.292 77.036 569.938 76.904 569.674 76.64C569.41 76.376 569.278 76.022 569.278 75.578V69.368ZM571.942 73.724H569.278V67.55C569.278 67.094 569.41 66.74 569.674 66.488C569.938 66.224 570.292 66.092 570.736 66.092C570.988 66.092 571.222 66.11 571.438 66.146C571.666 66.182 571.834 66.212 571.942 66.236V73.724ZM570.736 72.518V70.358H576.172C576.244 70.478 576.31 70.628 576.37 70.808C576.43 70.988 576.46 71.186 576.46 71.402C576.46 71.786 576.37 72.068 576.19 72.248C576.022 72.428 575.794 72.518 575.506 72.518H570.736ZM570.736 77.036V74.858H576.766C576.838 74.966 576.904 75.116 576.964 75.308C577.024 75.5 577.054 75.704 577.054 75.92C577.054 76.304 576.964 76.586 576.784 76.766C576.616 76.946 576.388 77.036 576.1 77.036H570.736ZM570.736 68.252V66.092H576.676C576.76 66.2 576.826 66.344 576.874 66.524C576.934 66.704 576.964 66.902 576.964 67.118C576.964 67.502 576.88 67.79 576.712 67.982C576.544 68.162 576.31 68.252 576.01 68.252H570.736ZM587.729 71.402V73.094H585.047V71.492C585.047 71.048 584.915 70.724 584.651 70.52C584.399 70.304 584.063 70.196 583.643 70.196C583.343 70.196 583.067 70.238 582.815 70.322C582.563 70.394 582.335 70.484 582.131 70.592V73.094H579.467V70.286C579.467 69.986 579.527 69.74 579.647 69.548C579.779 69.344 579.965 69.164 580.205 69.008C580.589 68.744 581.081 68.528 581.681 68.36C582.281 68.18 582.941 68.09 583.661 68.09C584.957 68.09 585.959 68.378 586.667 68.954C587.375 69.518 587.729 70.334 587.729 71.402ZM579.467 72.266H582.131V76.982C582.011 77.018 581.843 77.048 581.627 77.072C581.411 77.108 581.177 77.126 580.925 77.126C580.421 77.126 580.049 77.036 579.809 76.856C579.581 76.676 579.467 76.352 579.467 75.884V72.266ZM585.047 72.266H587.729V76.982C587.609 77.018 587.441 77.048 587.225 77.072C587.009 77.108 586.775 77.126 586.523 77.126C586.019 77.126 585.647 77.036 585.407 76.856C585.167 76.676 585.047 76.352 585.047 75.884V72.266ZM590.559 72.248H593.205V74.174C593.205 74.51 593.313 74.756 593.529 74.912C593.745 75.068 594.051 75.146 594.447 75.146C594.627 75.146 594.819 75.128 595.023 75.092C595.239 75.044 595.419 74.99 595.563 74.93C595.659 75.038 595.743 75.17 595.815 75.326C595.899 75.482 595.941 75.662 595.941 75.866C595.941 76.274 595.773 76.61 595.437 76.874C595.101 77.138 594.537 77.27 593.745 77.27C592.737 77.27 591.951 77.042 591.387 76.586C590.835 76.13 590.559 75.386 590.559 74.354V72.248ZM592.251 70.61V68.558H595.707C595.767 68.654 595.827 68.792 595.887 68.972C595.947 69.152 595.977 69.35 595.977 69.566C595.977 69.926 595.893 70.19 595.725 70.358C595.569 70.526 595.353 70.61 595.077 70.61H592.251ZM593.205 72.698H590.559V66.236C590.679 66.2 590.847 66.164 591.063 66.128C591.279 66.08 591.507 66.056 591.747 66.056C592.263 66.056 592.635 66.146 592.863 66.326C593.091 66.506 593.205 66.836 593.205 67.316V72.698ZM600.956 70.682V72.932H598.292V70.358C598.292 70.022 598.37 69.74 598.526 69.512C598.694 69.272 598.922 69.062 599.21 68.882C599.606 68.642 600.08 68.456 600.632 68.324C601.196 68.18 601.784 68.108 602.396 68.108C603.62 68.108 604.232 68.516 604.232 69.332C604.232 69.524 604.202 69.704 604.142 69.872C604.094 70.04 604.034 70.184 603.962 70.304C603.842 70.28 603.692 70.262 603.512 70.25C603.344 70.226 603.158 70.214 602.954 70.214C602.594 70.214 602.234 70.256 601.874 70.34C601.514 70.424 601.208 70.538 600.956 70.682ZM598.292 72.248L600.956 72.302V76.982C600.836 77.018 600.668 77.048 600.452 77.072C600.236 77.108 600.002 77.126 599.75 77.126C599.246 77.126 598.874 77.036 598.634 76.856C598.406 76.676 598.292 76.352 598.292 75.884V72.248ZM607.232 73.94L607.124 72.14L611.588 71.438C611.564 71.102 611.42 70.79 611.156 70.502C610.892 70.214 610.502 70.07 609.986 70.07C609.446 70.07 608.996 70.256 608.636 70.628C608.276 70.988 608.084 71.504 608.06 72.176L608.15 73.418C608.258 74.078 608.54 74.552 608.996 74.84C609.452 75.116 609.992 75.254 610.616 75.254C611.12 75.254 611.594 75.182 612.038 75.038C612.482 74.894 612.842 74.744 613.118 74.588C613.298 74.696 613.442 74.846 613.55 75.038C613.67 75.23 613.73 75.434 613.73 75.65C613.73 76.01 613.586 76.31 613.298 76.55C613.022 76.79 612.632 76.97 612.128 77.09C611.636 77.21 611.072 77.27 610.436 77.27C609.512 77.27 608.678 77.096 607.934 76.748C607.202 76.4 606.626 75.878 606.206 75.182C605.786 74.486 605.576 73.616 605.576 72.572C605.576 71.804 605.696 71.138 605.936 70.574C606.188 70.01 606.518 69.548 606.926 69.188C607.346 68.816 607.814 68.54 608.33 68.36C608.858 68.18 609.404 68.09 609.968 68.09C610.796 68.09 611.516 68.258 612.128 68.594C612.752 68.918 613.238 69.362 613.586 69.926C613.934 70.49 614.108 71.144 614.108 71.888C614.108 72.26 614.006 72.542 613.802 72.734C613.598 72.926 613.316 73.046 612.956 73.094L607.232 73.94ZM620.03 76.658C619.322 76.658 618.662 76.526 618.05 76.262C617.45 75.986 616.964 75.536 616.592 74.912C616.232 74.276 616.052 73.448 616.052 72.428C616.052 71.48 616.238 70.688 616.61 70.052C616.994 69.404 617.528 68.918 618.212 68.594C618.896 68.258 619.688 68.09 620.588 68.09C621.236 68.09 621.836 68.18 622.388 68.36C622.952 68.528 623.39 68.714 623.702 68.918C623.918 69.062 624.092 69.236 624.224 69.44C624.356 69.632 624.422 69.878 624.422 70.178V75.83H621.848V70.484C621.716 70.412 621.554 70.346 621.362 70.286C621.182 70.226 620.954 70.196 620.678 70.196C620.102 70.196 619.628 70.376 619.256 70.736C618.896 71.096 618.716 71.66 618.716 72.428C618.716 73.268 618.884 73.85 619.22 74.174C619.568 74.486 620 74.642 620.516 74.642C620.912 74.642 621.242 74.576 621.506 74.444C621.77 74.3 621.998 74.144 622.19 73.976L622.262 76.1C622.01 76.256 621.704 76.388 621.344 76.496C620.984 76.604 620.546 76.658 620.03 76.658ZM621.902 76.91V75.236H624.422V76.982C624.422 77.822 624.224 78.506 623.828 79.034C623.444 79.562 622.916 79.952 622.244 80.204C621.584 80.456 620.84 80.582 620.012 80.582C619.388 80.582 618.83 80.528 618.338 80.42C617.858 80.312 617.492 80.174 617.24 80.006C616.832 79.742 616.628 79.37 616.628 78.89C616.628 78.638 616.676 78.41 616.772 78.206C616.88 78.014 617.006 77.87 617.15 77.774C617.474 77.966 617.858 78.128 618.302 78.26C618.746 78.404 619.214 78.476 619.706 78.476C620.378 78.476 620.912 78.35 621.308 78.098C621.704 77.858 621.902 77.462 621.902 76.91ZM630.769 77.288C629.545 77.288 628.567 77.048 627.835 76.568C627.115 76.088 626.755 75.374 626.755 74.426C626.755 73.61 627.007 72.986 627.511 72.554C628.015 72.11 628.765 71.84 629.761 71.744L632.155 71.492V71.276C632.155 70.868 631.993 70.574 631.669 70.394C631.357 70.214 630.907 70.124 630.319 70.124C629.863 70.124 629.413 70.178 628.969 70.286C628.537 70.394 628.147 70.52 627.799 70.664C627.655 70.568 627.529 70.424 627.421 70.232C627.325 70.028 627.277 69.818 627.277 69.602C627.277 69.098 627.553 68.732 628.105 68.504C628.453 68.36 628.855 68.258 629.311 68.198C629.779 68.126 630.229 68.09 630.661 68.09C631.909 68.09 632.905 68.354 633.649 68.882C634.393 69.398 634.765 70.202 634.765 71.294V75.38C634.765 75.68 634.687 75.926 634.531 76.118C634.375 76.298 634.177 76.454 633.937 76.586C633.577 76.802 633.127 76.97 632.587 77.09C632.059 77.222 631.453 77.288 630.769 77.288ZM630.769 75.29C631.045 75.29 631.315 75.266 631.579 75.218C631.855 75.158 632.053 75.092 632.173 75.02V73.292L630.661 73.436C630.253 73.46 629.929 73.544 629.689 73.688C629.449 73.832 629.329 74.048 629.329 74.336C629.329 74.624 629.443 74.858 629.671 75.038C629.899 75.206 630.265 75.29 630.769 75.29ZM647.463 74.858V69.44H650.127V75.2C650.127 75.488 650.067 75.734 649.947 75.938C649.827 76.13 649.635 76.304 649.371 76.46C649.047 76.676 648.621 76.862 648.093 77.018C647.577 77.186 646.977 77.27 646.293 77.27C645.297 77.27 644.433 77.102 643.701 76.766C642.981 76.43 642.423 75.926 642.027 75.254C641.643 74.57 641.451 73.724 641.451 72.716C641.451 71.66 641.649 70.796 642.045 70.124C642.453 69.44 642.999 68.93 643.683 68.594C644.367 68.258 645.123 68.09 645.951 68.09C646.383 68.09 646.767 68.138 647.103 68.234C647.439 68.33 647.715 68.444 647.931 68.576V70.772C647.763 70.628 647.541 70.496 647.265 70.376C646.989 70.256 646.671 70.196 646.311 70.196C645.891 70.196 645.519 70.286 645.195 70.466C644.871 70.646 644.619 70.922 644.439 71.294C644.259 71.666 644.169 72.14 644.169 72.716C644.169 73.556 644.355 74.174 644.727 74.57C645.111 74.966 645.627 75.164 646.275 75.164C646.539 75.164 646.773 75.134 646.977 75.074C647.181 75.002 647.343 74.93 647.463 74.858ZM650.127 69.962L647.463 69.98V65.282C647.571 65.246 647.733 65.21 647.949 65.174C648.165 65.138 648.399 65.12 648.651 65.12C649.179 65.12 649.557 65.21 649.785 65.39C650.013 65.57 650.127 65.9 650.127 66.38V69.962ZM661.703 72.68C661.703 73.616 661.511 74.432 661.127 75.128C660.755 75.812 660.227 76.34 659.543 76.712C658.859 77.084 658.055 77.27 657.131 77.27C656.219 77.27 655.415 77.09 654.719 76.73C654.035 76.358 653.501 75.83 653.117 75.146C652.745 74.45 652.559 73.628 652.559 72.68C652.559 71.732 652.751 70.922 653.135 70.25C653.519 69.566 654.053 69.038 654.737 68.666C655.433 68.282 656.231 68.09 657.131 68.09C658.043 68.09 658.841 68.282 659.525 68.666C660.209 69.038 660.743 69.572 661.127 70.268C661.511 70.952 661.703 71.756 661.703 72.68ZM657.131 70.196C656.567 70.196 656.117 70.412 655.781 70.844C655.457 71.276 655.295 71.888 655.295 72.68C655.295 73.484 655.457 74.102 655.781 74.534C656.105 74.954 656.555 75.164 657.131 75.164C657.707 75.164 658.157 74.948 658.481 74.516C658.805 74.084 658.967 73.472 658.967 72.68C658.967 71.9 658.805 71.294 658.481 70.862C658.157 70.418 657.707 70.196 657.131 70.196ZM573.328 101.27C572.872 101.27 572.464 101.21 572.104 101.09C571.744 100.982 571.432 100.856 571.168 100.712V98.462C571.372 98.63 571.618 98.786 571.906 98.93C572.206 99.074 572.542 99.146 572.914 99.146C573.574 99.146 574.084 98.936 574.444 98.516C574.816 98.096 575.002 97.466 575.002 96.626C575.002 96.05 574.918 95.588 574.75 95.24C574.594 94.88 574.366 94.616 574.066 94.448C573.766 94.28 573.412 94.196 573.004 94.196C572.728 94.196 572.476 94.232 572.248 94.304C572.032 94.364 571.846 94.442 571.69 94.538V100.046H569.044V94.16C569.044 93.86 569.104 93.614 569.224 93.422C569.344 93.218 569.53 93.038 569.782 92.882C570.142 92.654 570.598 92.468 571.15 92.324C571.702 92.168 572.32 92.09 573.004 92.09C573.928 92.09 574.744 92.252 575.452 92.576C576.172 92.888 576.73 93.38 577.126 94.052C577.522 94.712 577.72 95.57 577.72 96.626C577.72 97.646 577.528 98.498 577.144 99.182C576.76 99.866 576.238 100.388 575.578 100.748C574.918 101.096 574.168 101.27 573.328 101.27ZM570.502 104.366C569.998 104.366 569.626 104.276 569.386 104.096C569.158 103.916 569.044 103.586 569.044 103.106V99.362H571.708V104.204C571.588 104.24 571.42 104.276 571.204 104.312C570.988 104.348 570.754 104.366 570.502 104.366ZM582.799 94.682V96.932H580.135V94.358C580.135 94.022 580.213 93.74 580.369 93.512C580.537 93.272 580.765 93.062 581.053 92.882C581.449 92.642 581.923 92.456 582.475 92.324C583.039 92.18 583.627 92.108 584.239 92.108C585.463 92.108 586.075 92.516 586.075 93.332C586.075 93.524 586.045 93.704 585.985 93.872C585.937 94.04 585.877 94.184 585.805 94.304C585.685 94.28 585.535 94.262 585.355 94.25C585.187 94.226 585.001 94.214 584.797 94.214C584.437 94.214 584.077 94.256 583.717 94.34C583.357 94.424 583.051 94.538 582.799 94.682ZM580.135 96.248L582.799 96.302V100.982C582.679 101.018 582.511 101.048 582.295 101.072C582.079 101.108 581.845 101.126 581.593 101.126C581.089 101.126 580.717 101.036 580.477 100.856C580.249 100.676 580.135 100.352 580.135 99.884V96.248ZM596.564 96.68C596.564 97.616 596.372 98.432 595.988 99.128C595.616 99.812 595.088 100.34 594.404 100.712C593.72 101.084 592.916 101.27 591.992 101.27C591.08 101.27 590.276 101.09 589.58 100.73C588.896 100.358 588.362 99.83 587.978 99.146C587.606 98.45 587.42 97.628 587.42 96.68C587.42 95.732 587.612 94.922 587.996 94.25C588.38 93.566 588.914 93.038 589.598 92.666C590.294 92.282 591.092 92.09 591.992 92.09C592.904 92.09 593.702 92.282 594.386 92.666C595.07 93.038 595.604 93.572 595.988 94.268C596.372 94.952 596.564 95.756 596.564 96.68ZM591.992 94.196C591.428 94.196 590.978 94.412 590.642 94.844C590.318 95.276 590.156 95.888 590.156 96.68C590.156 97.484 590.318 98.102 590.642 98.534C590.966 98.954 591.416 99.164 591.992 99.164C592.568 99.164 593.018 98.948 593.342 98.516C593.666 98.084 593.828 97.472 593.828 96.68C593.828 95.9 593.666 95.294 593.342 94.862C593.018 94.418 592.568 94.196 591.992 94.196ZM597.844 103.034C598.132 102.89 598.366 102.728 598.546 102.548C598.738 102.38 598.876 102.176 598.96 101.936C599.056 101.696 599.104 101.396 599.104 101.036V96.518H601.786V101.324C601.786 102.08 601.666 102.692 601.426 103.16C601.186 103.628 600.88 103.97 600.508 104.186C600.148 104.402 599.758 104.51 599.338 104.51C598.882 104.51 598.522 104.366 598.258 104.078C597.994 103.802 597.856 103.454 597.844 103.034ZM598.888 89.876C598.888 89.468 599.026 89.126 599.302 88.85C599.578 88.574 599.938 88.436 600.382 88.436C600.814 88.436 601.168 88.574 601.444 88.85C601.732 89.126 601.876 89.468 601.876 89.876C601.876 90.272 601.732 90.614 601.444 90.902C601.168 91.19 600.814 91.334 600.382 91.334C599.938 91.334 599.578 91.19 599.302 90.902C599.026 90.614 598.888 90.272 598.888 89.876ZM601.786 97.688L599.104 97.634V92.468C599.224 92.432 599.392 92.396 599.608 92.36C599.824 92.324 600.058 92.306 600.31 92.306C600.826 92.306 601.198 92.396 601.426 92.576C601.666 92.744 601.786 93.074 601.786 93.566V97.688ZM605.896 97.94L605.788 96.14L610.252 95.438C610.228 95.102 610.084 94.79 609.82 94.502C609.556 94.214 609.166 94.07 608.65 94.07C608.11 94.07 607.66 94.256 607.3 94.628C606.94 94.988 606.748 95.504 606.724 96.176L606.814 97.418C606.922 98.078 607.204 98.552 607.66 98.84C608.116 99.116 608.656 99.254 609.28 99.254C609.784 99.254 610.258 99.182 610.702 99.038C611.146 98.894 611.506 98.744 611.782 98.588C611.962 98.696 612.106 98.846 612.214 99.038C612.334 99.23 612.394 99.434 612.394 99.65C612.394 100.01 612.25 100.31 611.962 100.55C611.686 100.79 611.296 100.97 610.792 101.09C610.3 101.21 609.736 101.27 609.1 101.27C608.176 101.27 607.342 101.096 606.598 100.748C605.866 100.4 605.29 99.878 604.87 99.182C604.45 98.486 604.24 97.616 604.24 96.572C604.24 95.804 604.36 95.138 604.6 94.574C604.852 94.01 605.182 93.548 605.59 93.188C606.01 92.816 606.478 92.54 606.994 92.36C607.522 92.18 608.068 92.09 608.632 92.09C609.46 92.09 610.18 92.258 610.792 92.594C611.416 92.918 611.902 93.362 612.25 93.926C612.598 94.49 612.772 95.144 612.772 95.888C612.772 96.26 612.67 96.542 612.466 96.734C612.262 96.926 611.98 97.046 611.62 97.094L605.896 97.94ZM615.148 96.248H617.794V98.174C617.794 98.51 617.902 98.756 618.118 98.912C618.334 99.068 618.64 99.146 619.036 99.146C619.216 99.146 619.408 99.128 619.612 99.092C619.828 99.044 620.008 98.99 620.152 98.93C620.248 99.038 620.332 99.17 620.404 99.326C620.488 99.482 620.53 99.662 620.53 99.866C620.53 100.274 620.362 100.61 620.026 100.874C619.69 101.138 619.126 101.27 618.334 101.27C617.326 101.27 616.54 101.042 615.976 100.586C615.424 100.13 615.148 99.386 615.148 98.354V96.248ZM616.84 94.61V92.558H620.296C620.356 92.654 620.416 92.792 620.476 92.972C620.536 93.152 620.566 93.35 620.566 93.566C620.566 93.926 620.482 94.19 620.314 94.358C620.158 94.526 619.942 94.61 619.666 94.61H616.84ZM617.794 96.698H615.148V90.236C615.268 90.2 615.436 90.164 615.652 90.128C615.868 90.08 616.096 90.056 616.336 90.056C616.852 90.056 617.224 90.146 617.452 90.326C617.68 90.506 617.794 90.836 617.794 91.316V96.698ZM631.506 96.68C631.506 97.616 631.314 98.432 630.93 99.128C630.558 99.812 630.03 100.34 629.346 100.712C628.662 101.084 627.858 101.27 626.934 101.27C626.022 101.27 625.218 101.09 624.522 100.73C623.838 100.358 623.304 99.83 622.92 99.146C622.548 98.45 622.362 97.628 622.362 96.68C622.362 95.732 622.554 94.922 622.938 94.25C623.322 93.566 623.856 93.038 624.54 92.666C625.236 92.282 626.034 92.09 626.934 92.09C627.846 92.09 628.644 92.282 629.328 92.666C630.012 93.038 630.546 93.572 630.93 94.268C631.314 94.952 631.506 95.756 631.506 96.68ZM626.934 94.196C626.37 94.196 625.92 94.412 625.584 94.844C625.26 95.276 625.098 95.888 625.098 96.68C625.098 97.484 625.26 98.102 625.584 98.534C625.908 98.954 626.358 99.164 626.934 99.164C627.51 99.164 627.96 98.948 628.284 98.516C628.608 98.084 628.77 97.472 628.77 96.68C628.77 95.9 628.608 95.294 628.284 94.862C627.96 94.418 627.51 94.196 626.934 94.196Z" fill="#F7F9FB"/>
<path d="M614.5 20V9.5H569.5V20H573.855V12.5H589.823V51.5122L581.113 51.5V54.5H602.887V51.5H594.177V12.5H610.145V20H614.5Z" fill="#F5DF4D"/>
<defs>
<clipPath id="clip0_49_72">
<rect width="48" height="48" fill="white" transform="translate(426)"/>
</clipPath>
</defs>
</svg>
