<svg width="764" height="984" viewBox="0 0 764 984" fill="none" xmlns="http://www.w3.org/2000/svg">
<rect width="764" height="984" fill="#040413"/>
<path d="M382 422C384.209 422 386 420.209 386 418C386 415.791 384.209 414 382 414C379.791 414 378 415.791 378 418C378 420.209 379.791 422 382 422ZM382 382C384.209 382 386 380.209 386 378C386 375.791 384.209 374 382 374C379.791 374 378 375.791 378 378C378 380.209 379.791 382 382 382ZM382.75 418V378H381.25V418H382.75Z" fill="#F5DF4D"/>
<path d="M382 595C384.209 595 386 593.209 386 591C386 588.791 384.209 587 382 587C379.791 587 378 588.791 378 591C378 593.209 379.791 595 382 595ZM382 555C384.209 555 386 553.209 386 551C386 548.791 384.209 547 382 547C379.791 547 378 548.791 378 551C378 553.209 379.791 555 382 555ZM382.75 591V551H381.25V591H382.75Z" fill="#F5DF4D"/>
<path d="M313.5 489C313.5 486.791 311.709 485 309.5 485C307.291 485 305.5 486.791 305.5 489C305.5 491.209 307.291 493 309.5 493C311.709 493 313.5 491.209 313.5 489ZM273.5 489C273.5 486.791 271.709 485 269.5 485C267.291 485 265.5 486.791 265.5 489C265.5 491.209 267.291 493 269.5 493C271.709 493 273.5 491.209 273.5 489ZM309.5 488.25H269.5V489.75H309.5V488.25Z" fill="#F5DF4D"/>
<path d="M308.064 413.31C309.484 411.618 309.263 409.095 307.571 407.675C305.878 406.255 303.355 406.475 301.935 408.168C300.515 409.86 300.736 412.383 302.428 413.803C304.121 415.223 306.644 415.002 308.064 413.31ZM277.422 387.598C278.842 385.906 278.621 383.383 276.929 381.963C275.237 380.543 272.714 380.764 271.294 382.456C269.874 384.148 270.094 386.671 271.787 388.091C273.479 389.511 276.002 389.291 277.422 387.598ZM305.482 410.164L274.84 384.453L273.876 385.602L304.517 411.313L305.482 410.164Z" fill="#F5DF4D"/>
<path d="M495.614 582.139C497.307 580.719 497.527 578.196 496.107 576.504C494.687 574.812 492.164 574.591 490.472 576.011C488.78 577.431 488.559 579.954 489.979 581.646C491.399 583.339 493.922 583.56 495.614 582.139ZM469.903 551.498C471.595 550.078 471.816 547.555 470.396 545.862C468.976 544.17 466.453 543.949 464.761 545.369C463.068 546.789 462.847 549.312 464.268 551.005C465.688 552.697 468.211 552.918 469.903 551.498ZM493.618 578.593L467.906 547.951L466.757 548.916L492.469 579.557L493.618 578.593Z" fill="#F5DF4D"/>
<path d="M501 479C501 476.791 499.209 475 497 475C494.791 475 493 476.791 493 479C493 481.209 494.791 483 497 483C499.209 483 501 481.209 501 479ZM461 479C461 476.791 459.209 475 457 475C454.791 475 453 476.791 453 479C453 481.209 454.791 483 457 483C459.209 483 461 481.209 461 479ZM497 478.25H457V479.75H497V478.25Z" fill="#F5DF4D"/>
<rect x="332.5" y="608.5" width="99" height="99" fill="black" fill-opacity="0.2"/>
<path d="M382 707.219C380.691 707.219 379.363 706.867 378.211 706.203L366.16 699.074C364.363 698.059 365.242 697.707 365.828 697.512C368.23 696.672 368.719 696.496 371.277 695.031C371.551 694.875 371.902 694.934 372.176 695.109L381.434 700.598C381.766 700.793 382.234 700.793 382.547 700.598L418.621 679.777C418.953 679.582 419.168 679.191 419.168 678.801V637.16C419.168 636.75 418.953 636.379 418.602 636.164L382.547 615.363C382.215 615.168 381.766 615.168 381.434 615.363L345.398 636.184C345.047 636.379 344.832 636.77 344.832 637.18V678.801C344.832 679.191 345.047 679.582 345.398 679.758L355.281 685.461C360.652 688.137 363.934 684.992 363.934 681.809V640.715C363.934 640.129 364.402 639.68 364.988 639.68H369.559C370.125 639.68 370.613 640.129 370.613 640.715V681.828C370.613 688.977 366.707 693.078 359.93 693.078C357.84 693.078 356.199 693.078 351.629 690.813L342.176 685.363C339.832 684.016 338.387 681.496 338.387 678.781V637.16C338.387 634.465 339.832 631.926 342.176 630.578L378.211 609.758C380.496 608.469 383.523 608.469 385.789 609.758L421.863 630.598C424.207 631.945 425.652 634.465 425.652 637.18V678.801C425.652 681.496 424.207 684.016 421.863 685.383L385.789 706.203C384.637 706.867 383.328 707.219 382 707.219ZM411.121 666.184C411.121 658.391 405.848 656.32 394.773 654.855C383.562 653.371 382.43 652.609 382.43 649.992C382.43 647.824 383.387 644.934 391.687 644.934C399.09 644.934 401.824 646.535 402.957 651.535C403.055 652.004 403.484 652.355 403.973 652.355H408.66C408.953 652.355 409.227 652.238 409.422 652.023C409.617 651.809 409.715 651.516 409.695 651.223C408.973 642.609 403.25 638.605 391.687 638.605C381.395 638.605 375.262 642.941 375.262 650.227C375.262 658.117 381.375 660.305 391.238 661.281C403.055 662.434 403.973 664.172 403.973 666.496C403.973 670.52 400.73 672.238 393.133 672.238C383.582 672.238 381.492 669.836 380.789 665.09C380.711 664.582 380.281 664.211 379.754 664.211H375.086C374.5 664.211 374.051 664.68 374.051 665.246C374.051 671.32 377.352 678.566 393.152 678.566C404.559 678.547 411.121 674.035 411.121 666.184V666.184Z" fill="#F5DF4D"/>
<rect x="332.5" y="608.5" width="99" height="99" stroke="black"/>
<path d="M169.5 444.25L176.316 521.555L206.902 531.75L237.684 521.555L244.5 444.25H169.5ZM229.695 469.23H193.797L194.598 478.879H228.895L226.238 507.863L207.117 513.137V513.195H206.902L187.625 507.863L186.453 493.059H195.77L196.453 500.5L206.902 503.332L217.391 500.5L218.562 488.352H185.965L183.465 459.914H230.555L229.695 469.23V469.23Z" fill="#F5DF4D"/>
<rect width="100" height="100" transform="translate(332 271)" fill="black" fill-opacity="0.2"/>
<path d="M344.5 277.25L351.316 354.555L382 364.75L412.684 354.555L419.5 277.25H344.5ZM405.652 292.875L404.715 302.113L382.195 311.742L382.137 311.762H403.914L401.414 340.395L382.234 346L362.938 340.297L361.688 325.863H371.238L371.863 333.344L382.137 335.941L392.82 332.934L393.543 320.902L361.063 320.805V320.785L361.023 320.805L360.32 311.762L382.215 302.641L383.484 302.113H359.48L358.348 292.875H405.652Z" fill="#F5DF4D"/>
<rect width="100" height="100" transform="translate(507 438)" fill="black" fill-opacity="0.2"/>
<path d="M549.52 490.363H564.402L556.961 472.473L549.52 490.363ZM556.961 444.25L516.375 458.781L522.586 512.629L556.961 531.75L591.336 512.629L597.547 458.781L556.961 444.25ZM582.391 511.008H572.898L567.781 498.234H546.18L541.062 511.008H531.551L556.961 453.918L582.391 511.008Z" fill="#F5DF4D"/>
<rect width="150" height="150" transform="translate(307 413)" fill="black" fill-opacity="0.2"/>
<path d="M366.773 482.324C368.237 483.789 370.612 483.789 372.077 482.324L374.727 479.673C376.192 478.209 376.192 475.834 374.727 474.37L366.355 466L374.725 457.628C376.19 456.163 376.19 453.789 374.725 452.324L372.074 449.673C370.609 448.209 368.235 448.209 366.77 449.673L353.097 463.347C351.632 464.812 351.632 467.186 353.097 468.651L366.773 482.324ZM389.275 479.676L391.926 482.327C393.391 483.791 395.765 483.791 397.23 482.327L410.903 468.653C412.368 467.188 412.368 464.814 410.903 463.349L397.23 449.676C395.765 448.211 393.391 448.211 391.926 449.676L389.275 452.327C387.81 453.791 387.81 456.166 389.275 457.63L397.645 466L389.275 474.372C387.81 475.837 387.81 478.211 389.275 479.676ZM453.25 518.5H396.423C396.25 523.143 392.976 526 388.75 526H374.5C370.12 526 366.761 521.905 366.82 518.5H310.75C308.688 518.5 307 520.187 307 522.25V526C307 534.25 313.75 541 322 541H442C450.25 541 457 534.25 457 526V522.25C457 520.187 455.312 518.5 453.25 518.5ZM442 432.25C442 426.062 436.938 421 430.75 421H333.25C327.062 421 322 426.062 322 432.25V511H442V432.25ZM427 496H337V436H427V496Z" fill="white"/>
<path d="M334.33 718.78H337.066V720.904C337.066 721.612 336.928 722.218 336.652 722.722C336.376 723.226 335.98 723.61 335.464 723.874C334.96 724.126 334.342 724.252 333.61 724.252C332.974 724.252 332.446 724.144 332.026 723.928C331.606 723.712 331.396 723.346 331.396 722.83C331.396 722.602 331.432 722.404 331.504 722.236C331.576 722.068 331.648 721.936 331.72 721.84C331.948 721.9 332.152 721.948 332.332 721.984C332.512 722.008 332.71 722.02 332.926 722.02C333.406 722.02 333.76 721.9 333.988 721.66C334.216 721.42 334.33 721.054 334.33 720.562V718.78ZM337.066 719.95H334.33V713.056C334.45 713.032 334.63 713.002 334.87 712.966C335.122 712.93 335.362 712.912 335.59 712.912C336.106 712.912 336.478 713.002 336.706 713.182C336.946 713.362 337.066 713.704 337.066 714.208V719.95ZM344.703 715.36H344.595C344.475 715.744 344.331 716.17 344.163 716.638C344.007 717.106 343.845 717.598 343.677 718.114C343.509 718.618 343.347 719.122 343.191 719.626L342.867 721.246C342.795 721.474 342.723 721.714 342.651 721.966C342.591 722.218 342.525 722.464 342.453 722.704C342.381 722.944 342.315 723.172 342.255 723.388C342.195 723.604 342.135 723.808 342.075 724C341.943 724.036 341.793 724.072 341.625 724.108C341.457 724.156 341.259 724.18 341.031 724.18C340.527 724.18 340.143 724.09 339.879 723.91C339.615 723.73 339.483 723.466 339.483 723.118C339.483 722.974 339.501 722.824 339.537 722.668C339.585 722.512 339.639 722.332 339.699 722.128C339.807 721.732 339.957 721.234 340.149 720.634C340.353 720.034 340.569 719.386 340.797 718.69C341.037 717.982 341.277 717.286 341.517 716.602C341.769 715.918 341.997 715.288 342.201 714.712C342.417 714.136 342.591 713.686 342.723 713.362C342.891 713.254 343.155 713.158 343.515 713.074C343.887 712.978 344.253 712.93 344.613 712.93C345.129 712.93 345.591 713.008 345.999 713.164C346.407 713.308 346.665 713.542 346.773 713.866C347.001 714.502 347.247 715.24 347.511 716.08C347.787 716.908 348.063 717.778 348.339 718.69C348.615 719.602 348.879 720.49 349.131 721.354C349.395 722.206 349.623 722.974 349.815 723.658C349.683 723.802 349.491 723.922 349.239 724.018C348.987 724.126 348.687 724.18 348.339 724.18C347.847 724.18 347.499 724.09 347.295 723.91C347.091 723.73 346.935 723.46 346.827 723.1L346.251 721.084L345.945 719.554C345.801 719.014 345.651 718.492 345.495 717.988C345.339 717.484 345.195 717.01 345.063 716.566C344.931 716.11 344.811 715.708 344.703 715.36ZM341.661 721.57L342.723 719.446H346.935L347.295 721.57H341.661ZM357.556 723.694C357.412 723.814 357.184 723.922 356.872 724.018C356.56 724.114 356.218 724.162 355.846 724.162C355.426 724.162 355.054 724.096 354.73 723.964C354.406 723.832 354.19 723.652 354.082 723.424C353.902 723.076 353.692 722.62 353.452 722.056C353.224 721.48 352.972 720.838 352.696 720.13C352.432 719.41 352.162 718.672 351.886 717.916C351.622 717.148 351.376 716.392 351.148 715.648C350.92 714.904 350.722 714.226 350.554 713.614C350.698 713.47 350.908 713.338 351.184 713.218C351.46 713.086 351.76 713.02 352.084 713.02C352.48 713.02 352.798 713.104 353.038 713.272C353.278 713.44 353.452 713.74 353.56 714.172C353.932 715.444 354.304 716.668 354.676 717.844C355.048 719.008 355.444 720.208 355.864 721.444H355.954C356.206 720.664 356.458 719.824 356.71 718.924C356.974 718.024 357.232 717.1 357.484 716.152C357.748 715.192 357.994 714.25 358.222 713.326C358.402 713.242 358.6 713.17 358.816 713.11C359.032 713.05 359.266 713.02 359.518 713.02C359.914 713.02 360.244 713.11 360.508 713.29C360.784 713.458 360.922 713.74 360.922 714.136C360.922 714.376 360.856 714.748 360.724 715.252C360.604 715.744 360.436 716.32 360.22 716.98C360.016 717.628 359.788 718.3 359.536 718.996C359.296 719.68 359.05 720.34 358.798 720.976C358.546 721.612 358.306 722.17 358.078 722.65C357.862 723.13 357.688 723.478 357.556 723.694ZM367.219 715.36H367.111C366.991 715.744 366.847 716.17 366.679 716.638C366.523 717.106 366.361 717.598 366.193 718.114C366.025 718.618 365.863 719.122 365.707 719.626L365.383 721.246C365.311 721.474 365.239 721.714 365.167 721.966C365.107 722.218 365.041 722.464 364.969 722.704C364.897 722.944 364.831 723.172 364.771 723.388C364.711 723.604 364.651 723.808 364.591 724C364.459 724.036 364.309 724.072 364.141 724.108C363.973 724.156 363.775 724.18 363.547 724.18C363.043 724.18 362.659 724.09 362.395 723.91C362.131 723.73 361.999 723.466 361.999 723.118C361.999 722.974 362.017 722.824 362.053 722.668C362.101 722.512 362.155 722.332 362.215 722.128C362.323 721.732 362.473 721.234 362.665 720.634C362.869 720.034 363.085 719.386 363.313 718.69C363.553 717.982 363.793 717.286 364.033 716.602C364.285 715.918 364.513 715.288 364.717 714.712C364.933 714.136 365.107 713.686 365.239 713.362C365.407 713.254 365.671 713.158 366.031 713.074C366.403 712.978 366.769 712.93 367.129 712.93C367.645 712.93 368.107 713.008 368.515 713.164C368.923 713.308 369.181 713.542 369.289 713.866C369.517 714.502 369.763 715.24 370.027 716.08C370.303 716.908 370.579 717.778 370.855 718.69C371.131 719.602 371.395 720.49 371.647 721.354C371.911 722.206 372.139 722.974 372.331 723.658C372.199 723.802 372.007 723.922 371.755 724.018C371.503 724.126 371.203 724.18 370.855 724.18C370.363 724.18 370.015 724.09 369.811 723.91C369.607 723.73 369.451 723.46 369.343 723.1L368.767 721.084L368.461 719.554C368.317 719.014 368.167 718.492 368.011 717.988C367.855 717.484 367.711 717.01 367.579 716.566C367.447 716.11 367.327 715.708 367.219 715.36ZM364.177 721.57L365.239 719.446H369.451L369.811 721.57H364.177ZM377.967 722.074C378.615 722.074 379.077 721.96 379.353 721.732C379.641 721.492 379.785 721.21 379.785 720.886C379.785 720.586 379.671 720.346 379.443 720.166C379.227 719.974 378.903 719.812 378.471 719.68L377.517 719.374C376.869 719.158 376.293 718.918 375.789 718.654C375.297 718.39 374.913 718.048 374.637 717.628C374.373 717.208 374.241 716.674 374.241 716.026C374.241 715.03 374.619 714.238 375.375 713.65C376.131 713.062 377.181 712.768 378.525 712.768C379.209 712.768 379.815 712.834 380.343 712.966C380.883 713.098 381.303 713.296 381.603 713.56C381.915 713.812 382.071 714.124 382.071 714.496C382.071 714.772 382.005 715.012 381.873 715.216C381.753 715.408 381.597 715.576 381.405 715.72C381.129 715.528 380.763 715.366 380.307 715.234C379.851 715.09 379.347 715.018 378.795 715.018C378.219 715.018 377.787 715.114 377.499 715.306C377.211 715.486 377.067 715.726 377.067 716.026C377.067 716.266 377.163 716.464 377.355 716.62C377.547 716.764 377.835 716.896 378.219 717.016L379.209 717.322C380.301 717.658 381.141 718.108 381.729 718.672C382.317 719.224 382.611 719.968 382.611 720.904C382.611 721.912 382.221 722.734 381.441 723.37C380.661 723.994 379.533 724.306 378.057 724.306C377.325 724.306 376.671 724.228 376.095 724.072C375.519 723.916 375.057 723.688 374.709 723.388C374.373 723.088 374.205 722.74 374.205 722.344C374.205 722.032 374.295 721.768 374.475 721.552C374.667 721.324 374.877 721.156 375.105 721.048C375.429 721.312 375.831 721.552 376.311 721.768C376.803 721.972 377.355 722.074 377.967 722.074ZM393.732 714.568C393.732 714.844 393.66 715.084 393.516 715.288C393.372 715.492 393.21 715.654 393.03 715.774C392.73 715.57 392.388 715.39 392.004 715.234C391.632 715.078 391.188 715 390.672 715C390.036 715 389.484 715.138 389.016 715.414C388.548 715.69 388.188 716.092 387.936 716.62C387.696 717.148 387.576 717.79 387.576 718.546C387.576 719.698 387.864 720.574 388.44 721.174C389.016 721.774 389.808 722.074 390.816 722.074C391.332 722.074 391.776 722.002 392.148 721.858C392.52 721.714 392.862 721.552 393.174 721.372C393.354 721.504 393.498 721.678 393.606 721.894C393.726 722.098 393.786 722.338 393.786 722.614C393.786 722.854 393.72 723.076 393.588 723.28C393.468 723.484 393.258 723.658 392.958 723.802C392.73 723.922 392.406 724.036 391.986 724.144C391.566 724.252 391.056 724.306 390.456 724.306C389.4 724.306 388.434 724.102 387.558 723.694C386.694 723.274 386.01 722.644 385.506 721.804C385.002 720.952 384.75 719.866 384.75 718.546C384.75 717.298 384.996 716.248 385.488 715.396C385.992 714.532 386.664 713.878 387.504 713.434C388.344 712.99 389.274 712.768 390.294 712.768C391.002 712.768 391.614 712.852 392.13 713.02C392.646 713.176 393.042 713.392 393.318 713.668C393.594 713.932 393.732 714.232 393.732 714.568ZM399.099 718.204H400.269C400.869 718.204 401.349 718.072 401.709 717.808C402.081 717.532 402.267 717.13 402.267 716.602C402.267 716.086 402.093 715.696 401.745 715.432C401.397 715.156 400.863 715.018 400.143 715.018C399.939 715.018 399.753 715.024 399.585 715.036C399.417 715.048 399.255 715.072 399.099 715.108V718.204ZM400.521 720.328H396.381V714.046C396.381 713.818 396.447 713.638 396.579 713.506C396.711 713.374 396.885 713.272 397.101 713.2C397.497 713.056 397.959 712.954 398.487 712.894C399.027 712.834 399.585 712.804 400.161 712.804C401.781 712.804 402.999 713.146 403.815 713.83C404.631 714.502 405.039 715.42 405.039 716.584C405.039 717.304 404.841 717.952 404.445 718.528C404.061 719.092 403.527 719.536 402.843 719.86C402.171 720.172 401.397 720.328 400.521 720.328ZM400.017 719.68L402.465 719.104C402.741 719.488 403.023 719.866 403.311 720.238C403.611 720.61 403.893 720.97 404.157 721.318C404.433 721.666 404.679 721.99 404.895 722.29C405.111 722.578 405.285 722.824 405.417 723.028C405.309 723.388 405.117 723.67 404.841 723.874C404.565 724.066 404.253 724.162 403.905 724.162C403.461 724.162 403.119 724.066 402.879 723.874C402.651 723.67 402.435 723.406 402.231 723.082L400.017 719.68ZM396.381 719.302H399.117V723.982C399.009 724.018 398.835 724.048 398.595 724.072C398.355 724.108 398.109 724.126 397.857 724.126C397.317 724.126 396.933 724.03 396.705 723.838C396.489 723.646 396.381 723.31 396.381 722.83V719.302ZM407.964 716.386H410.7V723.982C410.592 724.018 410.418 724.048 410.178 724.072C409.938 724.108 409.692 724.126 409.44 724.126C408.9 724.126 408.516 724.03 408.288 723.838C408.072 723.646 407.964 723.31 407.964 722.83V716.386ZM410.7 719.842H407.964V713.056C408.084 713.032 408.264 713.002 408.504 712.966C408.756 712.93 409.002 712.912 409.242 712.912C409.758 712.912 410.13 713.002 410.358 713.182C410.586 713.362 410.7 713.704 410.7 714.208V719.842ZM413.993 720.49V714.046C413.993 713.818 414.059 713.638 414.191 713.506C414.323 713.374 414.497 713.272 414.713 713.2C415.109 713.056 415.583 712.954 416.135 712.894C416.687 712.834 417.185 712.804 417.629 712.804C419.249 712.804 420.473 713.152 421.301 713.848C422.141 714.532 422.561 715.468 422.561 716.656C422.561 717.424 422.375 718.096 422.003 718.672C421.643 719.248 421.121 719.698 420.437 720.022C419.753 720.334 418.931 720.49 417.971 720.49H413.993ZM415.469 724.126C414.929 724.126 414.545 724.03 414.317 723.838C414.101 723.646 413.993 723.31 413.993 722.83V719.284H416.729V723.982C416.621 724.018 416.447 724.048 416.207 724.072C415.967 724.108 415.721 724.126 415.469 724.126ZM416.711 718.33H417.791C418.403 718.33 418.883 718.186 419.231 717.898C419.591 717.61 419.771 717.196 419.771 716.656C419.771 716.116 419.603 715.708 419.267 715.432C418.931 715.156 418.445 715.018 417.809 715.018C417.593 715.018 417.395 715.024 417.215 715.036C417.047 715.048 416.879 715.066 416.711 715.09V718.33ZM427.53 715.288L427.512 713.092H433.074C433.146 713.2 433.212 713.35 433.272 713.542C433.332 713.734 433.362 713.938 433.362 714.154C433.362 714.538 433.272 714.826 433.092 715.018C432.924 715.198 432.69 715.288 432.39 715.288H427.53ZM430.068 713.092L430.086 715.288H424.524C424.44 715.18 424.368 715.03 424.308 714.838C424.26 714.646 424.236 714.442 424.236 714.226C424.236 713.83 424.32 713.542 424.488 713.362C424.668 713.182 424.902 713.092 425.19 713.092H430.068ZM427.386 714.802H430.14V723.982C430.02 724.018 429.84 724.048 429.6 724.072C429.36 724.108 429.114 724.126 428.862 724.126C428.322 724.126 427.938 724.03 427.71 723.838C427.494 723.646 427.386 723.31 427.386 722.83V714.802Z" fill="#F7F9FB"/>
<path d="M530.388 718.546C530.388 719.698 530.1 720.568 529.524 721.156C528.96 721.744 528.204 722.038 527.256 722.038C527.052 722.038 526.836 722.032 526.608 722.02C526.38 721.996 526.176 721.966 525.996 721.93V715.108C526.2 715.084 526.398 715.066 526.59 715.054C526.794 715.03 527.004 715.018 527.22 715.018C527.844 715.018 528.39 715.15 528.858 715.414C529.338 715.666 529.71 716.05 529.974 716.566C530.25 717.082 530.388 717.742 530.388 718.546ZM533.214 718.492C533.214 717.208 532.956 716.146 532.44 715.306C531.924 714.466 531.204 713.842 530.28 713.434C529.368 713.014 528.294 712.804 527.058 712.804C526.602 712.804 526.098 712.828 525.546 712.876C524.994 712.924 524.478 713.026 523.998 713.182C523.782 713.266 523.608 713.374 523.476 713.506C523.344 713.626 523.278 713.806 523.278 714.046V722.65C523.278 723.226 523.59 723.628 524.214 723.856C524.682 724.024 525.204 724.132 525.78 724.18C526.356 724.24 526.842 724.27 527.238 724.27C528.438 724.27 529.482 724.06 530.37 723.64C531.27 723.208 531.966 722.566 532.458 721.714C532.962 720.862 533.214 719.788 533.214 718.492ZM546.536 718.528C546.536 719.776 546.29 720.832 545.798 721.696C545.318 722.548 544.652 723.196 543.8 723.64C542.96 724.084 542.006 724.306 540.938 724.306C539.87 724.306 538.916 724.084 538.076 723.64C537.236 723.196 536.576 722.548 536.096 721.696C535.616 720.832 535.376 719.776 535.376 718.528C535.376 717.28 535.622 716.23 536.114 715.378C536.606 714.514 537.272 713.866 538.112 713.434C538.952 712.99 539.894 712.768 540.938 712.768C541.994 712.768 542.942 712.99 543.782 713.434C544.634 713.866 545.306 714.514 545.798 715.378C546.29 716.23 546.536 717.28 546.536 718.528ZM543.71 718.528C543.71 717.376 543.458 716.5 542.954 715.9C542.462 715.3 541.79 715 540.938 715C540.122 715 539.462 715.3 538.958 715.9C538.454 716.488 538.202 717.364 538.202 718.528C538.202 719.704 538.448 720.592 538.94 721.192C539.444 721.78 540.116 722.074 540.956 722.074C541.796 722.074 542.462 721.78 542.954 721.192C543.458 720.592 543.71 719.704 543.71 718.528ZM557.681 714.568C557.681 714.844 557.609 715.084 557.465 715.288C557.321 715.492 557.159 715.654 556.979 715.774C556.679 715.57 556.337 715.39 555.953 715.234C555.581 715.078 555.137 715 554.621 715C553.985 715 553.433 715.138 552.965 715.414C552.497 715.69 552.137 716.092 551.885 716.62C551.645 717.148 551.525 717.79 551.525 718.546C551.525 719.698 551.813 720.574 552.389 721.174C552.965 721.774 553.757 722.074 554.765 722.074C555.281 722.074 555.725 722.002 556.097 721.858C556.469 721.714 556.811 721.552 557.123 721.372C557.303 721.504 557.447 721.678 557.555 721.894C557.675 722.098 557.735 722.338 557.735 722.614C557.735 722.854 557.669 723.076 557.537 723.28C557.417 723.484 557.207 723.658 556.907 723.802C556.679 723.922 556.355 724.036 555.935 724.144C555.515 724.252 555.005 724.306 554.405 724.306C553.349 724.306 552.383 724.102 551.507 723.694C550.643 723.274 549.959 722.644 549.455 721.804C548.951 720.952 548.699 719.866 548.699 718.546C548.699 717.298 548.945 716.248 549.437 715.396C549.941 714.532 550.613 713.878 551.453 713.434C552.293 712.99 553.223 712.768 554.243 712.768C554.951 712.768 555.563 712.852 556.079 713.02C556.595 713.176 556.991 713.392 557.267 713.668C557.543 713.932 557.681 714.232 557.681 714.568ZM561.825 718.204L564.885 717.844C565.893 718.912 566.793 719.866 567.585 720.706C568.377 721.546 569.019 722.218 569.511 722.722C569.511 723.178 569.361 723.538 569.061 723.802C568.761 724.054 568.413 724.18 568.017 724.18C567.585 724.18 567.231 724.072 566.955 723.856C566.679 723.64 566.415 723.388 566.163 723.1L561.825 718.204ZM564.957 719.158L561.465 719.32L567.117 712.984C567.801 712.984 568.299 713.122 568.611 713.398C568.923 713.662 569.079 713.974 569.079 714.334C569.079 714.61 569.007 714.874 568.863 715.126C568.731 715.366 568.509 715.63 568.197 715.918L564.957 719.158ZM560.331 716.368H563.067V723.982C562.959 724.018 562.785 724.054 562.545 724.09C562.305 724.126 562.059 724.144 561.807 724.144C561.267 724.144 560.883 724.048 560.655 723.856C560.439 723.652 560.331 723.316 560.331 722.848V716.368ZM563.067 719.824H560.331V713.056C560.451 713.032 560.631 713.002 560.871 712.966C561.123 712.93 561.363 712.912 561.591 712.912C562.119 712.912 562.497 713.002 562.725 713.182C562.953 713.362 563.067 713.704 563.067 714.208V719.824ZM571.896 716.368H574.56V723.892C574.452 723.916 574.284 723.946 574.056 723.982C573.84 724.018 573.606 724.036 573.354 724.036C572.91 724.036 572.556 723.904 572.292 723.64C572.028 723.376 571.896 723.022 571.896 722.578V716.368ZM574.56 720.724H571.896V714.55C571.896 714.094 572.028 713.74 572.292 713.488C572.556 713.224 572.91 713.092 573.354 713.092C573.606 713.092 573.84 713.11 574.056 713.146C574.284 713.182 574.452 713.212 574.56 713.236V720.724ZM573.354 719.518V717.358H578.79C578.862 717.478 578.928 717.628 578.988 717.808C579.048 717.988 579.078 718.186 579.078 718.402C579.078 718.786 578.988 719.068 578.808 719.248C578.64 719.428 578.412 719.518 578.124 719.518H573.354ZM573.354 724.036V721.858H579.384C579.456 721.966 579.522 722.116 579.582 722.308C579.642 722.5 579.672 722.704 579.672 722.92C579.672 723.304 579.582 723.586 579.402 723.766C579.234 723.946 579.006 724.036 578.718 724.036H573.354ZM573.354 715.252V713.092H579.294C579.378 713.2 579.444 713.344 579.492 713.524C579.552 713.704 579.582 713.902 579.582 714.118C579.582 714.502 579.498 714.79 579.33 714.982C579.162 715.162 578.928 715.252 578.628 715.252H573.354ZM585.125 718.204H586.295C586.895 718.204 587.375 718.072 587.735 717.808C588.107 717.532 588.293 717.13 588.293 716.602C588.293 716.086 588.119 715.696 587.771 715.432C587.423 715.156 586.889 715.018 586.169 715.018C585.965 715.018 585.779 715.024 585.611 715.036C585.443 715.048 585.281 715.072 585.125 715.108V718.204ZM586.547 720.328H582.407V714.046C582.407 713.818 582.473 713.638 582.605 713.506C582.737 713.374 582.911 713.272 583.127 713.2C583.523 713.056 583.985 712.954 584.513 712.894C585.053 712.834 585.611 712.804 586.187 712.804C587.807 712.804 589.025 713.146 589.841 713.83C590.657 714.502 591.065 715.42 591.065 716.584C591.065 717.304 590.867 717.952 590.471 718.528C590.087 719.092 589.553 719.536 588.869 719.86C588.197 720.172 587.423 720.328 586.547 720.328ZM586.043 719.68L588.491 719.104C588.767 719.488 589.049 719.866 589.337 720.238C589.637 720.61 589.919 720.97 590.183 721.318C590.459 721.666 590.705 721.99 590.921 722.29C591.137 722.578 591.311 722.824 591.443 723.028C591.335 723.388 591.143 723.67 590.867 723.874C590.591 724.066 590.279 724.162 589.931 724.162C589.487 724.162 589.145 724.066 588.905 723.874C588.677 723.67 588.461 723.406 588.257 723.082L586.043 719.68ZM582.407 719.302H585.143V723.982C585.035 724.018 584.861 724.048 584.621 724.072C584.381 724.108 584.135 724.126 583.883 724.126C583.343 724.126 582.959 724.03 582.731 723.838C582.515 723.646 582.407 723.31 582.407 722.83V719.302Z" fill="#F7F9FB"/>
<path d="M375.702 260.568C375.702 260.844 375.63 261.084 375.486 261.288C375.342 261.492 375.18 261.654 375 261.774C374.7 261.57 374.358 261.39 373.974 261.234C373.602 261.078 373.158 261 372.642 261C372.006 261 371.454 261.138 370.986 261.414C370.518 261.69 370.158 262.092 369.906 262.62C369.666 263.148 369.546 263.79 369.546 264.546C369.546 265.698 369.834 266.574 370.41 267.174C370.986 267.774 371.778 268.074 372.786 268.074C373.302 268.074 373.746 268.002 374.118 267.858C374.49 267.714 374.832 267.552 375.144 267.372C375.324 267.504 375.468 267.678 375.576 267.894C375.696 268.098 375.756 268.338 375.756 268.614C375.756 268.854 375.69 269.076 375.558 269.28C375.438 269.484 375.228 269.658 374.928 269.802C374.7 269.922 374.376 270.036 373.956 270.144C373.536 270.252 373.026 270.306 372.426 270.306C371.37 270.306 370.404 270.102 369.528 269.694C368.664 269.274 367.98 268.644 367.476 267.804C366.972 266.952 366.72 265.866 366.72 264.546C366.72 263.298 366.966 262.248 367.458 261.396C367.962 260.532 368.634 259.878 369.474 259.434C370.314 258.99 371.244 258.768 372.264 258.768C372.972 258.768 373.584 258.852 374.1 259.02C374.616 259.176 375.012 259.392 375.288 259.668C375.564 259.932 375.702 260.232 375.702 260.568ZM381.61 268.074C382.258 268.074 382.72 267.96 382.996 267.732C383.284 267.492 383.428 267.21 383.428 266.886C383.428 266.586 383.314 266.346 383.086 266.166C382.87 265.974 382.546 265.812 382.114 265.68L381.16 265.374C380.512 265.158 379.936 264.918 379.432 264.654C378.94 264.39 378.556 264.048 378.28 263.628C378.016 263.208 377.884 262.674 377.884 262.026C377.884 261.03 378.262 260.238 379.018 259.65C379.774 259.062 380.824 258.768 382.168 258.768C382.852 258.768 383.458 258.834 383.986 258.966C384.526 259.098 384.946 259.296 385.246 259.56C385.558 259.812 385.714 260.124 385.714 260.496C385.714 260.772 385.648 261.012 385.516 261.216C385.396 261.408 385.24 261.576 385.048 261.72C384.772 261.528 384.406 261.366 383.95 261.234C383.494 261.09 382.99 261.018 382.438 261.018C381.862 261.018 381.43 261.114 381.142 261.306C380.854 261.486 380.71 261.726 380.71 262.026C380.71 262.266 380.806 262.464 380.998 262.62C381.19 262.764 381.478 262.896 381.862 263.016L382.852 263.322C383.944 263.658 384.784 264.108 385.372 264.672C385.96 265.224 386.254 265.968 386.254 266.904C386.254 267.912 385.864 268.734 385.084 269.37C384.304 269.994 383.176 270.306 381.7 270.306C380.968 270.306 380.314 270.228 379.738 270.072C379.162 269.916 378.7 269.688 378.352 269.388C378.016 269.088 377.848 268.74 377.848 268.344C377.848 268.032 377.938 267.768 378.118 267.552C378.31 267.324 378.52 267.156 378.748 267.048C379.072 267.312 379.474 267.552 379.954 267.768C380.446 267.972 380.998 268.074 381.61 268.074ZM392.121 268.074C392.769 268.074 393.231 267.96 393.507 267.732C393.795 267.492 393.939 267.21 393.939 266.886C393.939 266.586 393.825 266.346 393.597 266.166C393.381 265.974 393.057 265.812 392.625 265.68L391.671 265.374C391.023 265.158 390.447 264.918 389.943 264.654C389.451 264.39 389.067 264.048 388.791 263.628C388.527 263.208 388.395 262.674 388.395 262.026C388.395 261.03 388.773 260.238 389.529 259.65C390.285 259.062 391.335 258.768 392.679 258.768C393.363 258.768 393.969 258.834 394.497 258.966C395.037 259.098 395.457 259.296 395.757 259.56C396.069 259.812 396.225 260.124 396.225 260.496C396.225 260.772 396.159 261.012 396.027 261.216C395.907 261.408 395.751 261.576 395.559 261.72C395.283 261.528 394.917 261.366 394.461 261.234C394.005 261.09 393.501 261.018 392.949 261.018C392.373 261.018 391.941 261.114 391.653 261.306C391.365 261.486 391.221 261.726 391.221 262.026C391.221 262.266 391.317 262.464 391.509 262.62C391.701 262.764 391.989 262.896 392.373 263.016L393.363 263.322C394.455 263.658 395.295 264.108 395.883 264.672C396.471 265.224 396.765 265.968 396.765 266.904C396.765 267.912 396.375 268.734 395.595 269.37C394.815 269.994 393.687 270.306 392.211 270.306C391.479 270.306 390.825 270.228 390.249 270.072C389.673 269.916 389.211 269.688 388.863 269.388C388.527 269.088 388.359 268.74 388.359 268.344C388.359 268.032 388.449 267.768 388.629 267.552C388.821 267.324 389.031 267.156 389.259 267.048C389.583 267.312 389.985 267.552 390.465 267.768C390.957 267.972 391.509 268.074 392.121 268.074Z" fill="#F7F9FB"/>
<path d="M220 303.328C246.781 303.328 267.375 314.609 267.375 327C267.375 339.391 246.766 350.672 220 350.672C193.219 350.672 172.625 339.391 172.625 327C172.625 314.609 193.234 303.328 220 303.328ZM220 300.703C192.391 300.703 170 312.469 170 327C170 341.531 192.391 353.297 220 353.297C247.609 353.297 270 341.531 270 327C270 312.469 247.609 300.703 220 300.703ZM204.094 324.891C202.859 331.219 198.5 330.562 193.141 330.562L195.281 319.531C201.219 319.531 205.25 318.891 204.094 324.891ZM185.219 341.734H190.953L192.313 334.734C198.734 334.734 202.719 335.203 206.406 331.75C210.484 328 211.547 321.328 208.641 317.984C207.125 316.234 204.688 315.375 201.375 315.375H190.328L185.219 341.734ZM214.234 308.359H219.938L218.578 315.359C223.5 315.359 228.063 315 230.266 317.031C232.578 319.156 231.469 321.875 228.969 334.703H223.187C225.594 322.297 226.047 321.266 225.172 320.328C224.328 319.422 222.406 319.609 217.766 319.609L214.828 334.703H209.125L214.234 308.359V308.359ZM248.906 324.891C247.656 331.313 243.172 330.562 237.953 330.562L240.094 319.531C246.063 319.531 250.063 318.891 248.906 324.891V324.891ZM230.031 341.734H235.781L237.141 334.734C243.891 334.734 247.625 335.125 251.234 331.75C255.313 328 256.375 321.328 253.469 317.984C251.953 316.234 249.516 315.375 246.203 315.375H235.156L230.031 341.734V341.734Z" fill="#F5DF4D"/>
<path d="M204.278 290.49V284.046C204.278 283.818 204.344 283.638 204.476 283.506C204.608 283.374 204.782 283.272 204.998 283.2C205.394 283.056 205.868 282.954 206.42 282.894C206.972 282.834 207.47 282.804 207.914 282.804C209.534 282.804 210.758 283.152 211.586 283.848C212.426 284.532 212.846 285.468 212.846 286.656C212.846 287.424 212.66 288.096 212.288 288.672C211.928 289.248 211.406 289.698 210.722 290.022C210.038 290.334 209.216 290.49 208.256 290.49H204.278ZM205.754 294.126C205.214 294.126 204.83 294.03 204.602 293.838C204.386 293.646 204.278 293.31 204.278 292.83V289.284H207.014V293.982C206.906 294.018 206.732 294.048 206.492 294.072C206.252 294.108 206.006 294.126 205.754 294.126ZM206.996 288.33H208.076C208.688 288.33 209.168 288.186 209.516 287.898C209.876 287.61 210.056 287.196 210.056 286.656C210.056 286.116 209.888 285.708 209.552 285.432C209.216 285.156 208.73 285.018 208.094 285.018C207.878 285.018 207.68 285.024 207.5 285.036C207.332 285.048 207.164 285.066 206.996 285.09V288.33ZM215.404 286.386H218.14V293.982C218.032 294.018 217.858 294.048 217.618 294.072C217.378 294.108 217.132 294.126 216.88 294.126C216.34 294.126 215.956 294.03 215.728 293.838C215.512 293.646 215.404 293.31 215.404 292.83V286.386ZM218.14 289.842H215.404V283.056C215.524 283.032 215.704 283.002 215.944 282.966C216.196 282.93 216.436 282.912 216.664 282.912C217.192 282.912 217.57 283.002 217.798 283.182C218.026 283.362 218.14 283.704 218.14 284.208V289.842ZM222.118 286.386H224.872V293.982C224.752 294.018 224.572 294.048 224.332 294.072C224.092 294.108 223.846 294.126 223.594 294.126C223.054 294.126 222.67 294.03 222.442 293.838C222.226 293.646 222.118 293.31 222.118 292.83V286.386ZM224.872 289.842H222.118V283.056C222.25 283.032 222.436 283.002 222.676 282.966C222.916 282.93 223.156 282.912 223.396 282.912C223.912 282.912 224.284 283.008 224.512 283.2C224.752 283.38 224.872 283.722 224.872 284.226V289.842ZM223.684 289.608H216.646V287.43H223.684V289.608ZM228.148 290.49V284.046C228.148 283.818 228.214 283.638 228.346 283.506C228.478 283.374 228.652 283.272 228.868 283.2C229.264 283.056 229.738 282.954 230.29 282.894C230.842 282.834 231.34 282.804 231.784 282.804C233.404 282.804 234.628 283.152 235.456 283.848C236.296 284.532 236.716 285.468 236.716 286.656C236.716 287.424 236.53 288.096 236.158 288.672C235.798 289.248 235.276 289.698 234.592 290.022C233.908 290.334 233.086 290.49 232.126 290.49H228.148ZM229.624 294.126C229.084 294.126 228.7 294.03 228.472 293.838C228.256 293.646 228.148 293.31 228.148 292.83V289.284H230.884V293.982C230.776 294.018 230.602 294.048 230.362 294.072C230.122 294.108 229.876 294.126 229.624 294.126ZM230.866 288.33H231.946C232.558 288.33 233.038 288.186 233.386 287.898C233.746 287.61 233.926 287.196 233.926 286.656C233.926 286.116 233.758 285.708 233.422 285.432C233.086 285.156 232.6 285.018 231.964 285.018C231.748 285.018 231.55 285.024 231.37 285.036C231.202 285.048 231.034 285.066 230.866 285.09V288.33Z" fill="#F7F9FB"/>
<g clip-path="url(#clip0_49_73)">
<path d="M561.672 654.922H551.344V645.641H561.672V654.922ZM561.672 623H551.344V632.484H561.672V623ZM573.891 645.625H563.563V654.906H573.891V645.625V645.625ZM549.469 634.359H539.141V643.75H549.469V634.359ZM561.672 634.359H551.344V643.75H561.672V634.359ZM604.922 649.984C602.672 648.469 597.484 647.922 593.5 648.672C592.984 644.922 590.891 641.656 587.078 638.719L584.891 637.266L583.438 639.453C580.563 643.797 579.781 650.953 582.859 655.672C581.5 656.406 578.828 657.406 575.297 657.344H507.375C506.016 665.281 508.281 675.594 514.25 682.672C520.047 689.531 528.734 693.016 540.094 693.016C564.688 693.016 582.891 681.687 591.406 661.109C594.75 661.172 601.969 661.125 605.672 654.047C605.906 653.656 606.703 651.984 607 651.375L604.922 649.984V649.984ZM525.063 645.625H514.75V654.906H525.078V645.625H525.063ZM537.266 645.625H526.938V654.906H537.266V645.625ZM549.469 645.625H539.141V654.906H549.469V645.625ZM537.266 634.359H526.938V643.75H537.266V634.359Z" fill="#F5DF4D"/>
</g>
<path d="M520.67 426.36H520.562C520.442 426.744 520.298 427.17 520.13 427.638C519.974 428.106 519.812 428.598 519.644 429.114C519.476 429.618 519.314 430.122 519.158 430.626L518.834 432.246C518.762 432.474 518.69 432.714 518.618 432.966C518.558 433.218 518.492 433.464 518.42 433.704C518.348 433.944 518.282 434.172 518.222 434.388C518.162 434.604 518.102 434.808 518.042 435C517.91 435.036 517.76 435.072 517.592 435.108C517.424 435.156 517.226 435.18 516.998 435.18C516.494 435.18 516.11 435.09 515.846 434.91C515.582 434.73 515.45 434.466 515.45 434.118C515.45 433.974 515.468 433.824 515.504 433.668C515.552 433.512 515.606 433.332 515.666 433.128C515.774 432.732 515.924 432.234 516.116 431.634C516.32 431.034 516.536 430.386 516.764 429.69C517.004 428.982 517.244 428.286 517.484 427.602C517.736 426.918 517.964 426.288 518.168 425.712C518.384 425.136 518.558 424.686 518.69 424.362C518.858 424.254 519.122 424.158 519.482 424.074C519.854 423.978 520.22 423.93 520.58 423.93C521.096 423.93 521.558 424.008 521.966 424.164C522.374 424.308 522.632 424.542 522.74 424.866C522.968 425.502 523.214 426.24 523.478 427.08C523.754 427.908 524.03 428.778 524.306 429.69C524.582 430.602 524.846 431.49 525.098 432.354C525.362 433.206 525.59 433.974 525.782 434.658C525.65 434.802 525.458 434.922 525.206 435.018C524.954 435.126 524.654 435.18 524.306 435.18C523.814 435.18 523.466 435.09 523.262 434.91C523.058 434.73 522.902 434.46 522.794 434.1L522.218 432.084L521.912 430.554C521.768 430.014 521.618 429.492 521.462 428.988C521.306 428.484 521.162 428.01 521.03 427.566C520.898 427.11 520.778 426.708 520.67 426.36ZM517.628 432.57L518.69 430.446H522.902L523.262 432.57H517.628ZM528.143 427.206L530.627 427.17C530.675 427.686 530.711 428.196 530.735 428.7C530.759 429.204 530.771 429.69 530.771 430.158C530.783 430.626 530.789 431.082 530.789 431.526V435C530.681 435.024 530.507 435.048 530.267 435.072C530.039 435.108 529.805 435.126 529.565 435.126C529.037 435.126 528.665 435.036 528.449 434.856C528.245 434.676 528.143 434.352 528.143 433.884V427.206ZM537.737 431.832L535.235 431.85C535.151 430.974 535.103 430.14 535.091 429.348C535.079 428.556 535.073 427.8 535.073 427.08V424.056C535.193 424.032 535.367 424.002 535.595 423.966C535.823 423.93 536.063 423.912 536.315 423.912C536.831 423.912 537.197 424.008 537.413 424.2C537.629 424.38 537.737 424.698 537.737 425.154V431.832ZM537.737 430.968V429.222V434.658C537.581 434.802 537.359 434.916 537.071 435C536.795 435.096 536.465 435.144 536.081 435.144C535.673 435.144 535.289 435.078 534.929 434.946C534.581 434.814 534.293 434.52 534.065 434.064L531.887 429.924C531.755 429.66 531.623 429.396 531.491 429.132C531.371 428.868 531.251 428.604 531.131 428.34C531.011 428.064 530.891 427.788 530.771 427.512L528.143 428.106V424.56C528.287 424.356 528.509 424.2 528.809 424.092C529.121 423.984 529.457 423.93 529.817 423.93C530.213 423.93 530.585 423.996 530.933 424.128C531.293 424.26 531.587 424.548 531.815 424.992L534.011 429.15C534.143 429.402 534.275 429.666 534.407 429.942C534.539 430.206 534.665 430.47 534.785 430.734C534.905 430.998 535.019 431.268 535.127 431.544L537.737 430.968ZM550.567 429.618V433.362C550.567 433.698 550.501 433.956 550.369 434.136C550.249 434.304 550.045 434.466 549.757 434.622C549.433 434.802 548.965 434.958 548.353 435.09C547.741 435.234 547.129 435.306 546.517 435.306C545.365 435.306 544.327 435.108 543.403 434.712C542.491 434.304 541.765 433.68 541.225 432.84C540.697 431.988 540.433 430.896 540.433 429.564C540.433 428.292 540.703 427.23 541.243 426.378C541.783 425.514 542.509 424.866 543.421 424.434C544.345 423.99 545.365 423.768 546.481 423.768C547.225 423.768 547.867 423.846 548.407 424.002C548.959 424.158 549.379 424.374 549.667 424.65C549.967 424.926 550.117 425.244 550.117 425.604C550.117 425.868 550.045 426.108 549.901 426.324C549.769 426.528 549.607 426.684 549.415 426.792C549.115 426.6 548.737 426.42 548.281 426.252C547.825 426.084 547.291 426 546.679 426C546.019 426 545.425 426.144 544.897 426.432C544.381 426.708 543.979 427.116 543.691 427.656C543.403 428.184 543.259 428.814 543.259 429.546C543.259 430.338 543.397 430.998 543.673 431.526C543.961 432.054 544.351 432.45 544.843 432.714C545.347 432.966 545.917 433.092 546.553 433.092C546.853 433.092 547.123 433.062 547.363 433.002C547.615 432.942 547.807 432.882 547.939 432.822V430.716H545.833C545.761 430.596 545.695 430.446 545.635 430.266C545.575 430.074 545.545 429.87 545.545 429.654C545.545 429.282 545.629 429.012 545.797 428.844C545.977 428.664 546.211 428.574 546.499 428.574H549.523C549.847 428.574 550.099 428.664 550.279 428.844C550.471 429.024 550.567 429.282 550.567 429.618ZM558.221 435.306C557.237 435.306 556.391 435.132 555.683 434.784C554.987 434.424 554.447 433.926 554.063 433.29C553.691 432.654 553.505 431.91 553.505 431.058V429.87H556.259V430.986C556.259 431.646 556.439 432.162 556.799 432.534C557.171 432.894 557.645 433.074 558.221 433.074C558.797 433.074 559.265 432.894 559.625 432.534C559.997 432.162 560.183 431.646 560.183 430.986V429.87H562.937V431.058C562.937 431.91 562.751 432.654 562.379 433.29C562.007 433.926 561.467 434.424 560.759 434.784C560.051 435.132 559.205 435.306 558.221 435.306ZM556.259 430.41H553.505V424.056C553.637 424.032 553.823 424.002 554.063 423.966C554.303 423.93 554.543 423.912 554.783 423.912C555.299 423.912 555.671 424.002 555.899 424.182C556.139 424.362 556.259 424.704 556.259 425.208V430.41ZM562.937 430.446H560.183V424.056C560.315 424.032 560.501 424.002 560.741 423.966C560.993 423.93 561.233 423.912 561.461 423.912C561.977 423.912 562.349 424.002 562.577 424.182C562.817 424.362 562.937 424.704 562.937 425.208V430.446ZM566.162 427.422H568.898V434.892L567.62 435.036C567.176 435.036 566.822 434.904 566.558 434.64C566.294 434.376 566.162 434.022 566.162 433.578V427.422ZM567.62 435.036V432.804H573.272C573.356 432.924 573.428 433.08 573.488 433.272C573.548 433.452 573.578 433.656 573.578 433.884C573.578 434.268 573.494 434.556 573.326 434.748C573.158 434.94 572.924 435.036 572.624 435.036H567.62ZM568.898 430.842H566.162V424.056C566.282 424.032 566.462 424.002 566.702 423.966C566.954 423.93 567.194 423.912 567.422 423.912C567.95 423.912 568.328 424.002 568.556 424.182C568.784 424.362 568.898 424.704 568.898 425.208V430.842ZM580.625 426.36H580.517C580.397 426.744 580.253 427.17 580.085 427.638C579.929 428.106 579.767 428.598 579.599 429.114C579.431 429.618 579.269 430.122 579.113 430.626L578.789 432.246C578.717 432.474 578.645 432.714 578.573 432.966C578.513 433.218 578.447 433.464 578.375 433.704C578.303 433.944 578.237 434.172 578.177 434.388C578.117 434.604 578.057 434.808 577.997 435C577.865 435.036 577.715 435.072 577.547 435.108C577.379 435.156 577.181 435.18 576.953 435.18C576.449 435.18 576.065 435.09 575.801 434.91C575.537 434.73 575.405 434.466 575.405 434.118C575.405 433.974 575.423 433.824 575.459 433.668C575.507 433.512 575.561 433.332 575.621 433.128C575.729 432.732 575.879 432.234 576.071 431.634C576.275 431.034 576.491 430.386 576.719 429.69C576.959 428.982 577.199 428.286 577.439 427.602C577.691 426.918 577.919 426.288 578.123 425.712C578.339 425.136 578.513 424.686 578.645 424.362C578.813 424.254 579.077 424.158 579.437 424.074C579.809 423.978 580.175 423.93 580.535 423.93C581.051 423.93 581.513 424.008 581.921 424.164C582.329 424.308 582.587 424.542 582.695 424.866C582.923 425.502 583.169 426.24 583.433 427.08C583.709 427.908 583.985 428.778 584.261 429.69C584.537 430.602 584.801 431.49 585.053 432.354C585.317 433.206 585.545 433.974 585.737 434.658C585.605 434.802 585.413 434.922 585.161 435.018C584.909 435.126 584.609 435.18 584.261 435.18C583.769 435.18 583.421 435.09 583.217 434.91C583.013 434.73 582.857 434.46 582.749 434.1L582.173 432.084L581.867 430.554C581.723 430.014 581.573 429.492 581.417 428.988C581.261 428.484 581.117 428.01 580.985 427.566C580.853 427.11 580.733 426.708 580.625 426.36ZM577.583 432.57L578.645 430.446H582.857L583.217 432.57H577.583ZM590.816 429.204H591.986C592.586 429.204 593.066 429.072 593.426 428.808C593.798 428.532 593.984 428.13 593.984 427.602C593.984 427.086 593.81 426.696 593.462 426.432C593.114 426.156 592.58 426.018 591.86 426.018C591.656 426.018 591.47 426.024 591.302 426.036C591.134 426.048 590.972 426.072 590.816 426.108V429.204ZM592.238 431.328H588.098V425.046C588.098 424.818 588.164 424.638 588.296 424.506C588.428 424.374 588.602 424.272 588.818 424.2C589.214 424.056 589.676 423.954 590.204 423.894C590.744 423.834 591.302 423.804 591.878 423.804C593.498 423.804 594.716 424.146 595.532 424.83C596.348 425.502 596.756 426.42 596.756 427.584C596.756 428.304 596.558 428.952 596.162 429.528C595.778 430.092 595.244 430.536 594.56 430.86C593.888 431.172 593.114 431.328 592.238 431.328ZM591.734 430.68L594.182 430.104C594.458 430.488 594.74 430.866 595.028 431.238C595.328 431.61 595.61 431.97 595.874 432.318C596.15 432.666 596.396 432.99 596.612 433.29C596.828 433.578 597.002 433.824 597.134 434.028C597.026 434.388 596.834 434.67 596.558 434.874C596.282 435.066 595.97 435.162 595.622 435.162C595.178 435.162 594.836 435.066 594.596 434.874C594.368 434.67 594.152 434.406 593.948 434.082L591.734 430.68ZM588.098 430.302H590.834V434.982C590.726 435.018 590.552 435.048 590.312 435.072C590.072 435.108 589.826 435.126 589.574 435.126C589.034 435.126 588.65 435.03 588.422 434.838C588.206 434.646 588.098 434.31 588.098 433.83V430.302Z" fill="#F7F9FB"/>
<path d="M184.278 430.386H187.014V437.982C186.906 438.018 186.732 438.048 186.492 438.072C186.252 438.108 186.006 438.126 185.754 438.126C185.214 438.126 184.83 438.03 184.602 437.838C184.386 437.646 184.278 437.31 184.278 436.83V430.386ZM187.014 433.842H184.278V427.056C184.398 427.032 184.578 427.002 184.818 426.966C185.07 426.93 185.31 426.912 185.538 426.912C186.066 426.912 186.444 427.002 186.672 427.182C186.9 427.362 187.014 427.704 187.014 428.208V433.842ZM190.992 430.386H193.746V437.982C193.626 438.018 193.446 438.048 193.206 438.072C192.966 438.108 192.72 438.126 192.468 438.126C191.928 438.126 191.544 438.03 191.316 437.838C191.1 437.646 190.992 437.31 190.992 436.83V430.386ZM193.746 433.842H190.992V427.056C191.124 427.032 191.31 427.002 191.55 426.966C191.79 426.93 192.03 426.912 192.27 426.912C192.786 426.912 193.158 427.008 193.386 427.2C193.626 427.38 193.746 427.722 193.746 428.226V433.842ZM192.558 433.608H185.52V431.43H192.558V433.608ZM199.397 429.288L199.379 427.092H204.941C205.013 427.2 205.079 427.35 205.139 427.542C205.199 427.734 205.229 427.938 205.229 428.154C205.229 428.538 205.139 428.826 204.959 429.018C204.791 429.198 204.557 429.288 204.257 429.288H199.397ZM201.935 427.092L201.953 429.288H196.391C196.307 429.18 196.235 429.03 196.175 428.838C196.127 428.646 196.103 428.442 196.103 428.226C196.103 427.83 196.187 427.542 196.355 427.362C196.535 427.182 196.769 427.092 197.057 427.092H201.935ZM199.253 428.802H202.007V437.982C201.887 438.018 201.707 438.048 201.467 438.072C201.227 438.108 200.981 438.126 200.729 438.126C200.189 438.126 199.805 438.03 199.577 437.838C199.361 437.646 199.253 437.31 199.253 436.83V428.802ZM214.487 435.282C214.355 435.39 214.175 435.48 213.947 435.552C213.731 435.624 213.479 435.66 213.191 435.66C212.819 435.66 212.507 435.612 212.255 435.516C212.003 435.42 211.841 435.258 211.769 435.03C211.361 433.89 211.013 432.942 210.725 432.186C210.449 431.43 210.233 430.776 210.077 430.224H209.987C209.951 430.98 209.921 431.67 209.897 432.294C209.873 432.918 209.855 433.53 209.843 434.13C209.831 434.718 209.813 435.318 209.789 435.93C209.765 436.542 209.729 437.214 209.681 437.946C209.549 437.982 209.369 438.024 209.141 438.072C208.925 438.12 208.709 438.144 208.493 438.144C208.037 438.144 207.677 438.066 207.413 437.91C207.161 437.754 207.035 437.484 207.035 437.1C207.035 436.836 207.047 436.446 207.071 435.93C207.107 435.402 207.143 434.802 207.179 434.13C207.227 433.446 207.269 432.726 207.305 431.97C207.353 431.214 207.401 430.47 207.449 429.738C207.509 428.994 207.563 428.31 207.611 427.686C207.707 427.542 207.899 427.398 208.187 427.254C208.475 427.098 208.871 427.02 209.375 427.02C209.915 427.02 210.347 427.11 210.671 427.29C211.007 427.458 211.247 427.74 211.391 428.136C211.571 428.568 211.763 429.072 211.967 429.648C212.171 430.212 212.369 430.788 212.561 431.376C212.765 431.952 212.951 432.474 213.119 432.942H213.209C213.545 431.886 213.887 430.854 214.235 429.846C214.595 428.838 214.901 427.998 215.153 427.326C215.321 427.23 215.531 427.158 215.783 427.11C216.047 427.05 216.323 427.02 216.611 427.02C217.127 427.02 217.541 427.098 217.853 427.254C218.177 427.398 218.369 427.62 218.429 427.92C218.477 428.148 218.525 428.508 218.573 429C218.633 429.492 218.693 430.062 218.753 430.71C218.813 431.346 218.873 432.018 218.933 432.726C218.993 433.422 219.047 434.106 219.095 434.778C219.155 435.438 219.203 436.032 219.239 436.56C219.275 437.088 219.299 437.508 219.311 437.82C219.131 437.928 218.939 438.006 218.735 438.054C218.543 438.114 218.297 438.144 217.997 438.144C217.613 438.144 217.283 438.072 217.007 437.928C216.743 437.784 216.599 437.508 216.575 437.1C216.515 436.164 216.467 435.276 216.431 434.436C216.395 433.584 216.365 432.81 216.341 432.114C216.329 431.406 216.311 430.8 216.287 430.296H216.197C216.041 430.812 215.819 431.466 215.531 432.258C215.255 433.038 214.907 434.046 214.487 435.282ZM222.262 430.422H224.998V437.892L223.72 438.036C223.276 438.036 222.922 437.904 222.658 437.64C222.394 437.376 222.262 437.022 222.262 436.578V430.422ZM223.72 438.036V435.804H229.372C229.456 435.924 229.528 436.08 229.588 436.272C229.648 436.452 229.678 436.656 229.678 436.884C229.678 437.268 229.594 437.556 229.426 437.748C229.258 437.94 229.024 438.036 228.724 438.036H223.72ZM224.998 433.842H222.262V427.056C222.382 427.032 222.562 427.002 222.802 426.966C223.054 426.93 223.294 426.912 223.522 426.912C224.05 426.912 224.428 427.002 224.656 427.182C224.884 427.362 224.998 427.704 224.998 428.208V433.842Z" fill="#F7F9FB"/>
<defs>
<clipPath id="clip0_49_73">
<rect width="100" height="100" fill="white" transform="translate(507 608)"/>
</clipPath>
</defs>
</svg>
