<svg width="1440" height="1024" viewBox="0 0 1440 1024" fill="none" xmlns="http://www.w3.org/2000/svg">
<rect width="1440" height="1024" fill="#040413"/>
<path d="M1058 422C1060.21 422 1062 420.209 1062 418C1062 415.791 1060.21 414 1058 414C1055.79 414 1054 415.791 1054 418C1054 420.209 1055.79 422 1058 422ZM1058 382C1060.21 382 1062 380.209 1062 378C1062 375.791 1060.21 374 1058 374C1055.79 374 1054 375.791 1054 378C1054 380.209 1055.79 382 1058 382ZM1058.75 418V378H1057.25V418H1058.75Z" fill="#F5DF4D"/>
<path d="M1058 595C1060.21 595 1062 593.209 1062 591C1062 588.791 1060.21 587 1058 587C1055.79 587 1054 588.791 1054 591C1054 593.209 1055.79 595 1058 595ZM1058 555C1060.21 555 1062 553.209 1062 551C1062 548.791 1060.21 547 1058 547C1055.79 547 1054 548.791 1054 551C1054 553.209 1055.79 555 1058 555ZM1058.75 591V551H1057.25V591H1058.75Z" fill="#F5DF4D"/>
<path d="M989.5 489C989.5 486.791 987.709 485 985.5 485C983.291 485 981.5 486.791 981.5 489C981.5 491.209 983.291 493 985.5 493C987.709 493 989.5 491.209 989.5 489ZM949.5 489C949.5 486.791 947.709 485 945.5 485C943.291 485 941.5 486.791 941.5 489C941.5 491.209 943.291 493 945.5 493C947.709 493 949.5 491.209 949.5 489ZM985.5 488.25H945.5V489.75H985.5V488.25Z" fill="#F5DF4D"/>
<path d="M984.064 413.31C985.484 411.618 985.263 409.095 983.571 407.675C981.878 406.255 979.355 406.475 977.935 408.168C976.515 409.86 976.736 412.383 978.428 413.803C980.121 415.223 982.644 415.002 984.064 413.31ZM953.422 387.598C954.842 385.906 954.621 383.383 952.929 381.963C951.237 380.543 948.714 380.764 947.294 382.456C945.874 384.148 946.094 386.671 947.787 388.091C949.479 389.511 952.002 389.291 953.422 387.598ZM981.482 410.164L950.84 384.453L949.876 385.602L980.517 411.313L981.482 410.164Z" fill="#F5DF4D"/>
<path d="M1171.61 582.139C1173.31 580.719 1173.53 578.196 1172.11 576.504C1170.69 574.812 1168.16 574.591 1166.47 576.011C1164.78 577.431 1164.56 579.954 1165.98 581.646C1167.4 583.339 1169.92 583.56 1171.61 582.139ZM1145.9 551.498C1147.6 550.078 1147.82 547.555 1146.4 545.862C1144.98 544.17 1142.45 543.949 1140.76 545.369C1139.07 546.789 1138.85 549.312 1140.27 551.005C1141.69 552.697 1144.21 552.918 1145.9 551.498ZM1169.62 578.593L1143.91 547.951L1142.76 548.916L1168.47 579.557L1169.62 578.593Z" fill="#F5DF4D"/>
<path d="M1177 479C1177 476.791 1175.21 475 1173 475C1170.79 475 1169 476.791 1169 479C1169 481.209 1170.79 483 1173 483C1175.21 483 1177 481.209 1177 479ZM1137 479C1137 476.791 1135.21 475 1133 475C1130.79 475 1129 476.791 1129 479C1129 481.209 1130.79 483 1133 483C1135.21 483 1137 481.209 1137 479ZM1173 478.25H1133V479.75H1173V478.25Z" fill="#F5DF4D"/>
<rect x="1008.5" y="608.5" width="99" height="99" fill="black" fill-opacity="0.2"/>
<path d="M1058 707.219C1056.69 707.219 1055.36 706.867 1054.21 706.203L1042.16 699.074C1040.36 698.059 1041.24 697.707 1041.83 697.512C1044.23 696.672 1044.72 696.496 1047.28 695.031C1047.55 694.875 1047.9 694.934 1048.18 695.109L1057.43 700.598C1057.77 700.793 1058.23 700.793 1058.55 700.598L1094.62 679.777C1094.95 679.582 1095.17 679.191 1095.17 678.801V637.16C1095.17 636.75 1094.95 636.379 1094.6 636.164L1058.55 615.363C1058.21 615.168 1057.77 615.168 1057.43 615.363L1021.4 636.184C1021.05 636.379 1020.83 636.77 1020.83 637.18V678.801C1020.83 679.191 1021.05 679.582 1021.4 679.758L1031.28 685.461C1036.65 688.137 1039.93 684.992 1039.93 681.809V640.715C1039.93 640.129 1040.4 639.68 1040.99 639.68H1045.56C1046.12 639.68 1046.61 640.129 1046.61 640.715V681.828C1046.61 688.977 1042.71 693.078 1035.93 693.078C1033.84 693.078 1032.2 693.078 1027.63 690.813L1018.18 685.363C1015.83 684.016 1014.39 681.496 1014.39 678.781V637.16C1014.39 634.465 1015.83 631.926 1018.18 630.578L1054.21 609.758C1056.5 608.469 1059.52 608.469 1061.79 609.758L1097.86 630.598C1100.21 631.945 1101.65 634.465 1101.65 637.18V678.801C1101.65 681.496 1100.21 684.016 1097.86 685.383L1061.79 706.203C1060.64 706.867 1059.33 707.219 1058 707.219ZM1087.12 666.184C1087.12 658.391 1081.85 656.32 1070.77 654.855C1059.56 653.371 1058.43 652.609 1058.43 649.992C1058.43 647.824 1059.39 644.934 1067.69 644.934C1075.09 644.934 1077.82 646.535 1078.96 651.535C1079.05 652.004 1079.48 652.355 1079.97 652.355H1084.66C1084.95 652.355 1085.23 652.238 1085.42 652.023C1085.62 651.809 1085.71 651.516 1085.7 651.223C1084.97 642.609 1079.25 638.605 1067.69 638.605C1057.39 638.605 1051.26 642.941 1051.26 650.227C1051.26 658.117 1057.37 660.305 1067.24 661.281C1079.05 662.434 1079.97 664.172 1079.97 666.496C1079.97 670.52 1076.73 672.238 1069.13 672.238C1059.58 672.238 1057.49 669.836 1056.79 665.09C1056.71 664.582 1056.28 664.211 1055.75 664.211H1051.09C1050.5 664.211 1050.05 664.68 1050.05 665.246C1050.05 671.32 1053.35 678.566 1069.15 678.566C1080.56 678.547 1087.12 674.035 1087.12 666.184V666.184Z" fill="#F5DF4D"/>
<rect x="1008.5" y="608.5" width="99" height="99" stroke="black"/>
<path d="M845.5 444.25L852.316 521.555L882.902 531.75L913.684 521.555L920.5 444.25H845.5ZM905.695 469.23H869.797L870.598 478.879H904.895L902.238 507.863L883.117 513.137V513.195H882.902L863.625 507.863L862.453 493.059H871.77L872.453 500.5L882.902 503.332L893.391 500.5L894.562 488.352H861.965L859.465 459.914H906.555L905.695 469.23V469.23Z" fill="#F5DF4D"/>
<rect width="100" height="100" transform="translate(1008 271)" fill="black" fill-opacity="0.2"/>
<path d="M1020.5 277.25L1027.32 354.555L1058 364.75L1088.68 354.555L1095.5 277.25H1020.5ZM1081.65 292.875L1080.71 302.113L1058.2 311.742L1058.14 311.762H1079.91L1077.41 340.395L1058.23 346L1038.94 340.297L1037.69 325.863H1047.24L1047.86 333.344L1058.14 335.941L1068.82 332.934L1069.54 320.902L1037.06 320.805V320.785L1037.02 320.805L1036.32 311.762L1058.21 302.641L1059.48 302.113H1035.48L1034.35 292.875H1081.65Z" fill="#F5DF4D"/>
<rect width="100" height="100" transform="translate(1183 438)" fill="black" fill-opacity="0.2"/>
<path d="M1225.52 490.363H1240.4L1232.96 472.473L1225.52 490.363ZM1232.96 444.25L1192.38 458.781L1198.59 512.629L1232.96 531.75L1267.34 512.629L1273.55 458.781L1232.96 444.25ZM1258.39 511.008H1248.9L1243.78 498.234H1222.18L1217.06 511.008H1207.55L1232.96 453.918L1258.39 511.008Z" fill="#F5DF4D"/>
<rect width="150" height="150" transform="translate(983 413)" fill="black" fill-opacity="0.2"/>
<path d="M1042.77 482.324C1044.24 483.789 1046.61 483.789 1048.08 482.324L1050.73 479.673C1052.19 478.209 1052.19 475.834 1050.73 474.37L1042.36 466L1050.72 457.628C1052.19 456.163 1052.19 453.789 1050.72 452.324L1048.07 449.673C1046.61 448.209 1044.24 448.209 1042.77 449.673L1029.1 463.347C1027.63 464.812 1027.63 467.186 1029.1 468.651L1042.77 482.324ZM1065.28 479.676L1067.93 482.327C1069.39 483.791 1071.76 483.791 1073.23 482.327L1086.9 468.653C1088.37 467.188 1088.37 464.814 1086.9 463.349L1073.23 449.676C1071.76 448.211 1069.39 448.211 1067.93 449.676L1065.28 452.327C1063.81 453.791 1063.81 456.166 1065.28 457.63L1073.64 466L1065.28 474.372C1063.81 475.837 1063.81 478.211 1065.28 479.676ZM1129.25 518.5H1072.42C1072.25 523.143 1068.98 526 1064.75 526H1050.5C1046.12 526 1042.76 521.905 1042.82 518.5H986.75C984.688 518.5 983 520.187 983 522.25V526C983 534.25 989.75 541 998 541H1118C1126.25 541 1133 534.25 1133 526V522.25C1133 520.187 1131.31 518.5 1129.25 518.5ZM1118 432.25C1118 426.062 1112.94 421 1106.75 421H1009.25C1003.06 421 998 426.062 998 432.25V511H1118V432.25ZM1103 496H1013V436H1103V496Z" fill="white"/>
<path d="M1010.33 718.78H1013.07V720.904C1013.07 721.612 1012.93 722.218 1012.65 722.722C1012.38 723.226 1011.98 723.61 1011.46 723.874C1010.96 724.126 1010.34 724.252 1009.61 724.252C1008.97 724.252 1008.45 724.144 1008.03 723.928C1007.61 723.712 1007.4 723.346 1007.4 722.83C1007.4 722.602 1007.43 722.404 1007.5 722.236C1007.58 722.068 1007.65 721.936 1007.72 721.84C1007.95 721.9 1008.15 721.948 1008.33 721.984C1008.51 722.008 1008.71 722.02 1008.93 722.02C1009.41 722.02 1009.76 721.9 1009.99 721.66C1010.22 721.42 1010.33 721.054 1010.33 720.562V718.78ZM1013.07 719.95H1010.33V713.056C1010.45 713.032 1010.63 713.002 1010.87 712.966C1011.12 712.93 1011.36 712.912 1011.59 712.912C1012.11 712.912 1012.48 713.002 1012.71 713.182C1012.95 713.362 1013.07 713.704 1013.07 714.208V719.95ZM1020.7 715.36H1020.59C1020.47 715.744 1020.33 716.17 1020.16 716.638C1020.01 717.106 1019.84 717.598 1019.68 718.114C1019.51 718.618 1019.35 719.122 1019.19 719.626L1018.87 721.246C1018.79 721.474 1018.72 721.714 1018.65 721.966C1018.59 722.218 1018.52 722.464 1018.45 722.704C1018.38 722.944 1018.31 723.172 1018.25 723.388C1018.19 723.604 1018.13 723.808 1018.07 724C1017.94 724.036 1017.79 724.072 1017.62 724.108C1017.46 724.156 1017.26 724.18 1017.03 724.18C1016.53 724.18 1016.14 724.09 1015.88 723.91C1015.61 723.73 1015.48 723.466 1015.48 723.118C1015.48 722.974 1015.5 722.824 1015.54 722.668C1015.58 722.512 1015.64 722.332 1015.7 722.128C1015.81 721.732 1015.96 721.234 1016.15 720.634C1016.35 720.034 1016.57 719.386 1016.8 718.69C1017.04 717.982 1017.28 717.286 1017.52 716.602C1017.77 715.918 1018 715.288 1018.2 714.712C1018.42 714.136 1018.59 713.686 1018.72 713.362C1018.89 713.254 1019.15 713.158 1019.51 713.074C1019.89 712.978 1020.25 712.93 1020.61 712.93C1021.13 712.93 1021.59 713.008 1022 713.164C1022.41 713.308 1022.66 713.542 1022.77 713.866C1023 714.502 1023.25 715.24 1023.51 716.08C1023.79 716.908 1024.06 717.778 1024.34 718.69C1024.61 719.602 1024.88 720.49 1025.13 721.354C1025.39 722.206 1025.62 722.974 1025.81 723.658C1025.68 723.802 1025.49 723.922 1025.24 724.018C1024.99 724.126 1024.69 724.18 1024.34 724.18C1023.85 724.18 1023.5 724.09 1023.29 723.91C1023.09 723.73 1022.93 723.46 1022.83 723.1L1022.25 721.084L1021.94 719.554C1021.8 719.014 1021.65 718.492 1021.49 717.988C1021.34 717.484 1021.19 717.01 1021.06 716.566C1020.93 716.11 1020.81 715.708 1020.7 715.36ZM1017.66 721.57L1018.72 719.446H1022.93L1023.29 721.57H1017.66ZM1033.56 723.694C1033.41 723.814 1033.18 723.922 1032.87 724.018C1032.56 724.114 1032.22 724.162 1031.85 724.162C1031.43 724.162 1031.05 724.096 1030.73 723.964C1030.41 723.832 1030.19 723.652 1030.08 723.424C1029.9 723.076 1029.69 722.62 1029.45 722.056C1029.22 721.48 1028.97 720.838 1028.7 720.13C1028.43 719.41 1028.16 718.672 1027.89 717.916C1027.62 717.148 1027.38 716.392 1027.15 715.648C1026.92 714.904 1026.72 714.226 1026.55 713.614C1026.7 713.47 1026.91 713.338 1027.18 713.218C1027.46 713.086 1027.76 713.02 1028.08 713.02C1028.48 713.02 1028.8 713.104 1029.04 713.272C1029.28 713.44 1029.45 713.74 1029.56 714.172C1029.93 715.444 1030.3 716.668 1030.68 717.844C1031.05 719.008 1031.44 720.208 1031.86 721.444H1031.95C1032.21 720.664 1032.46 719.824 1032.71 718.924C1032.97 718.024 1033.23 717.1 1033.48 716.152C1033.75 715.192 1033.99 714.25 1034.22 713.326C1034.4 713.242 1034.6 713.17 1034.82 713.11C1035.03 713.05 1035.27 713.02 1035.52 713.02C1035.91 713.02 1036.24 713.11 1036.51 713.29C1036.78 713.458 1036.92 713.74 1036.92 714.136C1036.92 714.376 1036.86 714.748 1036.72 715.252C1036.6 715.744 1036.44 716.32 1036.22 716.98C1036.02 717.628 1035.79 718.3 1035.54 718.996C1035.3 719.68 1035.05 720.34 1034.8 720.976C1034.55 721.612 1034.31 722.17 1034.08 722.65C1033.86 723.13 1033.69 723.478 1033.56 723.694ZM1043.22 715.36H1043.11C1042.99 715.744 1042.85 716.17 1042.68 716.638C1042.52 717.106 1042.36 717.598 1042.19 718.114C1042.02 718.618 1041.86 719.122 1041.71 719.626L1041.38 721.246C1041.31 721.474 1041.24 721.714 1041.17 721.966C1041.11 722.218 1041.04 722.464 1040.97 722.704C1040.9 722.944 1040.83 723.172 1040.77 723.388C1040.71 723.604 1040.65 723.808 1040.59 724C1040.46 724.036 1040.31 724.072 1040.14 724.108C1039.97 724.156 1039.77 724.18 1039.55 724.18C1039.04 724.18 1038.66 724.09 1038.39 723.91C1038.13 723.73 1038 723.466 1038 723.118C1038 722.974 1038.02 722.824 1038.05 722.668C1038.1 722.512 1038.15 722.332 1038.21 722.128C1038.32 721.732 1038.47 721.234 1038.66 720.634C1038.87 720.034 1039.08 719.386 1039.31 718.69C1039.55 717.982 1039.79 717.286 1040.03 716.602C1040.28 715.918 1040.51 715.288 1040.72 714.712C1040.93 714.136 1041.11 713.686 1041.24 713.362C1041.41 713.254 1041.67 713.158 1042.03 713.074C1042.4 712.978 1042.77 712.93 1043.13 712.93C1043.64 712.93 1044.11 713.008 1044.51 713.164C1044.92 713.308 1045.18 713.542 1045.29 713.866C1045.52 714.502 1045.76 715.24 1046.03 716.08C1046.3 716.908 1046.58 717.778 1046.85 718.69C1047.13 719.602 1047.39 720.49 1047.65 721.354C1047.91 722.206 1048.14 722.974 1048.33 723.658C1048.2 723.802 1048.01 723.922 1047.75 724.018C1047.5 724.126 1047.2 724.18 1046.85 724.18C1046.36 724.18 1046.01 724.09 1045.81 723.91C1045.61 723.73 1045.45 723.46 1045.34 723.1L1044.77 721.084L1044.46 719.554C1044.32 719.014 1044.17 718.492 1044.01 717.988C1043.85 717.484 1043.71 717.01 1043.58 716.566C1043.45 716.11 1043.33 715.708 1043.22 715.36ZM1040.18 721.57L1041.24 719.446H1045.45L1045.81 721.57H1040.18ZM1053.97 722.074C1054.61 722.074 1055.08 721.96 1055.35 721.732C1055.64 721.492 1055.78 721.21 1055.78 720.886C1055.78 720.586 1055.67 720.346 1055.44 720.166C1055.23 719.974 1054.9 719.812 1054.47 719.68L1053.52 719.374C1052.87 719.158 1052.29 718.918 1051.79 718.654C1051.3 718.39 1050.91 718.048 1050.64 717.628C1050.37 717.208 1050.24 716.674 1050.24 716.026C1050.24 715.03 1050.62 714.238 1051.37 713.65C1052.13 713.062 1053.18 712.768 1054.52 712.768C1055.21 712.768 1055.81 712.834 1056.34 712.966C1056.88 713.098 1057.3 713.296 1057.6 713.56C1057.91 713.812 1058.07 714.124 1058.07 714.496C1058.07 714.772 1058 715.012 1057.87 715.216C1057.75 715.408 1057.6 715.576 1057.4 715.72C1057.13 715.528 1056.76 715.366 1056.31 715.234C1055.85 715.09 1055.35 715.018 1054.79 715.018C1054.22 715.018 1053.79 715.114 1053.5 715.306C1053.21 715.486 1053.07 715.726 1053.07 716.026C1053.07 716.266 1053.16 716.464 1053.35 716.62C1053.55 716.764 1053.83 716.896 1054.22 717.016L1055.21 717.322C1056.3 717.658 1057.14 718.108 1057.73 718.672C1058.32 719.224 1058.61 719.968 1058.61 720.904C1058.61 721.912 1058.22 722.734 1057.44 723.37C1056.66 723.994 1055.53 724.306 1054.06 724.306C1053.32 724.306 1052.67 724.228 1052.09 724.072C1051.52 723.916 1051.06 723.688 1050.71 723.388C1050.37 723.088 1050.2 722.74 1050.2 722.344C1050.2 722.032 1050.29 721.768 1050.47 721.552C1050.67 721.324 1050.88 721.156 1051.1 721.048C1051.43 721.312 1051.83 721.552 1052.31 721.768C1052.8 721.972 1053.35 722.074 1053.97 722.074ZM1069.73 714.568C1069.73 714.844 1069.66 715.084 1069.52 715.288C1069.37 715.492 1069.21 715.654 1069.03 715.774C1068.73 715.57 1068.39 715.39 1068 715.234C1067.63 715.078 1067.19 715 1066.67 715C1066.04 715 1065.48 715.138 1065.02 715.414C1064.55 715.69 1064.19 716.092 1063.94 716.62C1063.7 717.148 1063.58 717.79 1063.58 718.546C1063.58 719.698 1063.86 720.574 1064.44 721.174C1065.02 721.774 1065.81 722.074 1066.82 722.074C1067.33 722.074 1067.78 722.002 1068.15 721.858C1068.52 721.714 1068.86 721.552 1069.17 721.372C1069.35 721.504 1069.5 721.678 1069.61 721.894C1069.73 722.098 1069.79 722.338 1069.79 722.614C1069.79 722.854 1069.72 723.076 1069.59 723.28C1069.47 723.484 1069.26 723.658 1068.96 723.802C1068.73 723.922 1068.41 724.036 1067.99 724.144C1067.57 724.252 1067.06 724.306 1066.46 724.306C1065.4 724.306 1064.43 724.102 1063.56 723.694C1062.69 723.274 1062.01 722.644 1061.51 721.804C1061 720.952 1060.75 719.866 1060.75 718.546C1060.75 717.298 1061 716.248 1061.49 715.396C1061.99 714.532 1062.66 713.878 1063.5 713.434C1064.34 712.99 1065.27 712.768 1066.29 712.768C1067 712.768 1067.61 712.852 1068.13 713.02C1068.65 713.176 1069.04 713.392 1069.32 713.668C1069.59 713.932 1069.73 714.232 1069.73 714.568ZM1075.1 718.204H1076.27C1076.87 718.204 1077.35 718.072 1077.71 717.808C1078.08 717.532 1078.27 717.13 1078.27 716.602C1078.27 716.086 1078.09 715.696 1077.75 715.432C1077.4 715.156 1076.86 715.018 1076.14 715.018C1075.94 715.018 1075.75 715.024 1075.59 715.036C1075.42 715.048 1075.26 715.072 1075.1 715.108V718.204ZM1076.52 720.328H1072.38V714.046C1072.38 713.818 1072.45 713.638 1072.58 713.506C1072.71 713.374 1072.89 713.272 1073.1 713.2C1073.5 713.056 1073.96 712.954 1074.49 712.894C1075.03 712.834 1075.59 712.804 1076.16 712.804C1077.78 712.804 1079 713.146 1079.82 713.83C1080.63 714.502 1081.04 715.42 1081.04 716.584C1081.04 717.304 1080.84 717.952 1080.45 718.528C1080.06 719.092 1079.53 719.536 1078.84 719.86C1078.17 720.172 1077.4 720.328 1076.52 720.328ZM1076.02 719.68L1078.47 719.104C1078.74 719.488 1079.02 719.866 1079.31 720.238C1079.61 720.61 1079.89 720.97 1080.16 721.318C1080.43 721.666 1080.68 721.99 1080.9 722.29C1081.11 722.578 1081.29 722.824 1081.42 723.028C1081.31 723.388 1081.12 723.67 1080.84 723.874C1080.57 724.066 1080.25 724.162 1079.91 724.162C1079.46 724.162 1079.12 724.066 1078.88 723.874C1078.65 723.67 1078.44 723.406 1078.23 723.082L1076.02 719.68ZM1072.38 719.302H1075.12V723.982C1075.01 724.018 1074.84 724.048 1074.6 724.072C1074.36 724.108 1074.11 724.126 1073.86 724.126C1073.32 724.126 1072.93 724.03 1072.71 723.838C1072.49 723.646 1072.38 723.31 1072.38 722.83V719.302ZM1083.96 716.386H1086.7V723.982C1086.59 724.018 1086.42 724.048 1086.18 724.072C1085.94 724.108 1085.69 724.126 1085.44 724.126C1084.9 724.126 1084.52 724.03 1084.29 723.838C1084.07 723.646 1083.96 723.31 1083.96 722.83V716.386ZM1086.7 719.842H1083.96V713.056C1084.08 713.032 1084.26 713.002 1084.5 712.966C1084.76 712.93 1085 712.912 1085.24 712.912C1085.76 712.912 1086.13 713.002 1086.36 713.182C1086.59 713.362 1086.7 713.704 1086.7 714.208V719.842ZM1089.99 720.49V714.046C1089.99 713.818 1090.06 713.638 1090.19 713.506C1090.32 713.374 1090.5 713.272 1090.71 713.2C1091.11 713.056 1091.58 712.954 1092.14 712.894C1092.69 712.834 1093.19 712.804 1093.63 712.804C1095.25 712.804 1096.47 713.152 1097.3 713.848C1098.14 714.532 1098.56 715.468 1098.56 716.656C1098.56 717.424 1098.38 718.096 1098 718.672C1097.64 719.248 1097.12 719.698 1096.44 720.022C1095.75 720.334 1094.93 720.49 1093.97 720.49H1089.99ZM1091.47 724.126C1090.93 724.126 1090.55 724.03 1090.32 723.838C1090.1 723.646 1089.99 723.31 1089.99 722.83V719.284H1092.73V723.982C1092.62 724.018 1092.45 724.048 1092.21 724.072C1091.97 724.108 1091.72 724.126 1091.47 724.126ZM1092.71 718.33H1093.79C1094.4 718.33 1094.88 718.186 1095.23 717.898C1095.59 717.61 1095.77 717.196 1095.77 716.656C1095.77 716.116 1095.6 715.708 1095.27 715.432C1094.93 715.156 1094.45 715.018 1093.81 715.018C1093.59 715.018 1093.4 715.024 1093.22 715.036C1093.05 715.048 1092.88 715.066 1092.71 715.09V718.33ZM1103.53 715.288L1103.51 713.092H1109.07C1109.15 713.2 1109.21 713.35 1109.27 713.542C1109.33 713.734 1109.36 713.938 1109.36 714.154C1109.36 714.538 1109.27 714.826 1109.09 715.018C1108.92 715.198 1108.69 715.288 1108.39 715.288H1103.53ZM1106.07 713.092L1106.09 715.288H1100.52C1100.44 715.18 1100.37 715.03 1100.31 714.838C1100.26 714.646 1100.24 714.442 1100.24 714.226C1100.24 713.83 1100.32 713.542 1100.49 713.362C1100.67 713.182 1100.9 713.092 1101.19 713.092H1106.07ZM1103.39 714.802H1106.14V723.982C1106.02 724.018 1105.84 724.048 1105.6 724.072C1105.36 724.108 1105.11 724.126 1104.86 724.126C1104.32 724.126 1103.94 724.03 1103.71 723.838C1103.49 723.646 1103.39 723.31 1103.39 722.83V714.802Z" fill="#F7F9FB"/>
<path d="M1206.39 718.546C1206.39 719.698 1206.1 720.568 1205.52 721.156C1204.96 721.744 1204.2 722.038 1203.26 722.038C1203.05 722.038 1202.84 722.032 1202.61 722.02C1202.38 721.996 1202.18 721.966 1202 721.93V715.108C1202.2 715.084 1202.4 715.066 1202.59 715.054C1202.79 715.03 1203 715.018 1203.22 715.018C1203.84 715.018 1204.39 715.15 1204.86 715.414C1205.34 715.666 1205.71 716.05 1205.97 716.566C1206.25 717.082 1206.39 717.742 1206.39 718.546ZM1209.21 718.492C1209.21 717.208 1208.96 716.146 1208.44 715.306C1207.92 714.466 1207.2 713.842 1206.28 713.434C1205.37 713.014 1204.29 712.804 1203.06 712.804C1202.6 712.804 1202.1 712.828 1201.55 712.876C1200.99 712.924 1200.48 713.026 1200 713.182C1199.78 713.266 1199.61 713.374 1199.48 713.506C1199.34 713.626 1199.28 713.806 1199.28 714.046V722.65C1199.28 723.226 1199.59 723.628 1200.21 723.856C1200.68 724.024 1201.2 724.132 1201.78 724.18C1202.36 724.24 1202.84 724.27 1203.24 724.27C1204.44 724.27 1205.48 724.06 1206.37 723.64C1207.27 723.208 1207.97 722.566 1208.46 721.714C1208.96 720.862 1209.21 719.788 1209.21 718.492ZM1222.54 718.528C1222.54 719.776 1222.29 720.832 1221.8 721.696C1221.32 722.548 1220.65 723.196 1219.8 723.64C1218.96 724.084 1218.01 724.306 1216.94 724.306C1215.87 724.306 1214.92 724.084 1214.08 723.64C1213.24 723.196 1212.58 722.548 1212.1 721.696C1211.62 720.832 1211.38 719.776 1211.38 718.528C1211.38 717.28 1211.62 716.23 1212.11 715.378C1212.61 714.514 1213.27 713.866 1214.11 713.434C1214.95 712.99 1215.89 712.768 1216.94 712.768C1217.99 712.768 1218.94 712.99 1219.78 713.434C1220.63 713.866 1221.31 714.514 1221.8 715.378C1222.29 716.23 1222.54 717.28 1222.54 718.528ZM1219.71 718.528C1219.71 717.376 1219.46 716.5 1218.95 715.9C1218.46 715.3 1217.79 715 1216.94 715C1216.12 715 1215.46 715.3 1214.96 715.9C1214.45 716.488 1214.2 717.364 1214.2 718.528C1214.2 719.704 1214.45 720.592 1214.94 721.192C1215.44 721.78 1216.12 722.074 1216.96 722.074C1217.8 722.074 1218.46 721.78 1218.95 721.192C1219.46 720.592 1219.71 719.704 1219.71 718.528ZM1233.68 714.568C1233.68 714.844 1233.61 715.084 1233.47 715.288C1233.32 715.492 1233.16 715.654 1232.98 715.774C1232.68 715.57 1232.34 715.39 1231.95 715.234C1231.58 715.078 1231.14 715 1230.62 715C1229.99 715 1229.43 715.138 1228.97 715.414C1228.5 715.69 1228.14 716.092 1227.89 716.62C1227.65 717.148 1227.53 717.79 1227.53 718.546C1227.53 719.698 1227.81 720.574 1228.39 721.174C1228.97 721.774 1229.76 722.074 1230.77 722.074C1231.28 722.074 1231.73 722.002 1232.1 721.858C1232.47 721.714 1232.81 721.552 1233.12 721.372C1233.3 721.504 1233.45 721.678 1233.56 721.894C1233.68 722.098 1233.74 722.338 1233.74 722.614C1233.74 722.854 1233.67 723.076 1233.54 723.28C1233.42 723.484 1233.21 723.658 1232.91 723.802C1232.68 723.922 1232.36 724.036 1231.94 724.144C1231.52 724.252 1231.01 724.306 1230.41 724.306C1229.35 724.306 1228.38 724.102 1227.51 723.694C1226.64 723.274 1225.96 722.644 1225.46 721.804C1224.95 720.952 1224.7 719.866 1224.7 718.546C1224.7 717.298 1224.95 716.248 1225.44 715.396C1225.94 714.532 1226.61 713.878 1227.45 713.434C1228.29 712.99 1229.22 712.768 1230.24 712.768C1230.95 712.768 1231.56 712.852 1232.08 713.02C1232.6 713.176 1232.99 713.392 1233.27 713.668C1233.54 713.932 1233.68 714.232 1233.68 714.568ZM1237.82 718.204L1240.88 717.844C1241.89 718.912 1242.79 719.866 1243.58 720.706C1244.38 721.546 1245.02 722.218 1245.51 722.722C1245.51 723.178 1245.36 723.538 1245.06 723.802C1244.76 724.054 1244.41 724.18 1244.02 724.18C1243.58 724.18 1243.23 724.072 1242.95 723.856C1242.68 723.64 1242.41 723.388 1242.16 723.1L1237.82 718.204ZM1240.96 719.158L1237.46 719.32L1243.12 712.984C1243.8 712.984 1244.3 713.122 1244.61 713.398C1244.92 713.662 1245.08 713.974 1245.08 714.334C1245.08 714.61 1245.01 714.874 1244.86 715.126C1244.73 715.366 1244.51 715.63 1244.2 715.918L1240.96 719.158ZM1236.33 716.368H1239.07V723.982C1238.96 724.018 1238.78 724.054 1238.54 724.09C1238.3 724.126 1238.06 724.144 1237.81 724.144C1237.27 724.144 1236.88 724.048 1236.65 723.856C1236.44 723.652 1236.33 723.316 1236.33 722.848V716.368ZM1239.07 719.824H1236.33V713.056C1236.45 713.032 1236.63 713.002 1236.87 712.966C1237.12 712.93 1237.36 712.912 1237.59 712.912C1238.12 712.912 1238.5 713.002 1238.72 713.182C1238.95 713.362 1239.07 713.704 1239.07 714.208V719.824ZM1247.9 716.368H1250.56V723.892C1250.45 723.916 1250.28 723.946 1250.06 723.982C1249.84 724.018 1249.61 724.036 1249.35 724.036C1248.91 724.036 1248.56 723.904 1248.29 723.64C1248.03 723.376 1247.9 723.022 1247.9 722.578V716.368ZM1250.56 720.724H1247.9V714.55C1247.9 714.094 1248.03 713.74 1248.29 713.488C1248.56 713.224 1248.91 713.092 1249.35 713.092C1249.61 713.092 1249.84 713.11 1250.06 713.146C1250.28 713.182 1250.45 713.212 1250.56 713.236V720.724ZM1249.35 719.518V717.358H1254.79C1254.86 717.478 1254.93 717.628 1254.99 717.808C1255.05 717.988 1255.08 718.186 1255.08 718.402C1255.08 718.786 1254.99 719.068 1254.81 719.248C1254.64 719.428 1254.41 719.518 1254.12 719.518H1249.35ZM1249.35 724.036V721.858H1255.38C1255.46 721.966 1255.52 722.116 1255.58 722.308C1255.64 722.5 1255.67 722.704 1255.67 722.92C1255.67 723.304 1255.58 723.586 1255.4 723.766C1255.23 723.946 1255.01 724.036 1254.72 724.036H1249.35ZM1249.35 715.252V713.092H1255.29C1255.38 713.2 1255.44 713.344 1255.49 713.524C1255.55 713.704 1255.58 713.902 1255.58 714.118C1255.58 714.502 1255.5 714.79 1255.33 714.982C1255.16 715.162 1254.93 715.252 1254.63 715.252H1249.35ZM1261.13 718.204H1262.3C1262.9 718.204 1263.38 718.072 1263.74 717.808C1264.11 717.532 1264.29 717.13 1264.29 716.602C1264.29 716.086 1264.12 715.696 1263.77 715.432C1263.42 715.156 1262.89 715.018 1262.17 715.018C1261.97 715.018 1261.78 715.024 1261.61 715.036C1261.44 715.048 1261.28 715.072 1261.13 715.108V718.204ZM1262.55 720.328H1258.41V714.046C1258.41 713.818 1258.47 713.638 1258.61 713.506C1258.74 713.374 1258.91 713.272 1259.13 713.2C1259.52 713.056 1259.99 712.954 1260.51 712.894C1261.05 712.834 1261.61 712.804 1262.19 712.804C1263.81 712.804 1265.03 713.146 1265.84 713.83C1266.66 714.502 1267.07 715.42 1267.07 716.584C1267.07 717.304 1266.87 717.952 1266.47 718.528C1266.09 719.092 1265.55 719.536 1264.87 719.86C1264.2 720.172 1263.42 720.328 1262.55 720.328ZM1262.04 719.68L1264.49 719.104C1264.77 719.488 1265.05 719.866 1265.34 720.238C1265.64 720.61 1265.92 720.97 1266.18 721.318C1266.46 721.666 1266.71 721.99 1266.92 722.29C1267.14 722.578 1267.31 722.824 1267.44 723.028C1267.34 723.388 1267.14 723.67 1266.87 723.874C1266.59 724.066 1266.28 724.162 1265.93 724.162C1265.49 724.162 1265.15 724.066 1264.91 723.874C1264.68 723.67 1264.46 723.406 1264.26 723.082L1262.04 719.68ZM1258.41 719.302H1261.14V723.982C1261.04 724.018 1260.86 724.048 1260.62 724.072C1260.38 724.108 1260.14 724.126 1259.88 724.126C1259.34 724.126 1258.96 724.03 1258.73 723.838C1258.52 723.646 1258.41 723.31 1258.41 722.83V719.302Z" fill="#F7F9FB"/>
<path d="M1051.7 260.568C1051.7 260.844 1051.63 261.084 1051.49 261.288C1051.34 261.492 1051.18 261.654 1051 261.774C1050.7 261.57 1050.36 261.39 1049.97 261.234C1049.6 261.078 1049.16 261 1048.64 261C1048.01 261 1047.45 261.138 1046.99 261.414C1046.52 261.69 1046.16 262.092 1045.91 262.62C1045.67 263.148 1045.55 263.79 1045.55 264.546C1045.55 265.698 1045.83 266.574 1046.41 267.174C1046.99 267.774 1047.78 268.074 1048.79 268.074C1049.3 268.074 1049.75 268.002 1050.12 267.858C1050.49 267.714 1050.83 267.552 1051.14 267.372C1051.32 267.504 1051.47 267.678 1051.58 267.894C1051.7 268.098 1051.76 268.338 1051.76 268.614C1051.76 268.854 1051.69 269.076 1051.56 269.28C1051.44 269.484 1051.23 269.658 1050.93 269.802C1050.7 269.922 1050.38 270.036 1049.96 270.144C1049.54 270.252 1049.03 270.306 1048.43 270.306C1047.37 270.306 1046.4 270.102 1045.53 269.694C1044.66 269.274 1043.98 268.644 1043.48 267.804C1042.97 266.952 1042.72 265.866 1042.72 264.546C1042.72 263.298 1042.97 262.248 1043.46 261.396C1043.96 260.532 1044.63 259.878 1045.47 259.434C1046.31 258.99 1047.24 258.768 1048.26 258.768C1048.97 258.768 1049.58 258.852 1050.1 259.02C1050.62 259.176 1051.01 259.392 1051.29 259.668C1051.56 259.932 1051.7 260.232 1051.7 260.568ZM1057.61 268.074C1058.26 268.074 1058.72 267.96 1059 267.732C1059.28 267.492 1059.43 267.21 1059.43 266.886C1059.43 266.586 1059.31 266.346 1059.09 266.166C1058.87 265.974 1058.55 265.812 1058.11 265.68L1057.16 265.374C1056.51 265.158 1055.94 264.918 1055.43 264.654C1054.94 264.39 1054.56 264.048 1054.28 263.628C1054.02 263.208 1053.88 262.674 1053.88 262.026C1053.88 261.03 1054.26 260.238 1055.02 259.65C1055.77 259.062 1056.82 258.768 1058.17 258.768C1058.85 258.768 1059.46 258.834 1059.99 258.966C1060.53 259.098 1060.95 259.296 1061.25 259.56C1061.56 259.812 1061.71 260.124 1061.71 260.496C1061.71 260.772 1061.65 261.012 1061.52 261.216C1061.4 261.408 1061.24 261.576 1061.05 261.72C1060.77 261.528 1060.41 261.366 1059.95 261.234C1059.49 261.09 1058.99 261.018 1058.44 261.018C1057.86 261.018 1057.43 261.114 1057.14 261.306C1056.85 261.486 1056.71 261.726 1056.71 262.026C1056.71 262.266 1056.81 262.464 1057 262.62C1057.19 262.764 1057.48 262.896 1057.86 263.016L1058.85 263.322C1059.94 263.658 1060.78 264.108 1061.37 264.672C1061.96 265.224 1062.25 265.968 1062.25 266.904C1062.25 267.912 1061.86 268.734 1061.08 269.37C1060.3 269.994 1059.18 270.306 1057.7 270.306C1056.97 270.306 1056.31 270.228 1055.74 270.072C1055.16 269.916 1054.7 269.688 1054.35 269.388C1054.02 269.088 1053.85 268.74 1053.85 268.344C1053.85 268.032 1053.94 267.768 1054.12 267.552C1054.31 267.324 1054.52 267.156 1054.75 267.048C1055.07 267.312 1055.47 267.552 1055.95 267.768C1056.45 267.972 1057 268.074 1057.61 268.074ZM1068.12 268.074C1068.77 268.074 1069.23 267.96 1069.51 267.732C1069.79 267.492 1069.94 267.21 1069.94 266.886C1069.94 266.586 1069.82 266.346 1069.6 266.166C1069.38 265.974 1069.06 265.812 1068.62 265.68L1067.67 265.374C1067.02 265.158 1066.45 264.918 1065.94 264.654C1065.45 264.39 1065.07 264.048 1064.79 263.628C1064.53 263.208 1064.39 262.674 1064.39 262.026C1064.39 261.03 1064.77 260.238 1065.53 259.65C1066.28 259.062 1067.33 258.768 1068.68 258.768C1069.36 258.768 1069.97 258.834 1070.5 258.966C1071.04 259.098 1071.46 259.296 1071.76 259.56C1072.07 259.812 1072.22 260.124 1072.22 260.496C1072.22 260.772 1072.16 261.012 1072.03 261.216C1071.91 261.408 1071.75 261.576 1071.56 261.72C1071.28 261.528 1070.92 261.366 1070.46 261.234C1070 261.09 1069.5 261.018 1068.95 261.018C1068.37 261.018 1067.94 261.114 1067.65 261.306C1067.36 261.486 1067.22 261.726 1067.22 262.026C1067.22 262.266 1067.32 262.464 1067.51 262.62C1067.7 262.764 1067.99 262.896 1068.37 263.016L1069.36 263.322C1070.45 263.658 1071.29 264.108 1071.88 264.672C1072.47 265.224 1072.76 265.968 1072.76 266.904C1072.76 267.912 1072.37 268.734 1071.59 269.37C1070.81 269.994 1069.69 270.306 1068.21 270.306C1067.48 270.306 1066.82 270.228 1066.25 270.072C1065.67 269.916 1065.21 269.688 1064.86 269.388C1064.53 269.088 1064.36 268.74 1064.36 268.344C1064.36 268.032 1064.45 267.768 1064.63 267.552C1064.82 267.324 1065.03 267.156 1065.26 267.048C1065.58 267.312 1065.98 267.552 1066.46 267.768C1066.96 267.972 1067.51 268.074 1068.12 268.074Z" fill="#F7F9FB"/>
<path d="M896 303.328C922.781 303.328 943.375 314.609 943.375 327C943.375 339.391 922.766 350.672 896 350.672C869.219 350.672 848.625 339.391 848.625 327C848.625 314.609 869.234 303.328 896 303.328ZM896 300.703C868.391 300.703 846 312.469 846 327C846 341.531 868.391 353.297 896 353.297C923.609 353.297 946 341.531 946 327C946 312.469 923.609 300.703 896 300.703ZM880.094 324.891C878.859 331.219 874.5 330.562 869.141 330.562L871.281 319.531C877.219 319.531 881.25 318.891 880.094 324.891ZM861.219 341.734H866.953L868.313 334.734C874.734 334.734 878.719 335.203 882.406 331.75C886.484 328 887.547 321.328 884.641 317.984C883.125 316.234 880.688 315.375 877.375 315.375H866.328L861.219 341.734ZM890.234 308.359H895.938L894.578 315.359C899.5 315.359 904.063 315 906.266 317.031C908.578 319.156 907.469 321.875 904.969 334.703H899.187C901.594 322.297 902.047 321.266 901.172 320.328C900.328 319.422 898.406 319.609 893.766 319.609L890.828 334.703H885.125L890.234 308.359V308.359ZM924.906 324.891C923.656 331.313 919.172 330.562 913.953 330.562L916.094 319.531C922.063 319.531 926.063 318.891 924.906 324.891V324.891ZM906.031 341.734H911.781L913.141 334.734C919.891 334.734 923.625 335.125 927.234 331.75C931.313 328 932.375 321.328 929.469 317.984C927.953 316.234 925.516 315.375 922.203 315.375H911.156L906.031 341.734V341.734Z" fill="#F5DF4D"/>
<path d="M880.278 290.49V284.046C880.278 283.818 880.344 283.638 880.476 283.506C880.608 283.374 880.782 283.272 880.998 283.2C881.394 283.056 881.868 282.954 882.42 282.894C882.972 282.834 883.47 282.804 883.914 282.804C885.534 282.804 886.758 283.152 887.586 283.848C888.426 284.532 888.846 285.468 888.846 286.656C888.846 287.424 888.66 288.096 888.288 288.672C887.928 289.248 887.406 289.698 886.722 290.022C886.038 290.334 885.216 290.49 884.256 290.49H880.278ZM881.754 294.126C881.214 294.126 880.83 294.03 880.602 293.838C880.386 293.646 880.278 293.31 880.278 292.83V289.284H883.014V293.982C882.906 294.018 882.732 294.048 882.492 294.072C882.252 294.108 882.006 294.126 881.754 294.126ZM882.996 288.33H884.076C884.688 288.33 885.168 288.186 885.516 287.898C885.876 287.61 886.056 287.196 886.056 286.656C886.056 286.116 885.888 285.708 885.552 285.432C885.216 285.156 884.73 285.018 884.094 285.018C883.878 285.018 883.68 285.024 883.5 285.036C883.332 285.048 883.164 285.066 882.996 285.09V288.33ZM891.404 286.386H894.14V293.982C894.032 294.018 893.858 294.048 893.618 294.072C893.378 294.108 893.132 294.126 892.88 294.126C892.34 294.126 891.956 294.03 891.728 293.838C891.512 293.646 891.404 293.31 891.404 292.83V286.386ZM894.14 289.842H891.404V283.056C891.524 283.032 891.704 283.002 891.944 282.966C892.196 282.93 892.436 282.912 892.664 282.912C893.192 282.912 893.57 283.002 893.798 283.182C894.026 283.362 894.14 283.704 894.14 284.208V289.842ZM898.118 286.386H900.872V293.982C900.752 294.018 900.572 294.048 900.332 294.072C900.092 294.108 899.846 294.126 899.594 294.126C899.054 294.126 898.67 294.03 898.442 293.838C898.226 293.646 898.118 293.31 898.118 292.83V286.386ZM900.872 289.842H898.118V283.056C898.25 283.032 898.436 283.002 898.676 282.966C898.916 282.93 899.156 282.912 899.396 282.912C899.912 282.912 900.284 283.008 900.512 283.2C900.752 283.38 900.872 283.722 900.872 284.226V289.842ZM899.684 289.608H892.646V287.43H899.684V289.608ZM904.148 290.49V284.046C904.148 283.818 904.214 283.638 904.346 283.506C904.478 283.374 904.652 283.272 904.868 283.2C905.264 283.056 905.738 282.954 906.29 282.894C906.842 282.834 907.34 282.804 907.784 282.804C909.404 282.804 910.628 283.152 911.456 283.848C912.296 284.532 912.716 285.468 912.716 286.656C912.716 287.424 912.53 288.096 912.158 288.672C911.798 289.248 911.276 289.698 910.592 290.022C909.908 290.334 909.086 290.49 908.126 290.49H904.148ZM905.624 294.126C905.084 294.126 904.7 294.03 904.472 293.838C904.256 293.646 904.148 293.31 904.148 292.83V289.284H906.884V293.982C906.776 294.018 906.602 294.048 906.362 294.072C906.122 294.108 905.876 294.126 905.624 294.126ZM906.866 288.33H907.946C908.558 288.33 909.038 288.186 909.386 287.898C909.746 287.61 909.926 287.196 909.926 286.656C909.926 286.116 909.758 285.708 909.422 285.432C909.086 285.156 908.6 285.018 907.964 285.018C907.748 285.018 907.55 285.024 907.37 285.036C907.202 285.048 907.034 285.066 906.866 285.09V288.33Z" fill="#F7F9FB"/>
<g clip-path="url(#clip0_49_73)">
<path d="M1237.67 654.922H1227.34V645.641H1237.67V654.922ZM1237.67 623H1227.34V632.484H1237.67V623ZM1249.89 645.625H1239.56V654.906H1249.89V645.625V645.625ZM1225.47 634.359H1215.14V643.75H1225.47V634.359ZM1237.67 634.359H1227.34V643.75H1237.67V634.359ZM1280.92 649.984C1278.67 648.469 1273.48 647.922 1269.5 648.672C1268.98 644.922 1266.89 641.656 1263.08 638.719L1260.89 637.266L1259.44 639.453C1256.56 643.797 1255.78 650.953 1258.86 655.672C1257.5 656.406 1254.83 657.406 1251.3 657.344H1183.37C1182.02 665.281 1184.28 675.594 1190.25 682.672C1196.05 689.531 1204.73 693.016 1216.09 693.016C1240.69 693.016 1258.89 681.687 1267.41 661.109C1270.75 661.172 1277.97 661.125 1281.67 654.047C1281.91 653.656 1282.7 651.984 1283 651.375L1280.92 649.984V649.984ZM1201.06 645.625H1190.75V654.906H1201.08V645.625H1201.06ZM1213.27 645.625H1202.94V654.906H1213.27V645.625ZM1225.47 645.625H1215.14V654.906H1225.47V645.625ZM1213.27 634.359H1202.94V643.75H1213.27V634.359Z" fill="#F5DF4D"/>
</g>
<path d="M1196.67 426.36H1196.56C1196.44 426.744 1196.3 427.17 1196.13 427.638C1195.97 428.106 1195.81 428.598 1195.64 429.114C1195.48 429.618 1195.31 430.122 1195.16 430.626L1194.83 432.246C1194.76 432.474 1194.69 432.714 1194.62 432.966C1194.56 433.218 1194.49 433.464 1194.42 433.704C1194.35 433.944 1194.28 434.172 1194.22 434.388C1194.16 434.604 1194.1 434.808 1194.04 435C1193.91 435.036 1193.76 435.072 1193.59 435.108C1193.42 435.156 1193.23 435.18 1193 435.18C1192.49 435.18 1192.11 435.09 1191.85 434.91C1191.58 434.73 1191.45 434.466 1191.45 434.118C1191.45 433.974 1191.47 433.824 1191.5 433.668C1191.55 433.512 1191.61 433.332 1191.67 433.128C1191.77 432.732 1191.92 432.234 1192.12 431.634C1192.32 431.034 1192.54 430.386 1192.76 429.69C1193 428.982 1193.24 428.286 1193.48 427.602C1193.74 426.918 1193.96 426.288 1194.17 425.712C1194.38 425.136 1194.56 424.686 1194.69 424.362C1194.86 424.254 1195.12 424.158 1195.48 424.074C1195.85 423.978 1196.22 423.93 1196.58 423.93C1197.1 423.93 1197.56 424.008 1197.97 424.164C1198.37 424.308 1198.63 424.542 1198.74 424.866C1198.97 425.502 1199.21 426.24 1199.48 427.08C1199.75 427.908 1200.03 428.778 1200.31 429.69C1200.58 430.602 1200.85 431.49 1201.1 432.354C1201.36 433.206 1201.59 433.974 1201.78 434.658C1201.65 434.802 1201.46 434.922 1201.21 435.018C1200.95 435.126 1200.65 435.18 1200.31 435.18C1199.81 435.18 1199.47 435.09 1199.26 434.91C1199.06 434.73 1198.9 434.46 1198.79 434.1L1198.22 432.084L1197.91 430.554C1197.77 430.014 1197.62 429.492 1197.46 428.988C1197.31 428.484 1197.16 428.01 1197.03 427.566C1196.9 427.11 1196.78 426.708 1196.67 426.36ZM1193.63 432.57L1194.69 430.446H1198.9L1199.26 432.57H1193.63ZM1204.14 427.206L1206.63 427.17C1206.67 427.686 1206.71 428.196 1206.73 428.7C1206.76 429.204 1206.77 429.69 1206.77 430.158C1206.78 430.626 1206.79 431.082 1206.79 431.526V435C1206.68 435.024 1206.51 435.048 1206.27 435.072C1206.04 435.108 1205.8 435.126 1205.56 435.126C1205.04 435.126 1204.66 435.036 1204.45 434.856C1204.24 434.676 1204.14 434.352 1204.14 433.884V427.206ZM1213.74 431.832L1211.23 431.85C1211.15 430.974 1211.1 430.14 1211.09 429.348C1211.08 428.556 1211.07 427.8 1211.07 427.08V424.056C1211.19 424.032 1211.37 424.002 1211.59 423.966C1211.82 423.93 1212.06 423.912 1212.31 423.912C1212.83 423.912 1213.2 424.008 1213.41 424.2C1213.63 424.38 1213.74 424.698 1213.74 425.154V431.832ZM1213.74 430.968V429.222V434.658C1213.58 434.802 1213.36 434.916 1213.07 435C1212.79 435.096 1212.46 435.144 1212.08 435.144C1211.67 435.144 1211.29 435.078 1210.93 434.946C1210.58 434.814 1210.29 434.52 1210.06 434.064L1207.89 429.924C1207.75 429.66 1207.62 429.396 1207.49 429.132C1207.37 428.868 1207.25 428.604 1207.13 428.34C1207.01 428.064 1206.89 427.788 1206.77 427.512L1204.14 428.106V424.56C1204.29 424.356 1204.51 424.2 1204.81 424.092C1205.12 423.984 1205.46 423.93 1205.82 423.93C1206.21 423.93 1206.58 423.996 1206.93 424.128C1207.29 424.26 1207.59 424.548 1207.81 424.992L1210.01 429.15C1210.14 429.402 1210.27 429.666 1210.41 429.942C1210.54 430.206 1210.66 430.47 1210.78 430.734C1210.9 430.998 1211.02 431.268 1211.13 431.544L1213.74 430.968ZM1226.57 429.618V433.362C1226.57 433.698 1226.5 433.956 1226.37 434.136C1226.25 434.304 1226.05 434.466 1225.76 434.622C1225.43 434.802 1224.97 434.958 1224.35 435.09C1223.74 435.234 1223.13 435.306 1222.52 435.306C1221.37 435.306 1220.33 435.108 1219.4 434.712C1218.49 434.304 1217.77 433.68 1217.23 432.84C1216.7 431.988 1216.43 430.896 1216.43 429.564C1216.43 428.292 1216.7 427.23 1217.24 426.378C1217.78 425.514 1218.51 424.866 1219.42 424.434C1220.35 423.99 1221.37 423.768 1222.48 423.768C1223.23 423.768 1223.87 423.846 1224.41 424.002C1224.96 424.158 1225.38 424.374 1225.67 424.65C1225.97 424.926 1226.12 425.244 1226.12 425.604C1226.12 425.868 1226.05 426.108 1225.9 426.324C1225.77 426.528 1225.61 426.684 1225.42 426.792C1225.12 426.6 1224.74 426.42 1224.28 426.252C1223.83 426.084 1223.29 426 1222.68 426C1222.02 426 1221.43 426.144 1220.9 426.432C1220.38 426.708 1219.98 427.116 1219.69 427.656C1219.4 428.184 1219.26 428.814 1219.26 429.546C1219.26 430.338 1219.4 430.998 1219.67 431.526C1219.96 432.054 1220.35 432.45 1220.84 432.714C1221.35 432.966 1221.92 433.092 1222.55 433.092C1222.85 433.092 1223.12 433.062 1223.36 433.002C1223.62 432.942 1223.81 432.882 1223.94 432.822V430.716H1221.83C1221.76 430.596 1221.7 430.446 1221.64 430.266C1221.58 430.074 1221.55 429.87 1221.55 429.654C1221.55 429.282 1221.63 429.012 1221.8 428.844C1221.98 428.664 1222.21 428.574 1222.5 428.574H1225.52C1225.85 428.574 1226.1 428.664 1226.28 428.844C1226.47 429.024 1226.57 429.282 1226.57 429.618ZM1234.22 435.306C1233.24 435.306 1232.39 435.132 1231.68 434.784C1230.99 434.424 1230.45 433.926 1230.06 433.29C1229.69 432.654 1229.51 431.91 1229.51 431.058V429.87H1232.26V430.986C1232.26 431.646 1232.44 432.162 1232.8 432.534C1233.17 432.894 1233.65 433.074 1234.22 433.074C1234.8 433.074 1235.27 432.894 1235.63 432.534C1236 432.162 1236.18 431.646 1236.18 430.986V429.87H1238.94V431.058C1238.94 431.91 1238.75 432.654 1238.38 433.29C1238.01 433.926 1237.47 434.424 1236.76 434.784C1236.05 435.132 1235.21 435.306 1234.22 435.306ZM1232.26 430.41H1229.51V424.056C1229.64 424.032 1229.82 424.002 1230.06 423.966C1230.3 423.93 1230.54 423.912 1230.78 423.912C1231.3 423.912 1231.67 424.002 1231.9 424.182C1232.14 424.362 1232.26 424.704 1232.26 425.208V430.41ZM1238.94 430.446H1236.18V424.056C1236.32 424.032 1236.5 424.002 1236.74 423.966C1236.99 423.93 1237.23 423.912 1237.46 423.912C1237.98 423.912 1238.35 424.002 1238.58 424.182C1238.82 424.362 1238.94 424.704 1238.94 425.208V430.446ZM1242.16 427.422H1244.9V434.892L1243.62 435.036C1243.18 435.036 1242.82 434.904 1242.56 434.64C1242.29 434.376 1242.16 434.022 1242.16 433.578V427.422ZM1243.62 435.036V432.804H1249.27C1249.36 432.924 1249.43 433.08 1249.49 433.272C1249.55 433.452 1249.58 433.656 1249.58 433.884C1249.58 434.268 1249.49 434.556 1249.33 434.748C1249.16 434.94 1248.92 435.036 1248.62 435.036H1243.62ZM1244.9 430.842H1242.16V424.056C1242.28 424.032 1242.46 424.002 1242.7 423.966C1242.95 423.93 1243.19 423.912 1243.42 423.912C1243.95 423.912 1244.33 424.002 1244.56 424.182C1244.78 424.362 1244.9 424.704 1244.9 425.208V430.842ZM1256.63 426.36H1256.52C1256.4 426.744 1256.25 427.17 1256.09 427.638C1255.93 428.106 1255.77 428.598 1255.6 429.114C1255.43 429.618 1255.27 430.122 1255.11 430.626L1254.79 432.246C1254.72 432.474 1254.65 432.714 1254.57 432.966C1254.51 433.218 1254.45 433.464 1254.38 433.704C1254.3 433.944 1254.24 434.172 1254.18 434.388C1254.12 434.604 1254.06 434.808 1254 435C1253.87 435.036 1253.72 435.072 1253.55 435.108C1253.38 435.156 1253.18 435.18 1252.95 435.18C1252.45 435.18 1252.07 435.09 1251.8 434.91C1251.54 434.73 1251.41 434.466 1251.41 434.118C1251.41 433.974 1251.42 433.824 1251.46 433.668C1251.51 433.512 1251.56 433.332 1251.62 433.128C1251.73 432.732 1251.88 432.234 1252.07 431.634C1252.28 431.034 1252.49 430.386 1252.72 429.69C1252.96 428.982 1253.2 428.286 1253.44 427.602C1253.69 426.918 1253.92 426.288 1254.12 425.712C1254.34 425.136 1254.51 424.686 1254.65 424.362C1254.81 424.254 1255.08 424.158 1255.44 424.074C1255.81 423.978 1256.18 423.93 1256.54 423.93C1257.05 423.93 1257.51 424.008 1257.92 424.164C1258.33 424.308 1258.59 424.542 1258.7 424.866C1258.92 425.502 1259.17 426.24 1259.43 427.08C1259.71 427.908 1259.99 428.778 1260.26 429.69C1260.54 430.602 1260.8 431.49 1261.05 432.354C1261.32 433.206 1261.55 433.974 1261.74 434.658C1261.61 434.802 1261.41 434.922 1261.16 435.018C1260.91 435.126 1260.61 435.18 1260.26 435.18C1259.77 435.18 1259.42 435.09 1259.22 434.91C1259.01 434.73 1258.86 434.46 1258.75 434.1L1258.17 432.084L1257.87 430.554C1257.72 430.014 1257.57 429.492 1257.42 428.988C1257.26 428.484 1257.12 428.01 1256.99 427.566C1256.85 427.11 1256.73 426.708 1256.63 426.36ZM1253.58 432.57L1254.65 430.446H1258.86L1259.22 432.57H1253.58ZM1266.82 429.204H1267.99C1268.59 429.204 1269.07 429.072 1269.43 428.808C1269.8 428.532 1269.98 428.13 1269.98 427.602C1269.98 427.086 1269.81 426.696 1269.46 426.432C1269.11 426.156 1268.58 426.018 1267.86 426.018C1267.66 426.018 1267.47 426.024 1267.3 426.036C1267.13 426.048 1266.97 426.072 1266.82 426.108V429.204ZM1268.24 431.328H1264.1V425.046C1264.1 424.818 1264.16 424.638 1264.3 424.506C1264.43 424.374 1264.6 424.272 1264.82 424.2C1265.21 424.056 1265.68 423.954 1266.2 423.894C1266.74 423.834 1267.3 423.804 1267.88 423.804C1269.5 423.804 1270.72 424.146 1271.53 424.83C1272.35 425.502 1272.76 426.42 1272.76 427.584C1272.76 428.304 1272.56 428.952 1272.16 429.528C1271.78 430.092 1271.24 430.536 1270.56 430.86C1269.89 431.172 1269.11 431.328 1268.24 431.328ZM1267.73 430.68L1270.18 430.104C1270.46 430.488 1270.74 430.866 1271.03 431.238C1271.33 431.61 1271.61 431.97 1271.87 432.318C1272.15 432.666 1272.4 432.99 1272.61 433.29C1272.83 433.578 1273 433.824 1273.13 434.028C1273.03 434.388 1272.83 434.67 1272.56 434.874C1272.28 435.066 1271.97 435.162 1271.62 435.162C1271.18 435.162 1270.84 435.066 1270.6 434.874C1270.37 434.67 1270.15 434.406 1269.95 434.082L1267.73 430.68ZM1264.1 430.302H1266.83V434.982C1266.73 435.018 1266.55 435.048 1266.31 435.072C1266.07 435.108 1265.83 435.126 1265.57 435.126C1265.03 435.126 1264.65 435.03 1264.42 434.838C1264.21 434.646 1264.1 434.31 1264.1 433.83V430.302Z" fill="#F7F9FB"/>
<path d="M860.278 430.386H863.014V437.982C862.906 438.018 862.732 438.048 862.492 438.072C862.252 438.108 862.006 438.126 861.754 438.126C861.214 438.126 860.83 438.03 860.602 437.838C860.386 437.646 860.278 437.31 860.278 436.83V430.386ZM863.014 433.842H860.278V427.056C860.398 427.032 860.578 427.002 860.818 426.966C861.07 426.93 861.31 426.912 861.538 426.912C862.066 426.912 862.444 427.002 862.672 427.182C862.9 427.362 863.014 427.704 863.014 428.208V433.842ZM866.992 430.386H869.746V437.982C869.626 438.018 869.446 438.048 869.206 438.072C868.966 438.108 868.72 438.126 868.468 438.126C867.928 438.126 867.544 438.03 867.316 437.838C867.1 437.646 866.992 437.31 866.992 436.83V430.386ZM869.746 433.842H866.992V427.056C867.124 427.032 867.31 427.002 867.55 426.966C867.79 426.93 868.03 426.912 868.27 426.912C868.786 426.912 869.158 427.008 869.386 427.2C869.626 427.38 869.746 427.722 869.746 428.226V433.842ZM868.558 433.608H861.52V431.43H868.558V433.608ZM875.397 429.288L875.379 427.092H880.941C881.013 427.2 881.079 427.35 881.139 427.542C881.199 427.734 881.229 427.938 881.229 428.154C881.229 428.538 881.139 428.826 880.959 429.018C880.791 429.198 880.557 429.288 880.257 429.288H875.397ZM877.935 427.092L877.953 429.288H872.391C872.307 429.18 872.235 429.03 872.175 428.838C872.127 428.646 872.103 428.442 872.103 428.226C872.103 427.83 872.187 427.542 872.355 427.362C872.535 427.182 872.769 427.092 873.057 427.092H877.935ZM875.253 428.802H878.007V437.982C877.887 438.018 877.707 438.048 877.467 438.072C877.227 438.108 876.981 438.126 876.729 438.126C876.189 438.126 875.805 438.03 875.577 437.838C875.361 437.646 875.253 437.31 875.253 436.83V428.802ZM890.487 435.282C890.355 435.39 890.175 435.48 889.947 435.552C889.731 435.624 889.479 435.66 889.191 435.66C888.819 435.66 888.507 435.612 888.255 435.516C888.003 435.42 887.841 435.258 887.769 435.03C887.361 433.89 887.013 432.942 886.725 432.186C886.449 431.43 886.233 430.776 886.077 430.224H885.987C885.951 430.98 885.921 431.67 885.897 432.294C885.873 432.918 885.855 433.53 885.843 434.13C885.831 434.718 885.813 435.318 885.789 435.93C885.765 436.542 885.729 437.214 885.681 437.946C885.549 437.982 885.369 438.024 885.141 438.072C884.925 438.12 884.709 438.144 884.493 438.144C884.037 438.144 883.677 438.066 883.413 437.91C883.161 437.754 883.035 437.484 883.035 437.1C883.035 436.836 883.047 436.446 883.071 435.93C883.107 435.402 883.143 434.802 883.179 434.13C883.227 433.446 883.269 432.726 883.305 431.97C883.353 431.214 883.401 430.47 883.449 429.738C883.509 428.994 883.563 428.31 883.611 427.686C883.707 427.542 883.899 427.398 884.187 427.254C884.475 427.098 884.871 427.02 885.375 427.02C885.915 427.02 886.347 427.11 886.671 427.29C887.007 427.458 887.247 427.74 887.391 428.136C887.571 428.568 887.763 429.072 887.967 429.648C888.171 430.212 888.369 430.788 888.561 431.376C888.765 431.952 888.951 432.474 889.119 432.942H889.209C889.545 431.886 889.887 430.854 890.235 429.846C890.595 428.838 890.901 427.998 891.153 427.326C891.321 427.23 891.531 427.158 891.783 427.11C892.047 427.05 892.323 427.02 892.611 427.02C893.127 427.02 893.541 427.098 893.853 427.254C894.177 427.398 894.369 427.62 894.429 427.92C894.477 428.148 894.525 428.508 894.573 429C894.633 429.492 894.693 430.062 894.753 430.71C894.813 431.346 894.873 432.018 894.933 432.726C894.993 433.422 895.047 434.106 895.095 434.778C895.155 435.438 895.203 436.032 895.239 436.56C895.275 437.088 895.299 437.508 895.311 437.82C895.131 437.928 894.939 438.006 894.735 438.054C894.543 438.114 894.297 438.144 893.997 438.144C893.613 438.144 893.283 438.072 893.007 437.928C892.743 437.784 892.599 437.508 892.575 437.1C892.515 436.164 892.467 435.276 892.431 434.436C892.395 433.584 892.365 432.81 892.341 432.114C892.329 431.406 892.311 430.8 892.287 430.296H892.197C892.041 430.812 891.819 431.466 891.531 432.258C891.255 433.038 890.907 434.046 890.487 435.282ZM898.262 430.422H900.998V437.892L899.72 438.036C899.276 438.036 898.922 437.904 898.658 437.64C898.394 437.376 898.262 437.022 898.262 436.578V430.422ZM899.72 438.036V435.804H905.372C905.456 435.924 905.528 436.08 905.588 436.272C905.648 436.452 905.678 436.656 905.678 436.884C905.678 437.268 905.594 437.556 905.426 437.748C905.258 437.94 905.024 438.036 904.724 438.036H899.72ZM900.998 433.842H898.262V427.056C898.382 427.032 898.562 427.002 898.802 426.966C899.054 426.93 899.294 426.912 899.522 426.912C900.05 426.912 900.428 427.002 900.656 427.182C900.884 427.362 900.998 427.704 900.998 428.208V433.842Z" fill="#F7F9FB"/>
<defs>
<clipPath id="clip0_49_73">
<rect width="100" height="100" fill="white" transform="translate(1183 608)"/>
</clipPath>
</defs>
</svg>
